<svg width="1360" height="765" viewBox="0 0 1360 765" fill="none" xmlns="http://www.w3.org/2000/svg">
<mask id="mask0_502_39" style="mask-type:alpha" maskUnits="userSpaceOnUse" x="0" y="0" width="1360" height="765">
<path d="M0 0H1360V765H0V0Z" fill="#F4EBE8"/>
</mask>
<g mask="url(#mask0_502_39)">
<path d="M0 0H1360V765H0V0Z" fill="#F4EBE8"/>
<path d="M129.784 700.786C129.107 700.617 128.43 700.617 127.753 700.617C123.861 700.449 120.307 701.459 116.753 702.638C115.738 702.974 114.723 703.984 113.369 703.311C114.215 702.133 115.061 700.786 115.738 699.607C118.107 695.567 120.138 691.527 120.646 686.813C120.815 685.466 121.153 683.951 119.461 682.941C118.107 682.099 116.923 682.941 115.738 683.446C111.338 685.635 107.953 689.002 105.077 693.042C104.4 694.052 103.892 695.567 102.369 696.072C103.046 689.675 102.707 683.446 101.184 677.386C100.677 675.534 100.169 673.177 97.7996 673.009C95.4304 672.84 95.0919 675.197 94.415 676.712C91.5381 682.773 90.8612 689.338 90.5227 695.904C90.5227 697.419 90.5227 698.934 90.015 700.786C88.492 699.776 88.3227 698.429 87.6458 697.419C84.092 690.348 80.3689 683.446 75.9689 676.881C75.1228 675.702 74.2766 674.86 72.7536 675.197C71.3997 675.534 71.2305 676.881 71.0613 678.059C70.892 678.564 70.892 679.069 70.892 679.574C70.7228 689.338 72.5843 698.429 79.5228 705.836C79.8612 706.173 80.1997 706.51 80.1997 707.52C79.0151 707.183 77.9997 706.846 76.9843 706.341C73.4305 704.826 70.0459 703.479 66.4921 701.964C65.3074 701.459 63.9536 700.954 62.9382 702.133C62.0921 703.143 62.5998 704.321 63.1074 705.5C64.969 709.877 68.3536 712.402 72.4151 713.917C76.6459 715.432 81.0458 716.105 85.4458 716.61C86.6304 716.779 88.1535 716.442 88.3227 717.957C88.9997 721.829 90.5227 725.533 89.8458 729.573C87.9843 741.694 85.2766 753.647 82.9074 765.599C82.5689 767.62 82.3997 769.64 81.0458 771.997C80.1997 768.125 79.692 764.758 78.8458 761.559C75.4612 748.428 70.5536 735.97 65.6459 723.513C65.1382 721.998 64.6305 720.146 62.5998 720.482C60.3998 720.819 60.9075 722.839 60.7382 724.354C60.2305 736.139 61.4151 747.586 65.4767 758.529C68.3536 766.61 72.7536 774.017 77.492 781.087C78.5074 782.603 78.6766 783.781 78.1689 785.464C74.4459 798.932 69.369 811.895 62.9382 824.353C62.5998 825.026 62.4305 825.868 61.4151 825.868C61.0767 825.194 61.2459 824.521 61.4151 823.848C65.1382 805.329 64.1228 787.148 59.2152 768.966C58.8767 767.788 58.5382 766.778 58.1998 765.599C57.8613 764.589 57.0152 764.084 56.169 764.084C54.9844 764.084 54.6459 764.926 54.4767 765.936C54.3075 766.778 54.1383 767.451 53.969 768.293C52.7844 775.195 51.4306 782.097 50.246 788.831C47.7075 803.478 47.8767 817.955 50.0767 832.433C50.5844 835.295 50.9229 838.325 52.6152 840.682C53.7998 842.197 53.7998 843.207 53.1229 844.723C48.2152 854.15 43.8152 863.914 39.4152 873.678C39.0768 874.52 39.0768 875.53 37.5537 875.867C37.5537 872.163 37.5537 868.46 37.5537 864.924C37.8922 852.972 37.8922 841.187 37.2152 829.403C36.8768 825.194 36.3691 820.986 35.8614 816.777C35.6922 815.43 35.1845 814.42 33.8306 814.252C32.3076 813.915 31.7999 815.094 31.2922 816.272C27.5691 826.878 24.8614 837.652 25.5384 849.1C26.0461 859.032 28.5845 868.46 32.4768 877.382C34.5076 882.096 34.3383 886.136 32.3076 890.681C27.7384 900.951 23.5076 911.556 19.9538 922.162C19.7845 922.667 19.6153 923.172 18.7692 923.172C18.4307 921.994 17.7538 934.283 18.0922 936.472C18.7692 942.196 19.4461 947.919 20.123 953.811C20.2922 954.653 19.9538 956 21.3076 956C22.8307 956 22.4922 954.485 22.4922 953.475C22.4922 952.97 22.4922 952.465 22.323 951.96C21.9845 948.256 21.6461 944.552 21.1384 941.017C20.2922 934.452 20.6307 927.886 22.9999 921.657C24.3538 917.785 26.2153 914.082 27.2307 910.21C28.7537 904.149 32.9845 901.119 38.3999 899.267C39.246 898.93 40.0922 898.594 40.9383 898.425C49.3998 895.563 57.1844 891.523 64.6305 886.304C72.4151 880.917 79.5228 874.688 84.092 866.103C84.5997 865.093 85.9535 863.914 84.7689 862.567C83.5843 861.389 82.3997 862.062 81.2151 862.567C78.5074 863.746 75.6305 864.924 72.9228 866.103C59.8921 871.49 48.2152 879.065 37.8922 888.661C37.5537 888.998 37.2152 889.503 36.5383 889.166C36.3691 888.661 36.7076 888.156 36.8768 887.651C43.8152 870.816 51.4306 854.487 59.7228 838.325C60.569 836.642 61.9228 835.8 63.4459 835.127C71.2305 831.76 78.8458 827.888 85.6151 822.837C96.4458 814.588 105.415 804.488 113.369 793.545C114.892 791.525 116.076 789.336 116.923 786.98C117.261 785.969 117.769 784.959 116.753 784.118C115.738 783.108 114.723 783.444 113.538 784.286C110.83 786.138 108.123 787.99 105.415 789.841C93.7381 797.754 82.3997 806.339 72.5843 816.609C72.0766 817.282 71.569 818.124 70.5536 818.124C70.0459 817.45 70.5536 816.777 70.7228 816.272C74.4459 807.855 77.6612 799.269 80.3689 790.346C80.8766 788.663 81.892 787.821 83.2458 786.811C89.3381 782.771 95.7689 779.236 100.846 773.848C110.153 764.253 117.43 753.142 122.676 740.852C124.03 737.822 125.215 734.792 125.892 731.593C126.23 730.247 126.907 729.068 125.384 728.058C123.861 727.048 123.015 728.226 122 729.068C109.138 740.684 97.2919 753.31 87.815 767.956C87.3074 768.63 87.1381 769.808 85.9535 769.64C85.9535 769.303 85.6151 769.135 85.7843 768.966C88.1535 755.835 91.0304 742.536 92.8919 729.236C93.0612 728.395 93.2304 727.721 94.0766 727.385C97.7996 726.206 98.815 723.176 99.6611 719.809C99.9996 718.126 100.846 717.789 102.369 717.789C106.43 717.957 110.492 717.452 114.384 717.115C121.661 716.442 127.415 712.907 132.153 707.351C135.199 703.143 134.523 701.628 129.784 700.786ZM76.3074 768.63C73.7689 762.569 71.3997 756.34 69.7074 750.112C69.5382 749.438 69.369 748.596 69.0305 747.755C68.8613 747.25 68.692 746.745 68.0151 746.745C67.169 746.913 66.8305 747.418 66.9997 748.091C67.3382 749.606 67.6767 751.122 68.0151 752.637C68.1844 753.815 69.0305 754.825 68.1844 756.509C64.7998 746.745 63.4459 737.317 64.2921 727.385C70.0459 741.357 75.9689 755.33 78.1689 770.65C76.6459 770.482 76.6459 769.471 76.3074 768.63ZM32.4768 850.951C32.3076 848.09 32.1383 845.228 31.9691 842.366C31.9691 841.524 32.3076 839.841 30.7845 840.009C29.4307 840.177 29.7691 841.692 29.7691 842.702C29.7691 847.921 30.2768 853.14 30.7845 858.359C30.9537 859.537 30.9537 860.716 31.123 862.231C26.5537 854.487 27.9076 829.74 33.4922 820.312C35.5229 834.453 34.846 847.921 34.3383 861.726C32.9845 858.19 32.8153 854.487 32.4768 850.951ZM80.0305 865.766C71.3997 880.412 57.6921 888.156 43.3075 894.89C43.1383 894.722 42.9691 894.385 42.7998 894.217C46.8614 891.523 50.9229 888.661 54.9844 885.968C59.2152 883.106 63.2767 880.244 67.5074 877.382C66.9997 876.035 66.1536 875.867 65.3074 876.372C63.7844 877.214 62.2613 878.224 60.7382 879.234C52.9536 884.284 45.3383 889.503 37.5537 894.722C36.5383 895.395 35.5229 896.405 33.323 896.573C46.5229 881.591 62.0921 871.826 80.0305 865.766ZM56.3382 833.275C55.9998 830.581 56.3382 828.393 56.5075 826.036C57.1844 815.43 57.8613 804.824 58.5382 794.05C58.5382 793.04 59.3844 791.188 57.6921 791.188C55.8306 791.02 56.169 793.04 55.9998 794.218C55.4921 800.952 54.9844 807.686 54.4767 814.252C54.1383 818.797 53.969 823.174 53.6306 827.72C53.6306 828.393 53.7998 829.403 52.7844 830.076C49.3998 810.211 52.7844 791.02 57.0152 771.155C62.9382 788.495 62.2613 817.787 56.3382 833.275ZM112.523 787.821C108.461 798.259 85.9535 820.986 75.1228 825.868C75.4612 824.353 76.8151 823.848 77.6612 823.174C84.7689 817.787 91.5381 812.063 97.6304 805.498C98.3073 804.656 100.507 803.983 99.3227 802.636C98.1381 801.289 96.9535 803.141 96.1073 803.983C87.9843 812.232 79.0151 819.302 69.7074 826.204C68.5228 827.046 67.3382 828.056 65.8151 828.393C78.3382 811.39 94.7535 798.932 112.523 787.821ZM122.169 732.267C119.123 747.755 99.4919 774.859 87.6458 780.246C87.9843 778.731 88.9997 777.889 89.8458 777.047C95.7689 770.313 101.861 763.579 107.446 756.34C108.123 755.499 110.153 754.489 108.8 753.31C107.277 751.963 106.261 753.983 105.415 754.994C99.9996 761.896 94.0766 768.293 88.1535 774.859C87.6458 775.364 87.3074 776.205 86.292 777.384C87.1381 769.303 110.323 740.684 122.169 732.267ZM66.1536 704.658C76.8151 707.856 84.9381 711.392 88.1535 714.085C80.0305 715.937 69.1997 711.392 66.1536 704.658ZM74.6151 679.742C81.0458 689.675 85.9535 699.944 90.692 710.382C77.8305 706.341 72.7536 689.507 74.6151 679.742ZM93.9073 723.513C92.8919 723.344 92.0458 721.324 92.0458 718.967C91.8766 717.789 92.215 716.947 93.7381 717.115C94.9227 717.284 96.4458 716.947 96.7842 718.799C96.7842 720.482 94.9227 723.681 93.9073 723.513ZM94.5842 710.045C91.8766 702.806 93.7381 684.624 97.6304 677.722C101.523 683.783 99.9996 702.469 94.5842 710.045ZM99.4919 711.392C100.338 703.648 110.83 688.833 117.6 686.14C117.261 694.894 107.953 707.856 99.4919 711.392ZM116.415 713.917C111.169 715.095 105.923 715.095 100.507 715.095C100.507 713.58 101.523 713.58 102.369 713.243C106.261 711.055 109.984 708.866 113.876 706.678C117.6 704.658 121.661 703.143 126.061 702.638C127.584 702.469 129.107 702.301 130.969 703.479C127.076 708.866 122.507 712.57 116.415 713.917Z" fill="#A57856"/>
</g>
<g clip-path="url(#clip0_502_39)">
<path d="M95.9085 124.741C97.5614 124.581 98.7978 125.141 100.073 125.841C101.713 126.741 103.561 127.281 105.331 127.541C108.403 128.041 111.5 128.082 114.741 128.083C115.496 128.023 116.212 127.823 116.823 127.803C117.253 127.683 117.682 127.564 117.852 127.064C117.878 126.604 117.656 126.364 117.292 126.164C116.264 125.245 115.027 124.685 113.726 124.445C111.409 123.885 108.923 123.824 106.555 124.184C105.8 124.243 105.084 124.443 103.926 124.163C105.891 123.464 107.466 123.025 108.963 122.305C111.449 120.707 113.947 119.708 116.485 118.849C120.455 117.591 123.175 115.173 124.672 111.136C124.776 110.956 124.881 110.776 124.985 110.596C125.258 109.917 126 109.257 125.479 108.498C124.855 107.918 123.852 108.198 123.137 108.397C122.993 108.437 122.85 108.477 122.707 108.517C116.967 111.174 112.217 114.611 109.054 119.867C108.078 121.346 106.724 122.025 104.785 122.264C107.232 118.867 107.727 115.11 108.221 111.352C108.208 110.753 108.482 110.073 107.792 109.813C107.063 109.413 106.464 110.033 105.97 110.473C104.772 111.711 103.718 112.91 102.885 114.349C101.245 116.767 99.9304 119.245 98.9801 121.924C98.85 122.563 98.7588 123.343 97.8998 123.582C95.9996 123.962 94.3337 123.522 92.7329 122.762L92.6157 124.001C93.9562 124.381 94.9714 124.701 95.9085 124.741ZM107.648 126.442C107.752 126.262 107.934 126.362 108.038 126.183C108.988 125.163 107.843 125.483 107.44 125.143C110.993 124.604 113.414 124.984 115.47 126.824C112.776 127.123 110.316 126.603 107.869 126.682C107.726 126.722 107.544 126.622 107.648 126.442ZM123.202 109.737C122.251 114.073 120 116.511 116.876 116.93C117.865 116.051 118.568 115.252 119.453 114.553C119.7 114.333 120.052 113.933 119.792 113.553C119.388 113.213 118.959 113.333 118.607 113.733C117.058 115.372 114.924 116.57 113.193 118.109C112.698 118.549 112.099 119.168 111.305 119.088C114.494 115.031 118.386 111.834 123.202 109.737ZM104.199 118.507C104.369 118.007 104.785 117.288 104.564 117.048C103.119 115.189 104.863 114.25 105.592 112.991C105.696 112.811 105.879 112.911 106.022 112.871C106.23 115.829 105.006 119.187 103.08 121.685C103.158 120.305 103.861 119.506 104.199 118.507Z" fill="#A57856"/>
</g>
<g clip-path="url(#clip1_502_39)">
<path d="M1285.61 613.837C1286.29 612.921 1286.14 611.764 1285.43 610.541C1285.01 609.851 1284.19 609.611 1284.01 608.735C1284.59 608.021 1285.17 607.946 1286.04 608.405C1287.38 609.133 1288.97 609.534 1290.52 609.076C1291.92 608.602 1292.62 607.544 1292.92 606.157C1293.14 604.971 1292.53 604.046 1291.54 603.43C1290.48 602.735 1289.32 602.883 1288.07 603.874C1287.52 604.308 1286.97 604.742 1286.54 605.332C1285.79 606.311 1284.74 606.757 1283.66 606.843C1283.3 606.231 1283.57 605.765 1283.58 605.124C1283.47 604.187 1283.45 603.187 1282.44 602.711C1281.41 602.376 1280.69 603.074 1279.96 603.772C1278.67 605.044 1278.05 606.68 1277.92 608.443C1277.83 609.786 1277.28 610.22 1276 610.211C1275.94 609.492 1276.02 608.79 1275.89 608.133C1275.77 607.336 1275.65 606.538 1274.74 606.36C1273.84 606.182 1273.21 606.678 1272.71 607.33C1271.65 608.416 1271.13 609.85 1270.74 611.299C1270.14 613.435 1270.06 613.497 1267.74 613.793C1267.72 612.794 1268.05 611.765 1267.81 610.811C1267.37 609.121 1265.8 608.579 1264.44 609.773C1263.74 610.33 1263.36 611.14 1263.12 611.966C1262.78 612.994 1262.73 614.056 1262.74 615.196C1262.73 615.836 1262.73 616.476 1262.12 616.832C1260.75 617.525 1259.37 618.359 1257.6 618.862C1257.89 617.615 1258.27 616.805 1258.11 615.789C1257.78 613.756 1256.22 613.074 1254.64 614.453C1253.28 615.647 1252.18 617.154 1252.26 618.873C1252.43 621.669 1250.82 622.689 1248.65 623.502C1248.65 623.502 1233.11 630.923 1234.39 633.353C1239.91 630.017 1245.48 626.901 1251.23 624.019C1252.43 623.45 1252.92 623.578 1253.35 624.768C1253.88 626.255 1254.91 627.23 1256.32 627.896C1257.94 628.657 1259.4 628.401 1260.11 627.204C1260.72 626.208 1260.22 624.44 1258.9 623.572C1258.31 623.146 1257.7 622.861 1257.09 622.576C1256.69 622.386 1256.19 622.398 1255.9 621.865C1257.87 620.816 1259.79 619.689 1262.07 619.033C1262.74 621.178 1264.15 622.483 1266.4 622.749C1267.95 622.931 1269.01 622.345 1269.5 621.193C1270 620.04 1269.65 618.788 1268.54 617.875C1268.09 617.466 1267.25 617.366 1266.77 616.598C1267.9 616.09 1268.95 615.644 1270.02 615.058C1271 614.534 1271.56 614.6 1271.93 615.712C1272.3 616.823 1273.08 617.484 1274.09 617.96C1274.96 618.419 1275.94 618.535 1276.68 617.696C1277.42 616.858 1277.16 616.044 1276.78 615.073C1276.38 614.243 1275.43 613.846 1274.96 612.937C1276.27 612.165 1277.33 611.579 1278.71 611.385C1278.92 611.98 1279.15 612.434 1279.39 612.889C1279.88 614.157 1280.87 614.773 1282.18 615.141C1283.51 615.369 1284.92 614.895 1285.61 613.837ZM1289.5 605.04C1290.19 604.623 1290.97 604.644 1291.32 605.255C1291.8 606.024 1291.17 606.519 1290.62 606.953C1289.62 607.618 1288.64 607.502 1287.27 607.055C1288.02 606.076 1288.73 605.519 1289.5 605.04ZM1253.52 620.302C1253.66 617.898 1254.56 616.296 1256.6 615.326C1256.55 617.527 1255.53 618.973 1253.52 620.302ZM1258.36 624.505C1258.69 624.758 1259.01 625.01 1258.82 625.414C1258.7 625.898 1258.24 626.129 1257.74 626.141C1256.18 626.099 1255.14 625.264 1254.26 623.665C1256 623.443 1257.23 623.873 1258.36 624.505ZM1264.02 615.205C1264.09 613.362 1264.32 612.036 1265.51 610.967C1265.75 610.781 1266.05 610.674 1266.39 610.785C1266.79 610.976 1266.68 611.318 1266.65 611.599C1266.41 613.066 1265.84 614.28 1264.02 615.205ZM1267.65 618.837C1268.05 619.027 1268.24 619.263 1268.19 619.684C1268.14 620.106 1267.76 620.275 1267.39 620.444C1266.34 620.89 1264.48 620.315 1263.8 619.451C1263.61 619.216 1263.51 618.918 1263.62 618.575C1263.75 618.092 1264.19 618.001 1264.54 617.973C1265.61 618.027 1266.63 618.362 1267.65 618.837ZM1272.04 611.808C1272.58 610.234 1272.95 608.925 1274.47 608.108C1274.39 610.59 1274.29 610.793 1272.04 611.808ZM1279.1 608.655C1279.47 606.705 1280.14 605.288 1282.08 604.521C1281.91 606.565 1281.2 607.763 1279.1 608.655ZM1274.36 614.432C1274.89 614.779 1275.51 614.924 1275.65 615.581C1275.7 615.8 1275.52 616.064 1275.3 616.11C1274.57 616.308 1273.98 615.882 1273.46 615.394C1273.22 615.08 1272.97 614.766 1272.96 614.266C1273.57 613.911 1273.96 614.242 1274.36 614.432ZM1280.48 612.022C1280.21 611.348 1280.29 610.646 1281.12 610.246C1282.03 609.784 1284.33 610.768 1284.56 611.862C1284.65 612.3 1284.4 612.627 1284.09 612.874C1283.07 613.679 1280.91 613.212 1280.48 612.022Z" fill="#A57856"/>
</g>
<g clip-path="url(#clip2_502_39)">
<path d="M1140.3 190.5C1138.9 189.8 1137.4 189.6 1135.8 189.6C1134.9 189.6 1133.9 189.6 1132.7 189.6C1134 188.1 1135.1 187 1136 185.8C1137.4 183.9 1138.6 181.9 1139.1 179.6C1139.5 177.5 1138.6 176.7 1136.7 177.4C1133 178.8 1129.5 180.5 1126.6 183.3C1126.3 183.6 1126 184.2 1125.2 183.9C1126.1 179.9 1125.5 176 1124.8 172.1C1124.6 171 1124.3 169.9 1123.7 169C1122.9 167.8 1121.9 167.9 1121.1 169C1120.8 169.5 1120.5 170.1 1120.3 170.7C1119.1 173.5 1118.3 176.4 1117.7 179.4C1117.6 180.1 1117.4 180.8 1117.2 181.7C1116.3 181.1 1116.3 180.2 1116 179.5C1114.8 176.6 1113.4 174 1111.5 171.7C1110.8 170.7 1110 169.4 1108.6 169.8C1107.2 170.3 1107.3 171.8 1107.2 173C1106.9 177 1107.9 180.6 1109.7 184.1C1109.9 184.6 1110.6 185 1110 185.8C1108.3 184.7 1106.6 183.6 1104.9 182.6C1104.4 182.3 1103.7 182.1 1103.2 182.6C1102.8 183.1 1103.1 183.7 1103.3 184.1C1104.5 186.8 1106.4 188.9 1109.1 190.2C1110.9 191.1 1112.8 191.7 1114.8 192.2C1115.2 192.3 1115.8 192.3 1115.8 192.9C1115.8 194.9 1116.5 197 1116 198.9C1116.4 199.6 1117.4 199.3 1117.4 199.3C1117.7 197.9 1118.3 197 1119.8 196.9C1120.6 196.8 1121.3 196.5 1121.9 196C1122.6 195.3 1123.2 195.3 1124 195.9C1125.4 197.1 1127.2 197.4 1129 197.3C1131.5 197.1 1133.9 196.7 1136.2 195.9C1137.7 195.3 1139.2 194.7 1140.5 193.7C1142.2 192.6 1142.1 191.4 1140.3 190.5ZM1105.7 185.1C1107.7 185.5 1112.2 188.6 1114.2 190.8C1110.5 189.9 1107.5 188.5 1105.7 185.1ZM1109.4 171.8C1112.6 174.3 1116.6 184.2 1116.7 189.7C1111.4 187 1107.4 177.1 1109.4 171.8ZM1122.6 170.6C1124.1 177.8 1124.7 184.6 1119.6 190.6C1117.5 186.5 1119.3 174.6 1122.6 170.6ZM1119.8 195.6C1119.3 195.8 1118.6 196.1 1118.1 195.5C1117.6 194.9 1117.8 194.2 1117.9 193.5C1118 193.1 1118.4 192.9 1118.8 193.2C1119.6 193.7 1120.6 193.5 1121.3 194C1121.1 194.9 1120.4 195.3 1119.8 195.6ZM1121.6 191.8C1125.6 185.7 1130.2 181 1137.4 178.8C1136.6 181.9 1135.1 184.2 1133.3 186.3C1130.3 189.7 1127.5 191 1121.6 191.8ZM1139.2 192.9C1135.5 195.2 1131.5 196.4 1127.1 196.1C1125.6 196 1124.6 195.1 1123.5 193.7C1127.5 192.3 1131.2 190.6 1135.3 190.8C1136.5 190.9 1137.6 190.8 1138.7 191.2C1139.1 191.3 1139.7 191.4 1139.7 191.9C1139.9 192.4 1139.5 192.7 1139.2 192.9Z" fill="#A57856"/>
</g>
<defs>
<clipPath id="clip0_502_39">
<rect width="35.8209" height="19.9005" fill="white" transform="translate(129.852 124.168) rotate(164.411)"/>
</clipPath>
<clipPath id="clip1_502_39">
<rect width="19" height="63.4" fill="white" transform="translate(1282.78 592) rotate(51.732)"/>
</clipPath>
<clipPath id="clip2_502_39">
<rect width="38.8" height="31.5" fill="white" transform="translate(1103 168)"/>
</clipPath>
</defs>
</svg>
