<svg width="1360" height="765" viewBox="0 0 1360 765" fill="none" xmlns="http://www.w3.org/2000/svg">
<mask id="mask0_502_39" style="mask-type:alpha" maskUnits="userSpaceOnUse" x="0" y="0" width="1360" height="765">
<path d="M0 0H1360V765H0V0Z" fill="#F4EBE8"/>
</mask>
<g mask="url(#mask0_502_39)">
<path d="M0 0H1360V765H0V0Z" fill="#F4EBE8"/>
</g>
<g clip-path="url(#clip0_502_39)">
<path d="M58.2545 297.215C59.4447 297.101 60.335 297.504 61.2535 298.008C62.4343 298.656 63.7651 299.044 65.0397 299.232C67.2515 299.592 69.4821 299.621 71.8157 299.622C72.3593 299.579 72.8747 299.435 73.3152 299.421C73.6245 299.334 73.9338 299.248 74.0557 298.888C74.0744 298.557 73.9151 298.384 73.6527 298.24C72.9123 297.578 72.022 297.175 71.0848 297.002C69.4166 296.599 67.6266 296.555 65.9208 296.814C65.3772 296.857 64.8618 297.001 64.0277 296.799C65.4429 296.296 66.5769 295.979 67.6547 295.462C69.4449 294.31 71.2443 293.591 73.0719 292.973C75.9304 292.067 77.8893 290.326 78.9672 287.418C79.0422 287.289 79.1172 287.159 79.1922 287.03C79.389 286.541 79.9233 286.066 79.5484 285.519C79.0986 285.101 78.3769 285.303 77.8614 285.446C77.7584 285.475 77.6553 285.504 77.5522 285.533C73.419 287.446 69.998 289.921 67.7204 293.706C67.0175 294.771 66.0427 295.26 64.6463 295.432C66.4084 292.986 66.7647 290.28 67.121 287.574C67.1116 287.143 67.3084 286.653 66.8117 286.466C66.2869 286.178 65.8558 286.624 65.4996 286.941C64.6373 287.833 63.8782 288.696 63.2783 289.732C62.0973 291.474 61.1506 293.258 60.4664 295.187C60.3726 295.647 60.307 296.208 59.6884 296.381C58.3201 296.654 57.1205 296.337 55.9678 295.79L55.8834 296.682C56.8487 296.956 57.5797 297.187 58.2545 297.215ZM66.708 298.441C66.783 298.311 66.9142 298.383 66.9892 298.254C67.6734 297.52 66.8486 297.75 66.5581 297.505C69.1167 297.117 70.8599 297.391 72.3406 298.715C70.4006 298.931 68.6293 298.556 66.8673 298.613C66.7642 298.642 66.633 298.57 66.708 298.441ZM77.9083 286.411C77.2239 289.534 75.6025 291.289 73.3532 291.591C74.0655 290.958 74.5716 290.382 75.2089 289.879C75.387 289.721 75.6401 289.433 75.4526 289.159C75.1621 288.914 74.8528 289.001 74.5998 289.289C73.4844 290.469 71.9474 291.332 70.7008 292.44C70.3447 292.756 69.9135 293.202 69.3418 293.145C71.6381 290.223 74.4405 287.921 77.9083 286.411ZM64.2247 292.726C64.3466 292.366 64.6465 291.848 64.4872 291.676C63.447 290.337 64.7029 289.661 65.2277 288.754C65.3027 288.625 65.4339 288.697 65.537 288.668C65.6869 290.798 64.8057 293.216 63.4186 295.014C63.4749 294.021 63.981 293.446 64.2247 292.726Z" fill="#A57856"/>
</g>
<g clip-path="url(#clip1_502_39)">
<path d="M135.908 674.741C137.561 674.581 138.797 675.141 140.073 675.841C141.713 676.741 143.561 677.281 145.331 677.541C148.402 678.041 151.5 678.082 154.741 678.083C155.495 678.023 156.211 677.823 156.823 677.803C157.253 677.683 157.682 677.564 157.851 677.064C157.877 676.604 157.656 676.364 157.292 676.164C156.264 675.245 155.027 674.685 153.726 674.445C151.409 673.885 148.923 673.824 146.554 674.184C145.8 674.243 145.084 674.443 143.925 674.163C145.891 673.464 147.466 673.025 148.962 672.305C151.448 670.707 153.947 669.708 156.485 668.849C160.455 667.591 163.175 665.173 164.672 661.136C164.776 660.956 164.88 660.776 164.984 660.596C165.258 659.917 166 659.257 165.479 658.498C164.854 657.918 163.852 658.198 163.136 658.397C162.993 658.437 162.85 658.477 162.707 658.517C156.967 661.174 152.216 664.611 149.054 669.867C148.077 671.346 146.724 672.025 144.785 672.264C147.232 668.867 147.726 665.11 148.221 661.352C148.208 660.753 148.481 660.073 147.792 659.813C147.063 659.413 146.464 660.033 145.97 660.473C144.772 661.711 143.718 662.91 142.885 664.349C141.245 666.767 139.93 669.245 138.98 671.924C138.85 672.563 138.759 673.343 137.9 673.582C135.999 673.962 134.333 673.522 132.733 672.762L132.615 674.001C133.956 674.381 134.971 674.701 135.908 674.741ZM147.648 676.442C147.752 676.262 147.934 676.362 148.038 676.183C148.988 675.163 147.843 675.483 147.439 675.143C150.993 674.604 153.413 674.984 155.47 676.824C152.775 677.123 150.316 676.603 147.869 676.682C147.726 676.722 147.543 676.622 147.648 676.442ZM163.201 659.737C162.251 664.073 159.999 666.511 156.876 666.93C157.865 666.051 158.568 665.252 159.453 664.553C159.7 664.333 160.052 663.933 159.791 663.553C159.388 663.213 158.958 663.333 158.607 663.733C157.058 665.372 154.923 666.57 153.192 668.109C152.698 668.549 152.099 669.168 151.305 669.088C154.494 665.031 158.386 661.834 163.201 659.737ZM144.199 668.507C144.368 668.007 144.785 667.288 144.564 667.048C143.119 665.189 144.863 664.25 145.592 662.991C145.696 662.811 145.878 662.911 146.021 662.871C146.23 665.829 145.006 669.187 143.08 671.685C143.158 670.305 143.861 669.506 144.199 668.507Z" fill="#A57856"/>
</g>
<g clip-path="url(#clip2_502_39)">
<path d="M1341.61 638.837C1342.29 637.921 1342.14 636.764 1341.43 635.541C1341.01 634.851 1340.19 634.611 1340.01 633.735C1340.59 633.021 1341.17 632.946 1342.04 633.405C1343.38 634.133 1344.97 634.534 1346.52 634.076C1347.92 633.602 1348.62 632.544 1348.93 631.157C1349.14 629.971 1348.53 629.046 1347.54 628.43C1346.48 627.735 1345.32 627.883 1344.07 628.874C1343.52 629.308 1342.97 629.742 1342.54 630.332C1341.79 631.311 1340.74 631.757 1339.66 631.843C1339.3 631.231 1339.57 630.765 1339.58 630.124C1339.47 629.187 1339.45 628.187 1338.44 627.711C1337.41 627.376 1336.69 628.074 1335.96 628.772C1334.67 630.044 1334.05 631.68 1333.92 633.443C1333.83 634.786 1333.28 635.22 1332 635.211C1331.94 634.492 1332.02 633.79 1331.89 633.133C1331.77 632.336 1331.65 631.538 1330.74 631.36C1329.84 631.182 1329.21 631.678 1328.71 632.33C1327.65 633.416 1327.13 634.85 1326.74 636.299C1326.14 638.435 1326.06 638.497 1323.74 638.793C1323.72 637.794 1324.05 636.765 1323.81 635.811C1323.37 634.121 1321.8 633.579 1320.44 634.773C1319.74 635.33 1319.36 636.14 1319.12 636.966C1318.78 637.994 1318.73 639.056 1318.74 640.196C1318.73 640.836 1318.73 641.476 1318.12 641.832C1316.75 642.525 1315.37 643.359 1313.6 643.862C1313.89 642.615 1314.27 641.805 1314.11 640.789C1313.78 638.756 1312.22 638.074 1310.64 639.453C1309.28 640.647 1308.18 642.154 1308.26 643.873C1308.43 646.669 1306.82 647.689 1304.66 648.502C1304.66 648.502 1289.11 655.923 1290.39 658.353C1295.91 655.017 1301.48 651.901 1307.23 649.019C1308.44 648.45 1308.92 648.578 1309.35 649.768C1309.88 651.255 1310.91 652.23 1312.32 652.896C1313.94 653.657 1315.4 653.401 1316.11 652.204C1316.72 651.208 1316.22 649.44 1314.9 648.572C1314.31 648.146 1313.7 647.861 1313.1 647.576C1312.69 647.386 1312.19 647.398 1311.9 646.865C1313.87 645.816 1315.79 644.689 1318.07 644.033C1318.74 646.178 1320.16 647.483 1322.4 647.749C1323.95 647.931 1325.01 647.345 1325.51 646.193C1326 645.04 1325.65 643.788 1324.54 642.875C1324.09 642.466 1323.25 642.366 1322.77 641.598C1323.9 641.09 1324.95 640.644 1326.02 640.058C1327 639.534 1327.56 639.6 1327.93 640.712C1328.3 641.823 1329.08 642.484 1330.09 642.96C1330.96 643.419 1331.94 643.535 1332.68 642.696C1333.42 641.858 1333.16 641.044 1332.78 640.073C1332.38 639.243 1331.43 638.846 1330.97 637.937C1332.27 637.165 1333.33 636.579 1334.71 636.385C1334.92 636.98 1335.15 637.434 1335.39 637.889C1335.88 639.157 1336.87 639.773 1338.18 640.141C1339.51 640.369 1340.92 639.895 1341.61 638.837ZM1345.5 630.04C1346.19 629.623 1346.97 629.644 1347.32 630.255C1347.8 631.024 1347.17 631.519 1346.62 631.953C1345.62 632.618 1344.64 632.502 1343.27 632.055C1344.02 631.076 1344.73 630.519 1345.5 630.04ZM1309.52 645.302C1309.66 642.898 1310.56 641.296 1312.6 640.326C1312.55 642.527 1311.53 643.973 1309.52 645.302ZM1314.36 649.505C1314.69 649.758 1315.02 650.01 1314.82 650.414C1314.7 650.898 1314.24 651.129 1313.74 651.141C1312.18 651.099 1311.14 650.264 1310.26 648.665C1312 648.443 1313.23 648.873 1314.36 649.505ZM1320.02 640.205C1320.09 638.362 1320.32 637.036 1321.51 635.967C1321.75 635.781 1322.05 635.674 1322.39 635.785C1322.8 635.976 1322.68 636.318 1322.65 636.599C1322.41 638.066 1321.84 639.28 1320.02 640.205ZM1323.65 643.837C1324.05 644.027 1324.24 644.263 1324.19 644.684C1324.14 645.106 1323.76 645.275 1323.39 645.444C1322.34 645.89 1320.48 645.315 1319.8 644.451C1319.62 644.216 1319.51 643.918 1319.62 643.575C1319.75 643.092 1320.19 643.001 1320.55 642.973C1321.61 643.027 1322.64 643.362 1323.65 643.837ZM1328.04 636.808C1328.58 635.234 1328.95 633.925 1330.47 633.108C1330.39 635.59 1330.29 635.793 1328.04 636.808ZM1335.1 633.655C1335.47 631.705 1336.14 630.288 1338.08 629.521C1337.91 631.565 1337.2 632.763 1335.1 633.655ZM1330.36 639.432C1330.89 639.779 1331.51 639.924 1331.65 640.581C1331.7 640.8 1331.52 641.064 1331.3 641.11C1330.57 641.308 1329.98 640.882 1329.46 640.394C1329.22 640.08 1328.97 639.766 1328.96 639.266C1329.57 638.911 1329.96 639.242 1330.36 639.432ZM1336.48 637.022C1336.21 636.348 1336.29 635.646 1337.12 635.246C1338.03 634.784 1340.34 635.768 1340.56 636.862C1340.65 637.3 1340.4 637.627 1340.09 637.874C1339.07 638.679 1336.91 638.212 1336.48 637.022Z" fill="#A57856"/>
</g>
<g clip-path="url(#clip3_502_39)">
<path d="M1231.3 195.5C1229.9 194.8 1228.4 194.6 1226.8 194.6C1225.9 194.6 1224.9 194.6 1223.7 194.6C1225 193.1 1226.1 192 1227 190.8C1228.4 188.9 1229.6 186.9 1230.1 184.6C1230.5 182.5 1229.6 181.7 1227.7 182.4C1224 183.8 1220.5 185.5 1217.6 188.3C1217.3 188.6 1217 189.2 1216.2 188.9C1217.1 184.9 1216.5 181 1215.8 177.1C1215.6 176 1215.3 174.9 1214.7 174C1213.9 172.8 1212.9 172.9 1212.1 174C1211.8 174.5 1211.5 175.1 1211.3 175.7C1210.1 178.5 1209.3 181.4 1208.7 184.4C1208.6 185.1 1208.4 185.8 1208.2 186.7C1207.3 186.1 1207.3 185.2 1207 184.5C1205.8 181.6 1204.4 179 1202.5 176.7C1201.8 175.7 1201 174.4 1199.6 174.8C1198.2 175.3 1198.3 176.8 1198.2 178C1197.9 182 1198.9 185.6 1200.7 189.1C1200.9 189.6 1201.6 190 1201 190.8C1199.3 189.7 1197.6 188.6 1195.9 187.6C1195.4 187.3 1194.7 187.1 1194.2 187.6C1193.8 188.1 1194.1 188.7 1194.3 189.1C1195.5 191.8 1197.4 193.9 1200.1 195.2C1201.9 196.1 1203.8 196.7 1205.8 197.2C1206.2 197.3 1206.8 197.3 1206.8 197.9C1206.8 199.9 1207.5 202 1207 203.9C1207.4 204.6 1208.4 204.3 1208.4 204.3C1208.7 202.9 1209.3 202 1210.8 201.9C1211.6 201.8 1212.3 201.5 1212.9 201C1213.6 200.3 1214.2 200.3 1215 200.9C1216.4 202.1 1218.2 202.4 1220 202.3C1222.5 202.1 1224.9 201.7 1227.2 200.9C1228.7 200.3 1230.2 199.7 1231.5 198.7C1233.2 197.6 1233.1 196.4 1231.3 195.5ZM1196.7 190.1C1198.7 190.5 1203.2 193.6 1205.2 195.8C1201.5 194.9 1198.5 193.5 1196.7 190.1ZM1200.4 176.8C1203.6 179.3 1207.6 189.2 1207.7 194.7C1202.4 192 1198.4 182.1 1200.4 176.8ZM1213.6 175.6C1215.1 182.8 1215.7 189.6 1210.6 195.6C1208.5 191.5 1210.3 179.6 1213.6 175.6ZM1210.8 200.6C1210.3 200.8 1209.6 201.1 1209.1 200.5C1208.6 199.9 1208.8 199.2 1208.9 198.5C1209 198.1 1209.4 197.9 1209.8 198.2C1210.6 198.7 1211.6 198.5 1212.3 199C1212.1 199.9 1211.4 200.3 1210.8 200.6ZM1212.6 196.8C1216.6 190.7 1221.2 186 1228.4 183.8C1227.6 186.9 1226.1 189.2 1224.3 191.3C1221.3 194.7 1218.5 196 1212.6 196.8ZM1230.2 197.9C1226.5 200.2 1222.5 201.4 1218.1 201.1C1216.6 201 1215.6 200.1 1214.5 198.7C1218.5 197.3 1222.2 195.6 1226.3 195.8C1227.5 195.9 1228.6 195.8 1229.7 196.2C1230.1 196.3 1230.7 196.4 1230.7 196.9C1230.9 197.4 1230.5 197.7 1230.2 197.9Z" fill="#A57856"/>
</g>
<g clip-path="url(#clip4_502_39)">
<path d="M439.034 203.286C438.131 202.841 437.165 202.714 436.134 202.714C435.554 202.714 434.91 202.714 434.137 202.714C434.974 201.762 435.683 201.063 436.263 200.302C437.165 199.095 437.938 197.825 438.26 196.365C438.518 195.032 437.938 194.524 436.714 194.968C434.33 195.857 432.075 196.937 430.206 198.714C430.013 198.905 429.82 199.286 429.304 199.095C429.884 196.556 429.497 194.079 429.046 191.603C428.918 190.905 428.724 190.206 428.338 189.635C427.822 188.873 427.178 188.937 426.662 189.635C426.469 189.952 426.276 190.333 426.147 190.714C425.374 192.492 424.858 194.333 424.472 196.238C424.407 196.683 424.278 197.127 424.149 197.698C423.57 197.317 423.57 196.746 423.376 196.302C422.603 194.46 421.701 192.81 420.477 191.349C420.026 190.714 419.51 189.889 418.608 190.143C417.706 190.46 417.771 191.413 417.706 192.175C417.513 194.714 418.157 197 419.317 199.222C419.446 199.54 419.897 199.794 419.51 200.302C418.415 199.603 417.32 198.905 416.224 198.27C415.902 198.079 415.451 197.952 415.129 198.27C414.871 198.587 415.064 198.968 415.193 199.222C415.966 200.937 417.191 202.27 418.93 203.095C420.09 203.667 421.314 204.048 422.603 204.365C422.861 204.429 423.247 204.429 423.247 204.81C423.247 206.079 423.698 207.413 423.376 208.619C423.634 209.063 424.278 208.873 424.278 208.873C424.472 207.984 424.858 207.413 425.825 207.349C426.34 207.286 426.791 207.095 427.178 206.778C427.629 206.333 428.015 206.333 428.531 206.714C429.433 207.476 430.593 207.667 431.753 207.603C433.363 207.476 434.91 207.222 436.392 206.714C437.358 206.333 438.325 205.952 439.162 205.317C440.258 204.619 440.193 203.857 439.034 203.286ZM416.74 199.857C418.028 200.111 420.928 202.079 422.216 203.476C419.832 202.905 417.899 202.016 416.74 199.857ZM419.124 191.413C421.186 193 423.763 199.286 423.827 202.778C420.412 201.063 417.835 194.778 419.124 191.413ZM427.629 190.651C428.595 195.222 428.982 199.54 425.696 203.349C424.343 200.746 425.503 193.19 427.629 190.651ZM425.825 206.524C425.503 206.651 425.052 206.841 424.729 206.46C424.407 206.079 424.536 205.635 424.601 205.19C424.665 204.937 424.923 204.81 425.18 205C425.696 205.317 426.34 205.19 426.791 205.508C426.662 206.079 426.211 206.333 425.825 206.524ZM426.985 204.111C429.562 200.238 432.526 197.254 437.165 195.857C436.649 197.825 435.683 199.286 434.523 200.619C432.59 202.778 430.786 203.603 426.985 204.111ZM438.325 204.81C435.941 206.27 433.363 207.032 430.528 206.841C429.562 206.778 428.918 206.206 428.209 205.317C430.786 204.429 433.17 203.349 435.812 203.476C436.585 203.54 437.294 203.476 438.003 203.73C438.26 203.794 438.647 203.857 438.647 204.175C438.776 204.492 438.518 204.683 438.325 204.81Z" fill="#A57856"/>
</g>
<defs>
<clipPath id="clip0_502_39">
<rect width="25.7946" height="14.3303" fill="white" transform="translate(82.6969 296.803) rotate(164.411)"/>
</clipPath>
<clipPath id="clip1_502_39">
<rect width="35.8209" height="19.9005" fill="white" transform="translate(169.851 674.168) rotate(164.411)"/>
</clipPath>
<clipPath id="clip2_502_39">
<rect width="19" height="63.4" fill="white" transform="translate(1338.78 617) rotate(51.732)"/>
</clipPath>
<clipPath id="clip3_502_39">
<rect width="38.8" height="31.5" fill="white" transform="translate(1194 173)"/>
</clipPath>
<clipPath id="clip4_502_39">
<rect width="25" height="20" fill="white" transform="translate(415 189)"/>
</clipPath>
</defs>
</svg>
