<svg width="1360" height="765" viewBox="0 0 1360 765" fill="none" xmlns="http://www.w3.org/2000/svg">
<mask id="mask0_502_39" style="mask-type:alpha" maskUnits="userSpaceOnUse" x="0" y="0" width="1360" height="765">
<path d="M0 0H1360V765H0V0Z" fill="#F4EBE8"/>
</mask>
<g mask="url(#mask0_502_39)">
<path d="M0 0H1360V765H0V0Z" fill="#F4EBE8"/>
</g>
<g clip-path="url(#clip0_502_39)">
<path d="M95.9082 235.741C97.5611 235.581 98.7975 236.141 100.073 236.841C101.713 237.741 103.561 238.281 105.331 238.541C108.402 239.041 111.5 239.082 114.741 239.083C115.495 239.023 116.211 238.823 116.823 238.803C117.253 238.683 117.682 238.564 117.851 238.064C117.877 237.604 117.656 237.364 117.292 237.164C116.264 236.245 115.027 235.685 113.726 235.445C111.409 234.885 108.923 234.824 106.554 235.184C105.8 235.243 105.084 235.443 103.925 235.163C105.891 234.464 107.466 234.025 108.962 233.305C111.448 231.707 113.947 230.708 116.485 229.849C120.455 228.591 123.175 226.173 124.672 222.136C124.776 221.956 124.88 221.776 124.984 221.596C125.258 220.917 126 220.257 125.479 219.498C124.854 218.918 123.852 219.198 123.136 219.397C122.993 219.437 122.85 219.477 122.707 219.517C116.967 222.174 112.216 225.611 109.054 230.867C108.077 232.346 106.724 233.025 104.785 233.264C107.232 229.867 107.726 226.11 108.221 222.352C108.208 221.753 108.481 221.073 107.792 220.813C107.063 220.413 106.464 221.033 105.97 221.472C104.772 222.711 103.718 223.91 102.885 225.349C101.245 227.767 99.9301 230.245 98.9799 232.924C98.8497 233.563 98.7585 234.343 97.8995 234.582C95.9993 234.962 94.3334 234.521 92.7326 233.762L92.6154 235.001C93.9559 235.381 94.9711 235.701 95.9082 235.741ZM107.648 237.442C107.752 237.262 107.934 237.362 108.038 237.183C108.988 236.163 107.843 236.483 107.439 236.143C110.993 235.604 113.413 235.984 115.47 237.824C112.775 238.123 110.316 237.603 107.869 237.682C107.726 237.722 107.543 237.622 107.648 237.442ZM123.201 220.737C122.251 225.073 119.999 227.511 116.876 227.93C117.865 227.051 118.568 226.252 119.453 225.553C119.7 225.333 120.052 224.933 119.791 224.553C119.388 224.213 118.958 224.333 118.607 224.733C117.058 226.372 114.923 227.57 113.192 229.109C112.698 229.549 112.099 230.168 111.305 230.088C114.494 226.031 118.386 222.834 123.201 220.737ZM104.199 229.507C104.368 229.007 104.785 228.288 104.564 228.048C103.119 226.189 104.863 225.25 105.592 223.991C105.696 223.811 105.878 223.911 106.021 223.871C106.23 226.829 105.006 230.187 103.08 232.684C103.158 231.305 103.861 230.506 104.199 229.507Z" fill="#A57856"/>
</g>
<g clip-path="url(#clip1_502_39)">
<path d="M135.908 674.741C137.561 674.581 138.797 675.141 140.073 675.841C141.713 676.741 143.561 677.281 145.331 677.541C148.402 678.041 151.5 678.082 154.741 678.083C155.495 678.023 156.211 677.823 156.823 677.803C157.253 677.683 157.682 677.564 157.851 677.064C157.877 676.604 157.656 676.364 157.292 676.164C156.264 675.245 155.027 674.685 153.726 674.445C151.409 673.885 148.923 673.824 146.554 674.184C145.8 674.243 145.084 674.443 143.925 674.163C145.891 673.464 147.466 673.025 148.962 672.305C151.448 670.707 153.947 669.708 156.485 668.849C160.455 667.591 163.175 665.173 164.672 661.136C164.776 660.956 164.88 660.776 164.984 660.596C165.258 659.917 166 659.257 165.479 658.498C164.854 657.918 163.852 658.198 163.136 658.397C162.993 658.437 162.85 658.477 162.707 658.517C156.967 661.174 152.216 664.611 149.054 669.867C148.077 671.346 146.724 672.025 144.785 672.264C147.232 668.867 147.726 665.11 148.221 661.352C148.208 660.753 148.481 660.073 147.792 659.813C147.063 659.413 146.464 660.033 145.97 660.473C144.772 661.711 143.718 662.91 142.885 664.349C141.245 666.767 139.93 669.245 138.98 671.924C138.85 672.563 138.759 673.343 137.9 673.582C135.999 673.962 134.333 673.522 132.733 672.762L132.615 674.001C133.956 674.381 134.971 674.701 135.908 674.741ZM147.648 676.442C147.752 676.262 147.934 676.362 148.038 676.183C148.988 675.163 147.843 675.483 147.439 675.143C150.993 674.604 153.413 674.984 155.47 676.824C152.775 677.123 150.316 676.603 147.869 676.682C147.726 676.722 147.543 676.622 147.648 676.442ZM163.201 659.737C162.251 664.073 159.999 666.511 156.876 666.93C157.865 666.051 158.568 665.252 159.453 664.553C159.7 664.333 160.052 663.933 159.791 663.553C159.388 663.213 158.958 663.333 158.607 663.733C157.058 665.372 154.923 666.57 153.192 668.109C152.698 668.549 152.099 669.168 151.305 669.088C154.494 665.031 158.386 661.834 163.201 659.737ZM144.199 668.507C144.368 668.007 144.785 667.288 144.564 667.048C143.119 665.189 144.863 664.25 145.592 662.991C145.696 662.811 145.878 662.911 146.021 662.871C146.23 665.829 145.006 669.187 143.08 671.685C143.158 670.305 143.861 669.506 144.199 668.507Z" fill="#A57856"/>
</g>
<g clip-path="url(#clip2_502_39)">
<path d="M1285.61 613.837C1286.29 612.921 1286.14 611.764 1285.43 610.541C1285.01 609.851 1284.19 609.611 1284.01 608.735C1284.59 608.021 1285.17 607.946 1286.04 608.405C1287.38 609.133 1288.97 609.534 1290.52 609.076C1291.92 608.602 1292.62 607.544 1292.92 606.157C1293.14 604.971 1292.53 604.046 1291.54 603.43C1290.48 602.735 1289.32 602.883 1288.07 603.874C1287.52 604.308 1286.97 604.742 1286.54 605.332C1285.79 606.311 1284.74 606.757 1283.66 606.843C1283.3 606.231 1283.57 605.765 1283.58 605.124C1283.47 604.187 1283.45 603.187 1282.44 602.711C1281.41 602.376 1280.69 603.074 1279.96 603.772C1278.67 605.044 1278.05 606.68 1277.92 608.443C1277.83 609.786 1277.28 610.22 1276 610.211C1275.94 609.492 1276.02 608.79 1275.89 608.133C1275.77 607.336 1275.65 606.538 1274.74 606.36C1273.84 606.182 1273.21 606.678 1272.71 607.33C1271.65 608.416 1271.13 609.85 1270.74 611.299C1270.14 613.435 1270.06 613.497 1267.74 613.793C1267.72 612.794 1268.05 611.765 1267.81 610.811C1267.37 609.121 1265.8 608.579 1264.44 609.773C1263.74 610.33 1263.36 611.14 1263.12 611.966C1262.78 612.994 1262.73 614.056 1262.74 615.196C1262.73 615.836 1262.73 616.476 1262.12 616.832C1260.75 617.525 1259.37 618.359 1257.6 618.862C1257.89 617.615 1258.27 616.805 1258.11 615.789C1257.78 613.756 1256.22 613.074 1254.64 614.453C1253.28 615.647 1252.18 617.154 1252.26 618.873C1252.43 621.669 1250.82 622.689 1248.65 623.502C1248.65 623.502 1233.11 630.923 1234.39 633.353C1239.91 630.017 1245.48 626.901 1251.23 624.019C1252.43 623.45 1252.92 623.578 1253.35 624.768C1253.88 626.255 1254.91 627.23 1256.32 627.896C1257.94 628.657 1259.4 628.401 1260.11 627.204C1260.72 626.208 1260.22 624.44 1258.9 623.572C1258.31 623.146 1257.7 622.861 1257.09 622.576C1256.69 622.386 1256.19 622.398 1255.9 621.865C1257.87 620.816 1259.79 619.689 1262.07 619.033C1262.74 621.178 1264.15 622.483 1266.4 622.749C1267.95 622.931 1269.01 622.345 1269.5 621.193C1270 620.04 1269.65 618.788 1268.54 617.875C1268.09 617.466 1267.25 617.366 1266.77 616.598C1267.9 616.09 1268.95 615.644 1270.02 615.058C1271 614.534 1271.56 614.6 1271.93 615.712C1272.3 616.823 1273.08 617.484 1274.09 617.96C1274.96 618.419 1275.94 618.535 1276.68 617.696C1277.42 616.858 1277.16 616.044 1276.78 615.073C1276.38 614.243 1275.43 613.846 1274.96 612.937C1276.27 612.165 1277.33 611.579 1278.71 611.385C1278.92 611.98 1279.15 612.434 1279.39 612.889C1279.88 614.157 1280.87 614.773 1282.18 615.141C1283.51 615.369 1284.92 614.895 1285.61 613.837ZM1289.5 605.04C1290.19 604.623 1290.97 604.644 1291.32 605.255C1291.8 606.024 1291.17 606.519 1290.62 606.953C1289.62 607.618 1288.64 607.502 1287.27 607.055C1288.02 606.076 1288.73 605.519 1289.5 605.04ZM1253.52 620.302C1253.66 617.898 1254.56 616.296 1256.6 615.326C1256.55 617.527 1255.53 618.973 1253.52 620.302ZM1258.36 624.505C1258.69 624.758 1259.01 625.01 1258.82 625.414C1258.7 625.898 1258.24 626.129 1257.74 626.141C1256.18 626.099 1255.14 625.264 1254.26 623.665C1256 623.443 1257.23 623.873 1258.36 624.505ZM1264.02 615.205C1264.09 613.362 1264.32 612.036 1265.51 610.967C1265.75 610.781 1266.05 610.674 1266.39 610.785C1266.79 610.976 1266.68 611.318 1266.65 611.599C1266.41 613.066 1265.84 614.28 1264.02 615.205ZM1267.65 618.837C1268.05 619.027 1268.24 619.263 1268.19 619.684C1268.14 620.106 1267.76 620.275 1267.39 620.444C1266.34 620.89 1264.48 620.315 1263.8 619.451C1263.61 619.216 1263.51 618.918 1263.62 618.575C1263.75 618.092 1264.19 618.001 1264.54 617.973C1265.61 618.027 1266.63 618.362 1267.65 618.837ZM1272.04 611.808C1272.58 610.234 1272.95 608.925 1274.47 608.108C1274.39 610.59 1274.29 610.793 1272.04 611.808ZM1279.1 608.655C1279.47 606.705 1280.14 605.288 1282.08 604.521C1281.91 606.565 1281.2 607.763 1279.1 608.655ZM1274.36 614.432C1274.89 614.779 1275.51 614.924 1275.65 615.581C1275.7 615.8 1275.52 616.064 1275.3 616.11C1274.57 616.308 1273.98 615.882 1273.46 615.394C1273.22 615.08 1272.97 614.766 1272.96 614.266C1273.57 613.911 1273.96 614.242 1274.36 614.432ZM1280.48 612.022C1280.21 611.348 1280.29 610.646 1281.12 610.246C1282.03 609.784 1284.33 610.768 1284.56 611.862C1284.65 612.3 1284.4 612.627 1284.09 612.874C1283.07 613.679 1280.91 613.212 1280.48 612.022Z" fill="#A57856"/>
</g>
<g clip-path="url(#clip3_502_39)">
<path d="M1231.3 195.5C1229.9 194.8 1228.4 194.6 1226.8 194.6C1225.9 194.6 1224.9 194.6 1223.7 194.6C1225 193.1 1226.1 192 1227 190.8C1228.4 188.9 1229.6 186.9 1230.1 184.6C1230.5 182.5 1229.6 181.7 1227.7 182.4C1224 183.8 1220.5 185.5 1217.6 188.3C1217.3 188.6 1217 189.2 1216.2 188.9C1217.1 184.9 1216.5 181 1215.8 177.1C1215.6 176 1215.3 174.9 1214.7 174C1213.9 172.8 1212.9 172.9 1212.1 174C1211.8 174.5 1211.5 175.1 1211.3 175.7C1210.1 178.5 1209.3 181.4 1208.7 184.4C1208.6 185.1 1208.4 185.8 1208.2 186.7C1207.3 186.1 1207.3 185.2 1207 184.5C1205.8 181.6 1204.4 179 1202.5 176.7C1201.8 175.7 1201 174.4 1199.6 174.8C1198.2 175.3 1198.3 176.8 1198.2 178C1197.9 182 1198.9 185.6 1200.7 189.1C1200.9 189.6 1201.6 190 1201 190.8C1199.3 189.7 1197.6 188.6 1195.9 187.6C1195.4 187.3 1194.7 187.1 1194.2 187.6C1193.8 188.1 1194.1 188.7 1194.3 189.1C1195.5 191.8 1197.4 193.9 1200.1 195.2C1201.9 196.1 1203.8 196.7 1205.8 197.2C1206.2 197.3 1206.8 197.3 1206.8 197.9C1206.8 199.9 1207.5 202 1207 203.9C1207.4 204.6 1208.4 204.3 1208.4 204.3C1208.7 202.9 1209.3 202 1210.8 201.9C1211.6 201.8 1212.3 201.5 1212.9 201C1213.6 200.3 1214.2 200.3 1215 200.9C1216.4 202.1 1218.2 202.4 1220 202.3C1222.5 202.1 1224.9 201.7 1227.2 200.9C1228.7 200.3 1230.2 199.7 1231.5 198.7C1233.2 197.6 1233.1 196.4 1231.3 195.5ZM1196.7 190.1C1198.7 190.5 1203.2 193.6 1205.2 195.8C1201.5 194.9 1198.5 193.5 1196.7 190.1ZM1200.4 176.8C1203.6 179.3 1207.6 189.2 1207.7 194.7C1202.4 192 1198.4 182.1 1200.4 176.8ZM1213.6 175.6C1215.1 182.8 1215.7 189.6 1210.6 195.6C1208.5 191.5 1210.3 179.6 1213.6 175.6ZM1210.8 200.6C1210.3 200.8 1209.6 201.1 1209.1 200.5C1208.6 199.9 1208.8 199.2 1208.9 198.5C1209 198.1 1209.4 197.9 1209.8 198.2C1210.6 198.7 1211.6 198.5 1212.3 199C1212.1 199.9 1211.4 200.3 1210.8 200.6ZM1212.6 196.8C1216.6 190.7 1221.2 186 1228.4 183.8C1227.6 186.9 1226.1 189.2 1224.3 191.3C1221.3 194.7 1218.5 196 1212.6 196.8ZM1230.2 197.9C1226.5 200.2 1222.5 201.4 1218.1 201.1C1216.6 201 1215.6 200.1 1214.5 198.7C1218.5 197.3 1222.2 195.6 1226.3 195.8C1227.5 195.9 1228.6 195.8 1229.7 196.2C1230.1 196.3 1230.7 196.4 1230.7 196.9C1230.9 197.4 1230.5 197.7 1230.2 197.9Z" fill="#A57856"/>
</g>
<g clip-path="url(#clip4_502_39)">
<path d="M698.3 143.5C696.9 142.8 695.4 142.6 693.8 142.6C692.9 142.6 691.9 142.6 690.7 142.6C692 141.1 693.1 140 694 138.8C695.4 136.9 696.6 134.9 697.1 132.6C697.5 130.5 696.6 129.7 694.7 130.4C691 131.8 687.5 133.5 684.6 136.3C684.3 136.6 684 137.2 683.2 136.9C684.1 132.9 683.5 129 682.8 125.1C682.6 124 682.3 122.9 681.7 122C680.9 120.8 679.9 120.9 679.1 122C678.8 122.5 678.5 123.1 678.3 123.7C677.1 126.5 676.3 129.4 675.7 132.4C675.6 133.1 675.4 133.8 675.2 134.7C674.3 134.1 674.3 133.2 674 132.5C672.8 129.6 671.4 127 669.5 124.7C668.8 123.7 668 122.4 666.6 122.8C665.2 123.3 665.3 124.8 665.2 126C664.9 130 665.9 133.6 667.7 137.1C667.9 137.6 668.6 138 668 138.8C666.3 137.7 664.6 136.6 662.9 135.6C662.4 135.3 661.7 135.1 661.2 135.6C660.8 136.1 661.1 136.7 661.3 137.1C662.5 139.8 664.4 141.9 667.1 143.2C668.9 144.1 670.8 144.7 672.8 145.2C673.2 145.3 673.8 145.3 673.8 145.9C673.8 147.9 674.5 150 674 151.9C674.4 152.6 675.4 152.3 675.4 152.3C675.7 150.9 676.3 150 677.8 149.9C678.6 149.8 679.3 149.5 679.9 149C680.6 148.3 681.2 148.3 682 148.9C683.4 150.1 685.2 150.4 687 150.3C689.5 150.1 691.9 149.7 694.2 148.9C695.7 148.3 697.2 147.7 698.5 146.7C700.2 145.6 700.1 144.4 698.3 143.5ZM663.7 138.1C665.7 138.5 670.2 141.6 672.2 143.8C668.5 142.9 665.5 141.5 663.7 138.1ZM667.4 124.8C670.6 127.3 674.6 137.2 674.7 142.7C669.4 140 665.4 130.1 667.4 124.8ZM680.6 123.6C682.1 130.8 682.7 137.6 677.6 143.6C675.5 139.5 677.3 127.6 680.6 123.6ZM677.8 148.6C677.3 148.8 676.6 149.1 676.1 148.5C675.6 147.9 675.8 147.2 675.9 146.5C676 146.1 676.4 145.9 676.8 146.2C677.6 146.7 678.6 146.5 679.3 147C679.1 147.9 678.4 148.3 677.8 148.6ZM679.6 144.8C683.6 138.7 688.2 134 695.4 131.8C694.6 134.9 693.1 137.2 691.3 139.3C688.3 142.7 685.5 144 679.6 144.8ZM697.2 145.9C693.5 148.2 689.5 149.4 685.1 149.1C683.6 149 682.6 148.1 681.5 146.7C685.5 145.3 689.2 143.6 693.3 143.8C694.5 143.9 695.6 143.8 696.7 144.2C697.1 144.3 697.7 144.4 697.7 144.9C697.9 145.4 697.5 145.7 697.2 145.9Z" fill="#A57856"/>
</g>
<defs>
<clipPath id="clip0_502_39">
<rect width="35.8209" height="19.9005" fill="white" transform="translate(129.851 235.168) rotate(164.411)"/>
</clipPath>
<clipPath id="clip1_502_39">
<rect width="35.8209" height="19.9005" fill="white" transform="translate(169.851 674.168) rotate(164.411)"/>
</clipPath>
<clipPath id="clip2_502_39">
<rect width="19" height="63.4" fill="white" transform="translate(1282.78 592) rotate(51.732)"/>
</clipPath>
<clipPath id="clip3_502_39">
<rect width="38.8" height="31.5" fill="white" transform="translate(1194 173)"/>
</clipPath>
<clipPath id="clip4_502_39">
<rect width="38.8" height="31.5" fill="white" transform="translate(661 121)"/>
</clipPath>
</defs>
</svg>
