<svg width="1360" height="779" viewBox="0 0 1360 779" fill="none" xmlns="http://www.w3.org/2000/svg">
<path d="M0 0H1360V765H0V0Z" fill="#F4EBE8"/>
<g filter="url(#filter0_d_107_15)">
<path d="M1360 444L0 483.298V765H1360V444Z" fill="#ECECEE"/>
</g>
<g clip-path="url(#clip0_107_15)">
<path d="M227.3 630.5C225.9 629.8 224.4 629.6 222.8 629.6C221.9 629.6 220.9 629.6 219.7 629.6C221 628.1 222.1 627 223 625.8C224.4 623.9 225.6 621.9 226.1 619.6C226.5 617.5 225.6 616.7 223.7 617.4C220 618.8 216.5 620.5 213.6 623.3C213.3 623.6 213 624.2 212.2 623.9C213.1 619.9 212.5 616 211.8 612.1C211.6 611 211.3 609.9 210.7 609C209.9 607.8 208.9 607.9 208.1 609C207.8 609.5 207.5 610.1 207.3 610.7C206.1 613.5 205.3 616.4 204.7 619.4C204.6 620.1 204.4 620.8 204.2 621.7C203.3 621.1 203.3 620.2 203 619.5C201.8 616.6 200.4 614 198.5 611.7C197.8 610.7 197 609.4 195.6 609.8C194.2 610.3 194.3 611.8 194.2 613C193.9 617 194.9 620.6 196.7 624.1C196.9 624.6 197.6 625 197 625.8C195.3 624.7 193.6 623.6 191.9 622.6C191.4 622.3 190.7 622.1 190.2 622.6C189.8 623.1 190.1 623.7 190.3 624.1C191.5 626.8 193.4 628.9 196.1 630.2C197.9 631.1 199.8 631.7 201.8 632.2C202.2 632.3 202.8 632.3 202.8 632.9C202.8 634.9 203.5 637 203 638.9C203.4 639.6 204.4 639.3 204.4 639.3C204.7 637.9 205.3 637 206.8 636.9C207.6 636.8 208.3 636.5 208.9 636C209.6 635.3 210.2 635.3 211 635.9C212.4 637.1 214.2 637.4 216 637.3C218.5 637.1 220.9 636.7 223.2 635.9C224.7 635.3 226.2 634.7 227.5 633.7C229.2 632.6 229.1 631.4 227.3 630.5ZM192.7 625.1C194.7 625.5 199.2 628.6 201.2 630.8C197.5 629.9 194.5 628.5 192.7 625.1ZM196.4 611.8C199.6 614.3 203.6 624.2 203.7 629.7C198.4 627 194.4 617.1 196.4 611.8ZM209.6 610.6C211.1 617.8 211.7 624.6 206.6 630.6C204.5 626.5 206.3 614.6 209.6 610.6ZM206.8 635.6C206.3 635.8 205.6 636.1 205.1 635.5C204.6 634.9 204.8 634.2 204.9 633.5C205 633.1 205.4 632.9 205.8 633.2C206.6 633.7 207.6 633.5 208.3 634C208.1 634.9 207.4 635.3 206.8 635.6ZM208.6 631.8C212.6 625.7 217.2 621 224.4 618.8C223.6 621.9 222.1 624.2 220.3 626.3C217.3 629.7 214.5 631 208.6 631.8ZM226.2 632.9C222.5 635.2 218.5 636.4 214.1 636.1C212.6 636 211.6 635.1 210.5 633.7C214.5 632.3 218.2 630.6 222.3 630.8C223.5 630.9 224.6 630.8 225.7 631.2C226.1 631.3 226.7 631.4 226.7 631.9C226.9 632.4 226.5 632.7 226.2 632.9Z" fill="#A57856"/>
</g>
<g clip-path="url(#clip1_107_15)">
<path d="M27.9089 144.625C29.5618 144.466 30.7982 145.026 32.0736 145.725C33.7135 146.625 35.5616 147.165 37.3316 147.425C40.4031 147.926 43.5006 147.966 46.7414 147.967C47.4962 147.907 48.2121 147.707 48.8238 147.688C49.2533 147.568 49.6828 147.448 49.852 146.948C49.878 146.489 49.6568 146.249 49.2924 146.049C48.2643 145.129 47.0279 144.569 45.7264 144.329C43.4098 143.769 40.9239 143.709 38.5552 144.068C37.8003 144.128 37.0845 144.327 35.9261 144.047C37.8914 143.348 39.4663 142.909 40.963 142.19C43.449 140.591 45.9479 139.592 48.4859 138.733C52.4555 137.475 55.1758 135.057 56.6727 131.02C56.7768 130.84 56.881 130.66 56.9851 130.481C57.2584 129.801 58.0003 129.142 57.4798 128.382C56.8551 127.802 55.8529 128.082 55.1371 128.282C54.9939 128.322 54.8508 128.362 54.7076 128.401C48.9678 131.059 44.2172 134.495 41.0543 139.751C40.0781 141.23 38.7245 141.909 36.7852 142.149C39.2322 138.751 39.727 134.994 40.2218 131.237C40.2088 130.637 40.4822 129.958 39.7924 129.698C39.0636 129.298 38.4648 129.917 37.9702 130.357C36.7728 131.596 35.7185 132.795 34.8855 134.234C33.2455 136.652 31.9308 139.13 30.9806 141.808C30.8504 142.447 30.7592 143.227 29.9002 143.466C28 143.846 26.3342 143.406 24.7334 142.646L24.6162 143.885C25.9567 144.265 26.9718 144.585 27.9089 144.625ZM39.6483 146.327C39.7524 146.147 39.9346 146.247 40.0388 146.067C40.9889 145.048 39.8436 145.367 39.4401 145.027C42.9932 144.488 45.414 144.869 47.4703 146.708C44.7761 147.007 42.3164 146.487 39.8695 146.566C39.7264 146.606 39.5442 146.506 39.6483 146.327ZM55.2021 129.621C54.2518 133.958 52 136.396 48.8764 136.815C49.8656 135.935 50.5685 135.136 51.4535 134.437C51.7008 134.217 52.0522 133.817 51.792 133.438C51.3885 133.098 50.959 133.218 50.6076 133.617C49.0587 135.256 46.9242 136.455 45.1931 137.993C44.6985 138.433 44.0998 139.052 43.3059 138.972C46.4948 134.915 50.3864 131.718 55.2021 129.621ZM36.1998 138.391C36.369 137.891 36.7855 137.172 36.5643 136.932C35.1197 135.073 36.8638 134.134 37.5927 132.875C37.6968 132.695 37.879 132.795 38.0222 132.755C38.2302 135.713 37.0067 139.071 35.0803 141.569C35.1585 140.19 35.8613 139.39 36.1998 138.391Z" fill="#A57856"/>
</g>
<g clip-path="url(#clip2_107_15)">
<path d="M630.3 222.5C628.9 221.8 627.4 221.6 625.8 221.6C624.9 221.6 623.9 221.6 622.7 221.6C624 220.1 625.1 219 626 217.8C627.4 215.9 628.6 213.9 629.1 211.6C629.5 209.5 628.6 208.7 626.7 209.4C623 210.8 619.5 212.5 616.6 215.3C616.3 215.6 616 216.2 615.2 215.9C616.1 211.9 615.5 208 614.8 204.1C614.6 203 614.3 201.9 613.7 201C612.9 199.8 611.9 199.9 611.1 201C610.8 201.5 610.5 202.1 610.3 202.7C609.1 205.5 608.3 208.4 607.7 211.4C607.6 212.1 607.4 212.8 607.2 213.7C606.3 213.1 606.3 212.2 606 211.5C604.8 208.6 603.4 206 601.5 203.7C600.8 202.7 600 201.4 598.6 201.8C597.2 202.3 597.3 203.8 597.2 205C596.9 209 597.9 212.6 599.7 216.1C599.9 216.6 600.6 217 600 217.8C598.3 216.7 596.6 215.6 594.9 214.6C594.4 214.3 593.7 214.1 593.2 214.6C592.8 215.1 593.1 215.7 593.3 216.1C594.5 218.8 596.4 220.9 599.1 222.2C600.9 223.1 602.8 223.7 604.8 224.2C605.2 224.3 605.8 224.3 605.8 224.9C605.8 226.9 606.5 229 606 230.9C606.4 231.6 607.4 231.3 607.4 231.3C607.7 229.9 608.3 229 609.8 228.9C610.6 228.8 611.3 228.5 611.9 228C612.6 227.3 613.2 227.3 614 227.9C615.4 229.1 617.2 229.4 619 229.3C621.5 229.1 623.9 228.7 626.2 227.9C627.7 227.3 629.2 226.7 630.5 225.7C632.2 224.6 632.1 223.4 630.3 222.5ZM595.7 217.1C597.7 217.5 602.2 220.6 604.2 222.8C600.5 221.9 597.5 220.5 595.7 217.1ZM599.4 203.8C602.6 206.3 606.6 216.2 606.7 221.7C601.4 219 597.4 209.1 599.4 203.8ZM612.6 202.6C614.1 209.8 614.7 216.6 609.6 222.6C607.5 218.5 609.3 206.6 612.6 202.6ZM609.8 227.6C609.3 227.8 608.6 228.1 608.1 227.5C607.6 226.9 607.8 226.2 607.9 225.5C608 225.1 608.4 224.9 608.8 225.2C609.6 225.7 610.6 225.5 611.3 226C611.1 226.9 610.4 227.3 609.8 227.6ZM611.6 223.8C615.6 217.7 620.2 213 627.4 210.8C626.6 213.9 625.1 216.2 623.3 218.3C620.3 221.7 617.5 223 611.6 223.8ZM629.2 224.9C625.5 227.2 621.5 228.4 617.1 228.1C615.6 228 614.6 227.1 613.5 225.7C617.5 224.3 621.2 222.6 625.3 222.8C626.5 222.9 627.6 222.8 628.7 223.2C629.1 223.3 629.7 223.4 629.7 223.9C629.9 224.4 629.5 224.7 629.2 224.9Z" fill="#A57856"/>
</g>
<g clip-path="url(#clip3_107_15)">
<path d="M1299.61 660.837C1300.29 659.921 1300.14 658.764 1299.43 657.541C1299.01 656.851 1298.19 656.611 1298.01 655.735C1298.59 655.021 1299.17 654.946 1300.04 655.405C1301.38 656.133 1302.97 656.534 1304.52 656.076C1305.92 655.602 1306.62 654.544 1306.92 653.157C1307.14 651.971 1306.53 651.046 1305.54 650.43C1304.48 649.735 1303.32 649.883 1302.07 650.874C1301.52 651.308 1300.97 651.741 1300.54 652.332C1299.79 653.311 1298.74 653.757 1297.66 653.843C1297.3 653.231 1297.57 652.765 1297.58 652.124C1297.47 651.187 1297.45 650.187 1296.44 649.711C1295.41 649.376 1294.69 650.074 1293.96 650.772C1292.67 652.044 1292.05 653.68 1291.92 655.443C1291.83 656.786 1291.28 657.22 1290 657.211C1289.94 656.492 1290.02 655.79 1289.89 655.133C1289.77 654.336 1289.65 653.538 1288.74 653.36C1287.84 653.182 1287.21 653.678 1286.71 654.33C1285.65 655.416 1285.13 656.85 1284.74 658.299C1284.14 660.435 1284.06 660.497 1281.74 660.793C1281.72 659.794 1282.05 658.765 1281.81 657.811C1281.37 656.121 1279.8 655.579 1278.44 656.773C1277.74 657.33 1277.36 658.139 1277.12 658.966C1276.78 659.994 1276.73 661.056 1276.74 662.196C1276.73 662.836 1276.73 663.476 1276.12 663.831C1274.75 664.525 1273.37 665.359 1271.6 665.862C1271.89 664.615 1272.27 663.805 1272.11 662.789C1271.78 660.756 1270.22 660.074 1268.64 661.453C1267.28 662.647 1266.18 664.154 1266.26 665.873C1266.43 668.669 1264.82 669.689 1262.66 670.502C1262.66 670.502 1247.11 677.923 1248.39 680.353C1253.91 677.017 1259.48 673.9 1265.23 671.019C1266.43 670.45 1266.92 670.578 1267.35 671.768C1267.88 673.255 1268.91 674.23 1270.32 674.896C1271.94 675.657 1273.4 675.401 1274.11 674.204C1274.72 673.208 1274.22 671.44 1272.9 670.572C1272.31 670.146 1271.7 669.861 1271.09 669.576C1270.69 669.386 1270.19 669.398 1269.9 668.865C1271.87 667.816 1273.79 666.689 1276.07 666.033C1276.74 668.177 1278.15 669.483 1280.4 669.749C1281.95 669.931 1283.01 669.345 1283.5 668.192C1284 667.04 1283.65 665.788 1282.54 664.875C1282.09 664.466 1281.25 664.366 1280.77 663.598C1281.9 663.09 1282.95 662.644 1284.02 662.058C1285 661.534 1285.56 661.6 1285.93 662.712C1286.3 663.823 1287.08 664.484 1288.09 664.96C1288.96 665.419 1289.94 665.535 1290.68 664.696C1291.42 663.858 1291.16 663.044 1290.78 662.073C1290.38 661.243 1289.43 660.846 1288.97 659.937C1290.27 659.165 1291.33 658.579 1292.71 658.385C1292.92 658.98 1293.15 659.434 1293.39 659.889C1293.88 661.157 1294.87 661.773 1296.18 662.141C1297.51 662.369 1298.92 661.895 1299.61 660.837ZM1303.5 652.04C1304.19 651.623 1304.97 651.644 1305.32 652.255C1305.8 653.024 1305.17 653.519 1304.62 653.953C1303.62 654.618 1302.64 654.502 1301.27 654.055C1302.02 653.076 1302.73 652.519 1303.5 652.04ZM1267.52 667.302C1267.66 664.898 1268.56 663.296 1270.6 662.326C1270.55 664.527 1269.53 665.973 1267.52 667.302ZM1272.36 671.505C1272.69 671.757 1273.01 672.01 1272.82 672.414C1272.7 672.898 1272.24 673.129 1271.74 673.141C1270.18 673.099 1269.14 672.264 1268.26 670.665C1270 670.443 1271.23 670.873 1272.36 671.505ZM1278.02 662.205C1278.09 660.362 1278.32 659.036 1279.51 657.967C1279.75 657.781 1280.05 657.674 1280.39 657.785C1280.79 657.976 1280.68 658.318 1280.65 658.599C1280.41 660.066 1279.84 661.28 1278.02 662.205ZM1281.65 665.837C1282.05 666.027 1282.24 666.263 1282.19 666.684C1282.14 667.106 1281.76 667.275 1281.39 667.444C1280.34 667.89 1278.48 667.315 1277.8 666.451C1277.61 666.216 1277.51 665.918 1277.62 665.575C1277.75 665.092 1278.19 665.001 1278.54 664.973C1279.61 665.027 1280.63 665.362 1281.65 665.837ZM1286.04 658.808C1286.58 657.234 1286.95 655.925 1288.47 655.108C1288.39 657.59 1288.29 657.793 1286.04 658.808ZM1293.1 655.655C1293.47 653.705 1294.14 652.288 1296.08 651.521C1295.91 653.565 1295.2 654.763 1293.1 655.655ZM1288.36 661.432C1288.89 661.779 1289.51 661.924 1289.65 662.581C1289.7 662.8 1289.52 663.064 1289.3 663.11C1288.57 663.308 1287.98 662.882 1287.46 662.394C1287.22 662.08 1286.97 661.766 1286.96 661.266C1287.57 660.911 1287.96 661.242 1288.36 661.432ZM1294.48 659.022C1294.21 658.348 1294.29 657.646 1295.12 657.246C1296.03 656.783 1298.33 657.768 1298.56 658.862C1298.65 659.3 1298.4 659.627 1298.09 659.874C1297.07 660.679 1294.91 660.212 1294.48 659.022Z" fill="#A57856"/>
</g>
<defs>
<filter id="filter0_d_107_15" x="-18" y="422" width="1396" height="357" filterUnits="userSpaceOnUse" color-interpolation-filters="sRGB">
<feFlood flood-opacity="0" result="BackgroundImageFix"/>
<feColorMatrix in="SourceAlpha" type="matrix" values="0 0 0 0 0 0 0 0 0 0 0 0 0 0 0 0 0 0 127 0" result="hardAlpha"/>
<feOffset dy="-4"/>
<feGaussianBlur stdDeviation="9"/>
<feComposite in2="hardAlpha" operator="out"/>
<feColorMatrix type="matrix" values="0 0 0 0 0 0 0 0 0 0 0 0 0 0 0 0 0 0 0.12 0"/>
<feBlend mode="normal" in2="BackgroundImageFix" result="effect1_dropShadow_107_15"/>
<feBlend mode="normal" in="SourceGraphic" in2="effect1_dropShadow_107_15" result="shape"/>
</filter>
<clipPath id="clip0_107_15">
<rect width="38.8" height="31.5" fill="white" transform="translate(190 608)"/>
</clipPath>
<clipPath id="clip1_107_15">
<rect width="35.8209" height="19.9005" fill="white" transform="translate(61.8516 144.053) rotate(164.411)"/>
</clipPath>
<clipPath id="clip2_107_15">
<rect width="38.8" height="31.5" fill="white" transform="translate(593 200)"/>
</clipPath>
<clipPath id="clip3_107_15">
<rect width="19" height="63.4" fill="white" transform="translate(1296.78 639) rotate(51.732)"/>
</clipPath>
</defs>
</svg>
