<svg width="540" height="118" viewBox="0 0 540 118" fill="none" xmlns="http://www.w3.org/2000/svg"><path d="M300.5 89.4c-7 0-12.7-2.3-17.3-6.7a24.5 24.5 0 01-6.5-12.6c-5.3 4-11.6 6-19.3 6-6 0-11.5-1.4-16.5-4s-8.8-6.2-11.7-11a30.1 30.1 0 01-4.2-15.5 29.1 29.1 0 0115.7-26.4c5-2.5 10.5-3.8 16.5-3.8a36 36 0 0120.1 5.7l1.7 11.6h-.6A18.5 18.5 0 00267 19.5a25.3 25.3 0 00-9.8-1.8c-7.4 0-13.6 2.6-18.6 7.9-5 5.1-7.4 11.8-7.4 19.8s2.4 14.7 7.4 19.9a26.5 26.5 0 0037.2.8V51.2c0-1.2-.3-2-1-2.7-.8-.6-1.9-.9-3-.9h-1.4V47h16.2v.7h-1.2a5 5 0 00-3.2 1c-.8.5-1 1.4-1 2.6v12.8c.2 8.8 3.1 15 8.4 18.8 3.8 2.7 8.6 3.9 14.7 3.9 2.4 0 5.1-.3 8.1-.8l.2.8c-4.2 2-8.3 2.6-12.1 2.6z" fill="#A57956"/><path d="M291.1 74.2c1.2 0 2.1-.4 3-1.2 1-.9 1.2-1.8 1.4-3V31.7c0-1.1-.5-2-1.4-2.8-.9-.7-1.8-1-3-1h-.8V27h19.9c1.3 0 2.8-.1 4.5-.4l3.5-.8v8.6h-.8v-1.2a3.8 3.8 0 00-3.8-4h-13.9v21.1h11.5c1 0 1.7-.4 2.3-1 .6-.6 1-1.4 1-2.4v-1h.7v10.8h-.5v-1a3 3 0 00-.9-2.3 4 4 0 00-2.3-1H300v20.4h9.7c3.3 0 5.9-.8 7.7-2.3a17 17 0 004.4-6.7h.7l-4 11h-28.2v-.7h1zM375 27.9c-1.1 0-2 .4-2.8 1.2-.8.7-1.2 1.8-1.4 2.9v35.3c0 2.5.2 5.1.5 7.5l.1 1.2h-.6l-37.2-39.6v34c0 1.2.5 2.2 1.2 3 .8.7 1.8 1.1 3 1.1h1.3v.8H325v-1h1.4c1.2 0 2-.5 2.8-1.3.8-.7 1.2-1.8 1.2-3V34.7c0-2.7-.1-5.3-.4-7.4l-.2-1.1h.8l37.2 39.7v-34a4 4 0 00-1.3-3 4.1 4.1 0 00-3-1.2h-1.3V27h14v.7h-1.1v.2zM420.2 33.8A23 23 0 01427 51a23 23 0 01-24.5 24h-23.2v-.8h1c1.1 0 2-.4 3-1.2.9-.9 1.2-1.8 1.3-3V31.7c0-1.1-.4-2-1.4-2.8-.9-.7-2-1-3-1h-.7V27h23a24 24 0 0117.7 6.7zm-31-4.6V73h13.4c3.8 0 7.3-.9 10.2-2.7 2.8-1.8 5.1-4.4 6.8-7.7 1.6-3.4 2.4-7.2 2.4-11.6 0-6.5-1.8-11.8-5.3-15.9-3.6-3.9-8.2-6-14-6h-13.5v.1zM462.8 74.2c1.2 0 2.3-.4 3-1.2 1-.9 1.3-1.8 1.4-3V52.4h-27.8v17.7a4 4 0 001.3 3c1 .8 1.9 1.3 3 1.3h1v.7h-15v-.9h1c1.1 0 2-.4 3-1.2.8-.7 1.1-1.8 1.3-3V32a4 4 0 00-1.4-3c-.9-.8-1.8-1.2-3-1.2h-.9V27h15v.8h-1c-1.1 0-2.2.4-3 1.2-.9.7-1.2 1.8-1.3 3v18.2h27.8V32a4 4 0 00-2-3.6c-.9-.3-1.5-.6-2.2-.6h-1V27h15v.8h-.9c-1.2 0-2.2.4-3 1.2-.9.9-1.2 1.8-1.3 3V70a4 4 0 001.3 3c1 .8 1.8 1.2 3 1.2h1v.8h-15v-.8h.7zM482.7 74.2c1.2 0 2-.4 3-1.2.9-.9 1.2-1.8 1.3-3V32a4 4 0 00-1.3-3c-1-.8-1.8-1.2-3-1.2h-1V27h15v.8h-.9c-1.2 0-2.3.4-3 1.2-1 .7-1.2 1.8-1.4 3V70c0 1.2.5 2.3 1.4 3 .9 1 1.8 1.2 3 1.2h1v.8h-15v-.8h.9zM507.2 52.9a20 20 0 00-4.4 12.2c0 5.2 2.1 9.3 6.5 12.1a17 17 0 0017.1.6c4.5-2.2 7-6.2 7.5-11.6l.2-1.2c0-2.1-.6-4.3-1.7-6.7-1-2.4-3-4.5-5.4-6.5L512 40c-3.3-2.6-4.8-6-4.8-9.9a13.9 13.9 0 0114.5-14.5c2.3 0 4.7.3 7.3.8h3.3l.1 10.1h-.7c0-2.7-1-4.7-2.9-6.2a10.7 10.7 0 00-7-2.3A9.6 9.6 0 00512 28a9 9 0 003.6 7.2L531 47.3c6 4.8 9.1 10.6 9.1 17.4 0 5.1-2 9.5-6 13.2a19.9 19.9 0 01-14 4.6 22 22 0 01-9.5-2 16 16 0 01-9.4-12.3c-.1-1-.3-2-.3-3.4a20.8 20.8 0 015.8-12.7l.6.8zM259.6 95.7c2.3 2.2 3.4 5 3.4 8.7 0 3.4-1.1 6.3-3.4 8.6a12.4 12.4 0 01-8.7 3.3h-11.5v-.3h.4c.6 0 1-.1 1.5-.6.5-.4.6-.9.6-1.5V94.7c0-.6-.1-1-.6-1.4-.4-.3-.9-.6-1.5-.6h-.4v-.3h11.5c3.6 0 6.5 1.2 8.7 3.3zm-15.5-2.2v21.8h6.6c2 0 3.6-.5 5-1.4 1.5-.9 2.6-2.1 3.3-3.8.8-1.6 1.2-3.5 1.2-5.7 0-3.4-.9-6-2.7-8a9 9 0 00-7-3h-6.4zM287.3 92.9h-.6c-.4 0-.9.1-1.2.4-.3.3-.6.8-.6 1.2V108c0 2.6-.9 4.8-2.6 6.4a9.7 9.7 0 01-6.6 2.4c-2.7 0-5-.8-6.8-2.4a8.7 8.7 0 01-2.6-6.4V94.7c0-.6-.3-1.2-1-1.5-.2-.2-.5-.2-.8-.2h-.6v-.6h7v.3h-.7c-.4 0-.9.2-1.2.5-.3.3-.4.7-.6 1.2v13c0 2.4.6 4.4 2 5.9 1.3 1.5 3 2.3 5.3 2.3 2.2 0 4-.8 5.4-2.1a7.8 7.8 0 002.1-5.7V94.4c0-.5-.1-1-.6-1.2-.3-.3-.7-.5-1.2-.5h-.6v-.3h6.2v.5h.3zM307.3 95.4c0-.6-.2-1-.6-1.3-.5-.5-1-.6-1.4-.6h-6.5v20.3c0 .6.3 1 .6 1.5.3.4 1 .6 1.5.6h.5v.3H294v-.3h.4c.6 0 1-.2 1.5-.6.5-.5.7-1 .7-1.5V93.5H290a2 2 0 00-1.3.6c-.3.4-.6.9-.6 1.3v.6h-.3v-4.2l1.8.4c.9.2 1.7.2 2.3.2h11.5c1 0 2-.2 2.7-.3l1.3-.3V96h-.3v-.6h.2zM328.6 115.9h.3v.3h-7.5v-.3h.3c.4 0 .7-.2 1-.5.3-.3.3-.6.3-.9l-.1-.7-2.1-5.8h-9.3l-2.2 5.8c-.2.3-.2.6-.2.7l.3 1c.3.2.6.4 1 .4h.4v.3H304v-.3h.3c.6 0 1-.2 1.6-.6.6-.3 1.1-1 1.4-1.7l7.7-18.3c1-1.8 1.2-3 1.2-3.5h.3l9.1 21.8c.3.8.8 1.2 1.4 1.7.4.4 1 .6 1.6.6zm-16.8-9h8.4L316 96l-4.3 11zM360 92.9a2 2 0 00-1.6.6 2 2 0 00-.6 1.5v17.5c0 1.4.2 2.6.3 3.8v.6h-.3l-18.4-19.7v17c0 .6.1 1 .6 1.5.4.5.9.6 1.5.6h.6v.3h-7v-.3h.6c.6 0 1.1-.1 1.6-.6.4-.4.6-.9.6-1.5v-18c0-1.4-.2-2.6-.3-3.7V92h.3l18.4 19.7V94.8c0-.6-.3-1-.6-1.5a2 2 0 00-1.5-.6h-.6v-.3h7v.3h-.7v.2zM385.2 92.9h-.6c-.4 0-.9.1-1.2.4-.3.3-.6.8-.6 1.2V108c0 2.6-1 4.8-2.6 6.4a9 9 0 01-6.5 2.2c-2.9 0-5-.7-6.8-2.4a8.7 8.7 0 01-2.6-6.4V94.5c0-.6-.3-1.2-.9-1.5l-.9-.1h-.6v-.5h7v.3h-.6c-.5 0-1 .2-1.2.5-.3.3-.5.7-.6 1.2v13c0 2.4.6 4.4 2 5.9 1.3 1.5 3 2.3 5.2 2.3 2.3 0 4.1-.8 5.5-2.1a7.8 7.8 0 002-5.7V94.4c0-.5 0-1-.5-1.2-.3-.3-.8-.5-1.2-.5h-.6v-.3h6.2v.5h.1zM387.3 114.8l-.1-1.8c0-1 .1-1.8.4-2.9h.3v.8c0 1.3.5 2.6 1.3 3.5.9.9 2 1.3 3.3 1.3 1.3 0 2.6-.4 3.5-1.3.9-1 1.3-2 1.3-3.2a4 4 0 00-1.3-3.2l-6.5-6a5.4 5.4 0 01-1.9-4.2c0-1.6.6-3 1.7-4 1-1.3 2.6-1.7 4.4-1.7l2.9.3h1.3v4.2h-.3c0-1-.3-2-1-2.5-.8-.6-1.7-1-3-1-1.1 0-2 .5-2.8 1.3-.7.7-1.2 1.6-1.2 2.8a4 4 0 001.4 3l6.6 6.3c1 1 1.7 2.4 1.7 4.2a6 6 0 01-1.7 4.4 6.2 6.2 0 01-4.5 1.8c-1 0-2.1-.1-3.2-.4-1-.6-2-1-2.6-1.7zM424.1 115.9h.3v.3h-7.6v-.3h.3c.5 0 .8-.2 1.1-.5.3-.3.3-.6.3-.9l-.1-.7-2.2-5.8H407l-2.3 5.8-.1.7.3 1c.3.2.6.4 1 .4h.3v.3h-6.8v-.3h.3c.6 0 1.1-.2 1.7-.6.6-.3 1-1 1.4-1.7l7.7-18.3c.9-1.8 1.2-3 1.2-3.5h.3l9 21.8c.4.8.8 1.2 1.4 1.7.5.4 1.1.6 1.7.6zm-16.8-9h8.3l-4-10.9-4.3 11z" fill="#A57956"/><path d="M448.6 92.9a2 2 0 00-1.5.6 2 2 0 00-.6 1.5v17.5c0 1.4.1 2.6.3 3.8v.6h-.3L428 97.2v17c0 .6.2 1 .6 1.5.5.5 1 .6 1.6.6h.6v.3h-7.2v-.3h.7c.6 0 1-.1 1.5-.6.4-.4.6-.9.6-1.5v-18a25 25 0 00-.3-3.7V92h.3l18.4 19.7V94.8c0-.6-.3-1-.6-1.5a2 2 0 00-1.5-.6h-.6v-.3h7v.3h-.5v.2zM469 95.4c0-.6-.1-1-.6-1.3-.4-.5-.9-.6-1.3-.6h-6.5v20.3c0 .6.3 1 .6 1.5.4.4.9.6 1.5.6h.4v.3h-7.4v-.3h.5c.6 0 1-.2 1.5-.6.4-.5.6-1 .6-1.5V93.5h-6.5a2 2 0 00-1.4.6c-.3.4-.6.9-.6 1.3v.6h-.3v-4.2l1.8.4c1 .2 1.7.2 2.3.2h11.5c1 0 2-.2 2.7-.3l1.4-.3V96h-.3v-.6h.1zM490.2 115.9h.3v.3H483v-.3h.3c.4 0 .7-.2 1-.5.3-.3.3-.6.3-.9l-.1-.7-2.1-5.8H473l-2.2 5.8c-.2.3-.2.6-.2.7l.3 1c.3.2.6.4 1 .4h.4v.3h-6.8v-.3h.3c.6 0 1-.2 1.6-.6.6-.3 1-1 1.4-1.7l7.7-18.2c1-1.8 1.2-3 1.2-3.5h.3l9 21.9c.4.7.9 1.2 1.5 1.6.4.3 1 .5 1.6.5zm-16.6-9h8.3l-4-10.9-4.3 11z" fill="#A57956"/><path d="M497.3 93.5h-2v20.3c0 .6 0 1 .5 1.5.5.4 1 .6 1.5.6h.5v.3h-7.4v-.3h.4c.6 0 1-.2 1.5-.6.5-.5.6-1 .6-1.5V95c0-.6-.3-1-.6-1.5a2 2 0 00-1.5-.6h-.4v-.5h9.2a7 7 0 014.8 1.7 5.8 5.8 0 011.9 4.4c0 1.8-.6 3.3-1.7 4.7-1 1.3-2.4 2-4 2 .2 0 .7.4 1.1.8.5.5 1 1 1.2 1.5 2 2.8 3.2 4.6 3.8 5.2.6.6 1 1 1.2 1.4l.8.7.9.6c.6.3 1.4.5 2.1.5v.3H510c-1 0-1.8-.2-2.7-.5-1-.3-1.5-.7-1.8-1-.5-.3-.8-.8-1.1-1a40 40 0 01-2.6-3.6l-2.4-3.5c-.3-.3-.5-.6-.8-.7-.7-.8-1.5-1.2-2-1.2v-.3h1.7c3 0 4.6-1.2 5.3-3.5.2-.5.2-1 .2-1.2v-.8c0-1.5-.5-2.7-1.2-3.6-.8-1-1.8-1.4-3-1.5-.7-.3-1.3-.3-2.2-.3z" fill="#A57956"/><path d="M532.9 115.9h.3v.3h-7.6v-.3h.3c.5 0 .8-.2 1-.5.4-.3.4-.6.4-.9 0-.3 0-.6-.2-.7l-2-5.8h-9.3l-2.3 5.8-.1.7.3 1c.3.2.6.4 1 .4h.3v.3h-6.6v-.3h.3c.6 0 1-.2 1.6-.6.6-.3 1.1-1 1.4-1.7l7.7-18.3c1-1.8 1.2-3 1.2-3.5h.3l9.1 21.8c.3.8.8 1.2 1.4 1.7.4.4.9.6 1.5.6zm-16.7-9h8.4L520.5 96l-4.3 11z" fill="#A57956"/><path d="M40.2 84.2A5.8 5.8 0 1046 90a6 6 0 00-5.8-5.8zm0 9.7a4 4 0 01-3.9-4 4 4 0 014-3.9 4 4 0 013.9 4 4 4 0 01-4 4zM181 95.6a5.8 5.8 0 100-11.5 5.8 5.8 0 000 11.5zm0-9.7a4 4 0 013.9 4 4 4 0 01-4 3.9 4 4 0 01-3.9-4c-.1-2.1 1.7-4 4-4zM81.9 20.8c1.5 0 2.8-1.3 2.8-3 0-1.6-1.3-2.7-2.8-2.7a2.9 2.9 0 00-3 3c0 1.6 1.4 2.7 3 2.7zm0-4c.6 0 1 .5 1 1 0 .7-.4 1.1-1 1.1a1 1 0 01-1.1-1c0-.6.5-1 1-1zM87.2 13.8c1.5 0 2.8-1.2 2.8-2.9S88.8 8 87.2 8a2.9 2.9 0 100 5.8zm0-4c.6 0 1 .5 1 1.1 0 .6-.4 1-1 1a1 1 0 01-1.1-1c0-.4.4-1 1-1zM139.3 21c1.6 0 3-1.2 3-2.8 0-1.7-1.3-2.9-3-2.9a2.9 2.9 0 100 5.8zm0-3.9c.7 0 1.1.5 1.1 1 0 .7-.4 1.1-1 1.1a1 1 0 01-1.1-1c0-.6.4-1 1-1zM133.9 14c1.5 0 2.9-1.1 2.9-2.8 0-1.7-1.2-2.9-2.9-2.9a2.9 2.9 0 100 5.8zm0-3.9c.6 0 1 .5 1 1.1 0 .6-.4 1-1 1a1 1 0 01-1-1c0-.6.4-1 1-1z" fill="#5B7F4C"/><path d="M1.7 117.8h79.9l.1-.7c2.4-17 14.5-29 28.9-29 14.4 0 26.5 12.2 28.9 29.1l.2.8h81.5C215 51.7 167.8 0 110.6 0 53.4 0 6.2 51.7 0 117.8h1.7zm24.6-1.6c1.8-1 3.2-2.9 3.2-5.2 0-2.7-1.8-4.8-4.2-5.4 3.9-5.3 15.1-3 16.3-2.9l4 2.4 1.3 1c9.5 5.7 18.8 9 27.8 10H26.3zm-2.5-1a4 4 0 01-4-4 4 4 0 014-4 4 4 0 013.9 4 4 4 0 01-4 4zm122.5 1c9.2-1 18.3-4.4 27.8-10.2l1.4-.9c1.4-.7 2.7-1.6 4.1-2.4 1.2-.3 12.4-2.6 16.3 2.9a5.7 5.7 0 00-1 10.6h-48.6zm47-5.2a4 4 0 014-4 4 4 0 014 4 4 4 0 01-4 4c-2.1.1-4-1.7-4-4zm26 5.2h-19.4c1.8-1 3.1-2.9 3.1-5.2 0-3-2.2-5.4-5-5.6-2.8-4.8-9.5-5.3-14.2-5 6.8-3.5 14-5.9 21.4-4v.7c0 3.2 2.5 5.8 5.7 5.8 2.6 0 4.9-1.9 5.5-4.3a129 129 0 012.8 17.6zm-12.5-19.3a4 4 0 014-3.9 4 4 0 013.9 4 4 4 0 01-4 3.9c-2 .1-3.9-1.7-3.9-4zM189 41.2A136 136 0 01215 93a6 6 0 00-4-1.8 5.9 5.9 0 00-5.4 3.5 27 27 0 00-17 1.5c4-5 11-16.4 9.3-33.2l-1.7.2c2.2 22-11 34.4-11.2 34.5a95.5 95.5 0 00-10.2 5.8l-1.4.9c-1.2.7-2.6 1.5-3.8 2 4.7-4.8 9-11 9.2-11.3l-1.3-.9c-.2.2-7.7 11.2-13.5 15.2a56.5 56.5 0 01-23.1 5.3c-.5-2.8-1.2-5.3-2.3-7.8 1.5-1.3 3.2-3 4.8-4.7 2.2-.1 5.5-1.2 10.8-3.4l.4-.2c9.3-4 16.2-9.4 21.8-17.6 5.6-8 9.6-17 11.5-26.2 1-4.7 1.4-9.4 1-13.6zm-36.5 51.7c2.6-3 5.2-5.8 7.6-8.7h9v-1.6h-7.7l6.4-7.6 9.2-1.5-.3-1.7-7.4 1.2c7.4-9.2 12.7-16.3 12.9-16.5l-1.4-1c-.1 0-5.3 7-12.6 16.1V60.3h-1.8v13.5l-5.9 7.2V71H159v12c-2.5 2.9-4.9 5.8-7.4 8.5V81.2h-1.7v12.1c-2.4 2.6-4.7 5.2-7 7.4h-.1a38.1 38.1 0 012.2-25 33.2 33.2 0 0112-14.2c3.8-2.6 7.9-4.7 11.8-6.8a94 94 0 0019-12.3c0 3.8-.2 8-1.1 12.4-2 9-5.8 17.8-11.4 25.6a47.3 47.3 0 01-21 17l-.5.2c-4 1.6-6.3 2.5-8 3l5.5-5.8h5.7v-1.6h-4.4v-.3zM167 20.3c7.6 5.5 14.5 12 20.9 19.4l-.2.1c-5.9 5.6-13 9.4-19.8 13.2-4 2.1-8 4.4-12 7-5.6 3.6-10 9-12.5 15a39.8 39.8 0 00-2.4 26.2c.1.3.3.6.6.7-1.2 1.3-2.5 2.5-3.7 3.5a34.6 34.6 0 00-14.6-16c.1-3.8 2-21.7 26.6-42.9a38.1 38.1 0 0111.7-3.5c3.7-.4 13-3.6 13.3-9.2.1-1.4-.5-2.4-1.4-3.4-2.1-1.6-6-1.5-8-1-2 .4-4 1.3-5.8 2.6 1.5-2.5 2.9-5 4-7.3h.4c1.8 0 3.2-1.5 3.2-3.2l-.3-1.2zm-11.5 14c-.5 1.1-1 2.4-1.8 3.6-1 1.2-2 2.5-2.9 4l-.2-2.4c-.3-2.5-.7-5-1.3-7.4-1.2-4-1-12.1 2.6-14l1-.2 1 .3c1.6.9 2.8 4 3.1 5.7.5 3.2-.2 7-1.5 10.3zm10.4-3.1a15 15 0 012.8-.3c1.5 0 2.8.3 3.7 1 .6.5.8 1.1.8 1.9-.3 4-7.9 7.3-11.8 7.7-2.4.3-5 .8-7.4 1.5l-2 .8 4.8-7 .2-.1c2.6-2.8 5.9-4.7 9-5.5zm-.3-9.5c0 .9-.7 1.5-1.5 1.5a1.5 1.5 0 010-3c.8 0 1.5.7 1.5 1.5zm-1.3-3.2h-.3a3.2 3.2 0 00-2 5.8c-1 2.2-2.4 4.8-4 7.4.8-2.8 1-5.5.5-8-.3-2-1.7-5.7-4-7-1.1-.6-2.5-.6-3.7 0-5 2.4-4.5 12.2-3.3 15.9.7 2.2 1.2 4.7 1.3 7 .2 1.5.2 3.7.2 5-.2 0-.3.2-.3.5l-.5.8c-23.4 20.3-26.3 37.4-26.6 42.7a28.2 28.2 0 00-10-2.3v-5.6a76 76 0 0111.2-23.6 8.2 8.2 0 006.5.5c2.6-1 4.4-3 4.9-5.8l2-12.4-12.3 2.9a7.5 7.5 0 00-5.5 5.1 8 8 0 002 8l.4.5.5.4.1.2c-3.3 5-7.2 11.7-9.8 18.6v-24c1.5-5.4 4.4-10 8.2-13.2 1.8-1.7 4.7-2.3 7.2-3 1.9-.5 3.7-1 5.2-1.7a8 8 0 005-6.7c0-2.6-1.5-4.7-4.4-6a5.7 5.7 0 00-7.1 1.8c-1.4 2-1.4 4.2.3 6 1 1 2.4 1.5 4 1a3.3 3.3 0 002.3-2.2c.2-.6.2-1.8-1.2-3l-1 1.2c.3.3.7.8.6 1.4-.2.4-.6.7-1.2.9-.8.1-1.7 0-2.3-.6-1.5-1.7-.8-3.4-.3-3.8 1-1.4 3.2-2.3 5-1.4 2.3 1 3.5 2.7 3.3 4.6 0 2-1.5 4-4 5.1-1.4.6-3.1 1-4.8 1.5a21 21 0 00-8 3.4c-2.9 2.5-5.3 5.9-7 9.5V32.4c4.3-.3 8-2.6 9.7-6.2 1.7-3.3 1.6-7.3-.6-10.4l-9.3-14.1c19.3.1 37.5 6.2 53 16.8zM128.3 47s-2.7 3.1-6 8l-.5-.3-.3-.3A6.3 6.3 0 01120 48c.6-2 2.1-3.5 4.2-4l10-2.2-1.8 10a5.4 5.4 0 01-3.8 4.4c-1.7.6-3.3.5-5-.3a123 123 0 016-7.7l-1.3-1.2zm-9.2-30.2c1.8 2.7 2 6 .6 8.8-1.5 3-4.6 5-8.2 5.3V19.4h-1.7v11.5a9.8 9.8 0 01-8.1-5.3 8.7 8.7 0 01.6-8.8L110.8 4l8.3 13zM110 1.7l-9.4 14a10.4 10.4 0 00-.6 10.5c1.8 3.6 5.5 6 9.7 6.2v13.3c-1.7-3.7-4-7-7-9.5a18 18 0 00-8-3.3L90 31.4c-2.4-1.1-4-3.2-4-5.2 0-1.8 1.3-3.5 3.4-4.5 1.8-1 3.9 0 5 1.3.4.6 1.3 2.1-.3 3.8-.6.6-1.4 1-2.3.6a2 2 0 01-1.2-.9c-.2-.4.3-1 .6-1.4L90 24c-1.4 1.2-1.4 2.5-1.3 3 .3 1.1 1.2 1.9 2.4 2.3 1.5.3 3 0 4-1 1.6-1.8 1.8-4.1.3-6-1.4-1.9-4.4-3.3-7.1-1.9-3 1.4-4.4 3.6-4.4 6 0 2.8 2 5.4 5 6.7 1.5.8 3.4 1.2 5.1 1.7 2.7.7 5.5 1.4 7.3 3 3.8 3.2 6.6 7.9 8.1 13.2v24.2a86 86 0 00-9.8-18.6s.2 0 .2-.2l.4-.4.5-.5a8.3 8.3 0 002-8 7.5 7.5 0 00-5.5-5.1l-12.3-3L87.3 52a7.3 7.3 0 004.8 5.7 8.6 8.6 0 006.5-.4c4.3 6.2 9.1 14.8 11.2 23.4v5.6a30 30 0 00-10.4 2.5c-.3-5-3-22.5-26.6-43.2l-.5-.8c-.1-.1-.3-.3-.3-.6-.1-1.2 0-3.3.2-4.8.1-2.4.6-4.7 1.3-7.1 1-3.7 1.7-13.5-3.3-16a3.9 3.9 0 00-3.6 0c-2.4 1.3-3.8 5-4.1 7.2-.3 2.4-.2 5.3.4 7.9-1.5-2.6-3-5.2-3.9-7.5.8-.6 1.2-1.5 1.2-2.5 0-1.7-1.3-3.2-3-3.2A96.4 96.4 0 01110 1.7zM97.6 55.9c-1.5.8-3.3.9-5 .3-2-.8-3.3-2.4-3.8-4.4l-1.8-10 10 2.3c2 .4 3.6 2 4.2 4 .6 2 .2 4.5-1.5 6.3l-.3.3-.4.3c-3.4-4.9-6.1-7.9-6.1-8l-1.2 1c0 .2 2.6 3 5.9 7.9zm-30.4-18c-.8-1.2-1.4-2.5-1.8-3.7-1.4-3.3-2-7-1.6-10.3.4-1.8 1.6-4.8 3.2-5.7.3-.2.6-.3 1-.3.2 0 .7.1 1 .3 3.6 1.8 3.6 10 2.6 14-.8 2.3-1.2 4.8-1.4 7.3l-.1 2.3c-1-1.4-1.9-2.7-3-4zm1.6 5.9l-2-.8c-2.3-.7-4.8-1.2-7.3-1.5-4.1-.4-11.7-3.6-11.8-7.7 0-.8.1-1.4.7-1.8 1-.8 2.4-1.1 3.8-1.1 1 0 2 .2 2.7.3 3 .8 6.4 2.7 9 5.3l.1.2c1.8 2.8 3.5 5.3 4.8 7zM56.8 20a1.5 1.5 0 010 3 1.5 1.5 0 010-3zm-3 .7c-.2.3-.2.6-.2.9 0 1.8 1.5 3.1 3.1 3.1h.5c1 2.3 2.4 4.7 4 7.3a17.7 17.7 0 00-5.8-2.6c-2.1-.6-6-.7-8 1.1-1 .8-1.6 2-1.4 3.3.3 5.6 9.5 9 13.3 9.3A35.6 35.6 0 0171 46.7c25 21.5 26.6 39.8 26.6 43a33.4 33.4 0 00-14 15.4c-1.1-1-2.4-2-3.4-3.2.3-.1.4-.4.6-.7a38.9 38.9 0 00-15-41.2c-3.8-2.6-7.9-4.9-12-7C47.2 49.2 40 45.4 34 39.8l-.4-.4c6-7 12.9-13.3 20.1-18.6zm16.4 60.5v10.3l-7.4-8.4v-12H61v10l-5.9-7.3V60.4h-1.6v11.4c-7.3-9-12.6-16-12.6-16.2l-1.4 1c.2.2 5.5 7.3 12.9 16.6L45.1 72l-.3 1.6 9.2 1.5 6.4 7.6h-7.6v1.7h9l7.5 8.6h-4.2v1.7h5.7c1.8 2 3.6 4 5.5 5.7a70.3 70.3 0 01-8.5-3.2c-9-3.7-15.6-9-21-17a71.9 71.9 0 01-11.4-25.5 45 45 0 01-1-12.4 94 94 0 0018.9 12.2c3.9 2.2 8 4.4 11.8 6.8 5.3 3.5 9.3 8.5 12 14.3a38.1 38.1 0 012.2 25H79a111 111 0 01-7-7.4V81h-1.9v.3zM32.7 40.6c-.5 4.4-.2 9.2 1 14.5 2 9.1 6 18.2 11.5 26.2C50.8 89.3 57.8 95 67 99l.5.2a33 33 0 0010.7 3.4c1.5 1.6 3 3 4.6 4.4a45 45 0 00-2.5 8 59 59 0 01-23.1-5.2c-5.6-4-13.3-15-13.5-15.2l-1.3 1c.3.2 4.5 6.4 9.2 11.3l-3.8-2.1-1.3-1c-3.4-2-6.9-4-10.5-5.7-.1-.1-13.3-12.4-11.2-34.5l-1.7-.2a45.8 45.8 0 009.3 33.2 26 26 0 00-17-1.5 5.6 5.6 0 00-5.3-3.5c-1.6 0-3 .6-4 1.8a141 141 0 0126.6-52.7zM14.2 96.9a4 4 0 01-4 4 4 4 0 01-3.8-4 4 4 0 013.9-3.9 4 4 0 014 4zm-9.4 1.7c.8 2.4 3 4.1 5.5 4.1 3.2 0 5.7-2.6 5.7-5.8v-.6c7.5-2 14.6.5 21.4 4-4.6-.3-11.4 0-14.1 5a5.7 5.7 0 00-5.1 5.6c0 2.3 1.3 4.2 3.1 5.1H2c.6-5.7 1.5-11.6 2.8-17.4z" fill="#5B7F4C"/></svg>