<svg width="99" height="98" viewBox="0 0 99 98" fill="none" xmlns="http://www.w3.org/2000/svg">
<path d="M17.8158 88.3572L17.9128 88.409C18.0801 88.4982 18.2551 88.5235 18.5444 88.3882C18.6839 88.3205 18.7701 88.2265 18.8528 88.0484C18.9353 87.8709 18.9826 87.6898 19.0517 87.4256C19.0737 87.3415 19.0979 87.2489 19.1262 87.1453L19.1299 87.1318L19.1299 87.1318C19.3968 86.2047 19.4742 85.2391 19.4819 84.2058C19.4855 83.7135 19.4735 83.2186 19.4611 82.7054L19.4592 82.6263C19.4463 82.0908 19.4338 81.5358 19.4421 80.9791L19.4421 80.9771C19.4427 80.9389 19.4434 80.9009 19.444 80.8632C19.4505 80.4628 19.4566 80.0903 19.4902 79.7935C19.5254 79.4828 19.6093 79.0211 19.9619 78.656C20.3269 78.2779 20.795 78.1905 21.1159 78.1589C21.4276 78.1282 21.8165 78.1351 22.2261 78.1423L22.2641 78.1431H22.2673H22.2705H22.2737H22.2769H22.2801H22.2832H22.2864H22.2896H22.2928H22.296H22.2992H22.3024H22.3055H22.3087H22.3119H22.3151H22.3183H22.3215H22.3247H22.3279H22.3311H22.3343H22.3375H22.3407H22.3439H22.3471H22.3503H22.3534H22.3566H22.3598H22.363H22.3662H22.3695H22.3727H22.3759H22.3791H22.3823H22.3855H22.3887H22.3919H22.3951H22.3983H22.4015H22.4047H22.4079H22.4111H22.4143H22.4176H22.4208H22.424H22.4272H22.4304H22.4336H22.4368H22.44H22.4433H22.4465H22.4497H22.4529H22.4561H22.4593H22.4626H22.4658H22.469H22.4722H22.4754H22.4787H22.4819H22.4851H22.4883H22.4916H22.4948H22.498H22.5012H22.5045H22.5077H22.5109H22.5141H22.5174H22.5206H22.5238H22.5271H22.5303H22.5335H22.5367H22.54H22.5432H22.5464H22.5497H22.5529H22.5561H22.5594H22.5626H22.5658H22.5691H22.5723H22.5756H22.5788H22.582H22.5853H22.5885H22.5917H22.595H22.5982H22.6015H22.6047H22.6079H22.6112H22.6144H22.6177H22.6209H22.6241H22.6274H22.6306H22.6339H22.6371H22.6404H22.6436H22.6469H22.6501H22.6534H22.6566H22.6598H22.6631H22.6663H22.6696H22.6728H22.6761H22.6793H22.6826H22.6858H22.6891H22.6923H22.6956H22.6988H22.7021H22.7053H22.7086H22.7119H22.7151H22.7184H22.7216H22.7249H22.7281H22.7314H22.7346H22.7379H22.7411H22.7444H22.7477H22.7509H22.7542H22.7574H22.7607H22.7639H22.7672H22.7705H22.7737H22.777H22.7802H22.7835H22.7868H22.79H22.7933H22.7965H22.7998H22.8031H22.8063H22.8096H22.8128H22.8161H22.8194H22.8226H22.8259H22.8292H22.8324H22.8357H22.8389H22.8422H22.8455H22.8487H22.852H22.8553H22.8585H22.8618H22.8651H22.8683H22.8716H22.8749H22.8781H22.8814H22.8847H22.8879H22.8912H22.8945H22.8977H22.901H22.9043H22.9075H22.9108H22.9141H22.9173H22.9206H22.9239H22.9271H22.9304H22.9337H22.9369H22.9402H22.9435H22.9468H22.95H22.9533H22.9566H22.9598H22.9631H22.9664H22.9696H22.9729H22.9762H22.9795H22.9827H22.986H22.9893H22.9925H22.9958H22.9991H23.0024H23.0056H23.0089H23.0122H23.0154H23.0187H23.022H23.0253H23.0285H23.0318H23.0351H23.0383H23.0416H23.0449H23.0482H23.0514H23.0547H23.058H23.0612H23.0645H23.0678H23.0711H23.0743H23.0776H23.0809H23.0842H23.0874H23.0907H23.094H23.0972H23.1005H23.1038H23.1071H23.1103H23.1136H23.1169H23.1201H23.1234H23.1267H23.13H23.1332H23.1365H23.1398H23.143H23.1463H23.1496H23.1529H23.1561H23.1594H23.1627H23.166H23.1692H23.1725H23.1758H23.179H23.1823H23.1856H23.1889H23.1921H23.1954H23.1987H23.2019H23.2052H23.2085H23.2117H23.215H23.2183H23.2216H23.2248H23.2281H23.2314H23.2346H23.2379H23.2412H23.2444H23.2477H23.251H23.2542H23.2575H23.2608H23.2641H23.2673H23.2706H23.2739H23.2771H23.2804H23.2837H23.2869H23.2902H23.2935H23.2967H23.3H23.3033H23.3065H23.3098H23.3131H23.3163H23.3196H23.3229H23.3261H23.3294H23.3327H23.3359H23.3392H23.3424H23.3457H23.349H23.3522H23.3555H23.3588H23.362H23.3653H23.3685H23.3718H23.3751H23.3783H23.3816H23.3849H23.3881H23.3914H23.3946H23.3979H23.4012H23.4044H23.4077H23.4109H23.4142H23.4174H23.4207H23.424H23.4272H23.4305H23.4337H23.437H23.4402H23.4435H23.4468H23.45H23.4533H23.4565H23.4598H23.463H23.4663H23.4695H23.4728H23.476H23.4793H23.4825H23.4858H23.489H23.4923H23.4956H23.4988H23.5021H23.5053H23.5086H23.5118H23.515H23.5183H23.5215H23.5248H23.528H23.5313H23.5345H23.5378H23.541H23.5443H23.5475H23.5508H23.554H23.5572H23.5605H23.5637H23.567H23.5702H23.5735H23.5767H23.5799H23.5832H23.5864H23.5897H23.5929H23.5961H23.5994H23.6026H23.6058H23.6091H23.6123H23.6155H23.6188H23.622H23.6253H23.6285H23.6317H23.635H23.6382H23.6414H23.6446H23.6479H23.6511H23.6543H23.6576H23.6608H23.664H23.6673H23.6705H23.6737H23.6769H23.6802H23.6834H23.6866H23.6898H23.6931H23.6963H23.6995H23.7027H23.7059H23.7092H23.7124H23.7156H23.7188H23.722H23.7253H23.7285H23.7317H23.7349H23.7381H23.7413H23.7446H23.7478H23.751H23.7542H23.7574H23.7606H23.7638H23.7671H23.7703H23.7735H23.7767H23.7799H23.7831H23.7863H23.7895H23.7927H23.7959H23.7991H23.8023H23.8055H23.8087H23.8119H23.8151H23.8183H23.8215H23.8247H23.8279H23.8311H23.8343H23.8375H23.8407H23.8439H23.8471H23.8503H23.8535H23.8567H23.8599H23.8631H23.8663H23.8695H23.8727H23.8758H23.879H23.8822H23.8854H23.8886H23.8918H23.895H23.8982H23.9013H23.9045H23.9077H23.9109H23.9141H23.9172H23.9204C24.1626 78.1431 24.5758 78.1653 24.956 78.4229C25.3719 78.7046 25.5561 79.1289 25.6345 79.5189C26.1619 82.0932 27.0024 84.5889 27.8947 87.1063L27.8988 87.1181L27.8988 87.1181C27.9548 87.2827 28.0092 87.4448 28.0628 87.6043C28.5229 88.9744 28.9202 90.1577 29.734 91.1441L29.7397 91.151L29.7452 91.158C30.1481 91.6645 30.5809 91.8274 30.908 91.8218C31.223 91.8163 31.6153 91.6523 31.9568 91.1349C32.4606 90.3666 32.5877 89.4643 32.5585 88.3978C32.4307 84.8822 32.304 81.4613 31.8035 78.049C31.7517 77.7197 31.6996 77.2519 31.818 76.7784C31.9507 76.2475 32.2792 75.7779 32.8411 75.465C34.7018 74.3831 36.3105 72.9617 37.789 71.2984L37.902 71.1713L38.0507 71.0886C38.3514 70.9216 38.546 70.6602 38.8978 70.1875C38.9439 70.1255 38.9927 70.06 39.0448 69.9906C39.2125 69.7669 39.2618 69.6446 39.2761 69.5961C39.248 69.555 39.1656 69.456 38.9444 69.2981L38.9401 69.295C38.3952 68.9014 37.8155 68.5349 37.2046 68.1491L37.1969 68.1442L37.1894 68.1393C34.9704 66.6811 32.5943 65.08 30.9654 62.5846L30.9611 62.578L30.9569 62.5713C30.4321 61.739 30.0714 60.8289 30.0299 59.863C29.9876 58.8814 30.2792 57.9243 30.9216 57.026C31.0907 56.7814 31.1512 56.588 31.1656 56.4225C31.1805 56.2512 31.1521 56.0371 31.0363 55.7457C30.8891 55.3918 30.7418 54.9986 30.6022 54.6258C30.5157 54.3946 30.4321 54.1712 30.3532 53.97C30.1298 53.3999 29.9001 52.8822 29.6117 52.4153L29.5881 52.3771L29.5681 52.337C29.4755 52.152 29.4372 51.967 29.4225 51.896C29.4216 51.8917 29.4208 51.8878 29.4201 51.8844C29.4101 51.837 29.4051 51.8156 29.4034 51.8079C27.6263 47.5985 27.6767 43.1877 27.8357 38.9912L27.8361 38.9789L27.8369 38.9667C27.8377 38.9536 27.8385 38.9389 27.8394 38.9229C27.8514 38.7086 27.8775 38.2412 28.1075 37.8408C28.4341 37.2722 29.0048 37.0361 29.6159 37.009C30.6538 36.9523 31.6496 36.8644 32.6659 36.7747C33.3691 36.7127 34.0821 36.6497 34.8258 36.5956L34.8262 36.5956C37.3699 36.4117 39.8109 35.8282 42.2975 35.0728C42.5872 34.9833 42.6867 34.8869 42.7239 34.8361C42.7548 34.7939 42.8239 34.6743 42.8047 34.3494C42.7182 33.3808 42.523 32.4612 42.3078 31.4477C42.2995 31.4087 42.2912 31.3696 42.2829 31.3303C42.2386 31.1398 42.1784 31.0788 42.1538 31.0583C42.1289 31.0377 42.0402 30.9753 41.7868 30.9652L17.8158 88.3572ZM17.8158 88.3572L17.7098 88.3278C16.8535 88.0899 16.3316 87.6028 15.9232 86.9424C15.5719 86.3742 15.3347 85.7382 15.0633 85.0102C14.9902 84.8143 14.9146 84.6116 14.8337 84.4019C14.0119 82.2402 13.5502 79.9431 13.365 77.5964L13.3642 77.586L13.3631 77.5756C13.3186 77.1308 13.1889 76.6929 12.9208 76.3089C12.6515 75.9232 12.2859 75.6539 11.8694 75.4798C9.4046 74.3827 7.22954 72.8678 5.45239 70.9109C5.07895 70.4923 4.84005 70.1531 4.71921 69.8214C4.61081 69.5239 4.57788 69.1792 4.73451 68.6982L4.73654 68.6918C6.08868 64.4422 7.18069 60.1044 8.17267 55.7845C8.54779 54.1655 8.88997 52.5177 9.23037 50.8785C9.43423 49.8967 9.63746 48.918 9.84675 47.9504C10.0959 47.3421 10.1442 46.7375 10.1712 46.2667C10.1758 46.1871 10.1798 46.1118 10.1836 46.0402C10.2063 45.617 10.222 45.3234 10.3004 45.0393L10.3275 44.941L10.3342 44.8392C10.5605 41.4133 10.56 38.0266 10.4314 34.6193L10.4313 34.6175C10.2944 31.1608 9.0899 28.3014 7.22624 25.5724L7.22627 25.5724L7.22151 25.5656C4.98611 22.3503 3.61935 18.6788 2.5805 14.8077L2.55962 14.7272C1.89286 12.1556 1.26092 9.71831 1.07916 7.204L1.07913 7.20357C0.947352 5.39165 0.882805 4.05075 1.74731 2.86064C1.88888 2.67301 1.95023 2.65359 1.96474 2.64924L2.06841 2.61814L2.16303 2.56557C2.37487 2.44788 2.56861 2.43011 2.96261 2.60522L2.97523 2.61083L2.988 2.61609C3.51159 2.83168 3.84201 3.20669 4.13258 3.75517C4.28298 4.03908 4.41253 4.35017 4.5548 4.7036C4.5694 4.73988 4.58421 4.77678 4.59922 4.81421C4.72377 5.12466 4.86279 5.4712 5.02231 5.79838C5.74388 7.28869 6.39706 8.81484 7.05552 10.3672C7.10283 10.4787 7.15018 10.5904 7.19758 10.7023C7.80717 12.1403 8.42597 13.6001 9.1011 15.0404L9.10109 15.0404L9.10317 15.0448C11.6227 20.3526 15.8785 23.741 20.7422 26.2874L17.8158 88.3572Z" fill="#D4523D" stroke="black" stroke-width="2"/>
<path d="M84.4212 43.7718L84.3953 43.7825C83.0424 44.3435 81.6552 44.8059 80.2019 45.1693L80.191 45.172L80.18 45.1745C77.2146 45.8452 74.5644 45.1932 72.0503 44.1677L72.015 44.1533L71.9808 44.1362C71.9295 44.1105 71.8708 44.0824 71.8067 44.0516C71.5138 43.9112 71.107 43.7161 70.7622 43.4507C67.7559 41.5023 65.506 38.7748 63.4149 36.145C62.4517 34.9572 61.5624 33.8665 60.4842 32.9889C60.2046 32.7805 60.0009 32.6669 59.8284 32.6147C59.6819 32.5704 59.5308 32.5614 59.32 32.6344L59.3114 32.6373L59.3029 32.6401C58.2442 32.9854 57.5765 33.9061 57.5992 35.0198C57.6267 36.3679 58.065 37.6108 58.7508 38.8642C61.2291 43.2926 64.6166 46.9992 68.5396 50.2946C68.6437 50.382 68.7664 50.4808 68.8984 50.5872C69.1858 50.8186 69.5175 51.0857 69.7973 51.3482C70.2391 51.7627 70.6852 52.2773 70.9826 52.9572L71.049 53.1089L71.063 53.274C71.2866 55.9262 71.4806 58.6023 71.5131 61.3183M84.4212 43.7718L70.5133 61.3362M84.4212 43.7718L84.4464 43.7596M84.4212 43.7718L84.4464 43.7596M71.5131 61.3183C71.5131 61.3203 71.5132 61.3223 71.5132 61.3242L70.5133 61.3362M71.5131 61.3183C71.5131 61.3163 71.513 61.3143 71.513 61.3124L70.5133 61.3362M71.5131 61.3183C71.5229 61.7308 71.5269 62.1329 71.5309 62.5278C71.5404 63.4756 71.5496 64.3823 71.6364 65.2942L71.6368 65.298C71.8466 67.5928 71.9902 69.8491 72.1328 72.0883C72.3444 75.4114 72.5536 78.697 72.973 82.0151M70.5133 61.3362C70.5224 61.7199 70.5263 62.1063 70.5302 62.4938C70.54 63.4597 70.5498 64.4325 70.6409 65.389C70.8449 67.6206 70.9878 69.8572 71.1306 72.0928C71.3452 75.4521 71.5597 78.8091 71.9812 82.1431M72.973 82.0151C72.9729 82.0143 72.9728 82.0135 72.9727 82.0127L71.9812 82.1431M72.973 82.0151C72.9731 82.016 72.9732 82.0168 72.9733 82.0177L71.9812 82.1431M72.973 82.0151C73.0106 82.3008 73.0471 82.5845 73.0834 82.8665C73.3602 85.0169 73.6241 87.067 74.2457 89.0941L74.2469 89.0979C74.3904 89.5725 74.6014 89.797 74.8243 89.9376C75.0838 90.1012 75.4465 90.2053 75.9783 90.2793M71.9812 82.1431C72.0185 82.4263 72.0549 82.7095 72.0913 82.9926C72.3665 85.1344 72.6414 87.2733 73.2897 89.3873C73.7045 90.7595 74.6938 91.1105 75.8427 91.2701M79.9594 70.2717C79.6458 71.4474 79.5369 72.6352 79.4921 73.8203C79.4098 72.6925 79.2712 71.5987 78.9916 70.5233L79.9594 70.2717ZM79.9594 70.2717C80.264 71.4433 80.4095 72.6236 80.4937 73.8062C80.5375 72.682 80.6401 71.5999 80.9256 70.5293L79.9594 70.2717ZM75.9783 90.2793C75.9777 90.2793 75.9772 90.2792 75.9766 90.2791L75.8427 91.2701M75.9783 90.2793C75.9789 90.2794 75.9796 90.2795 75.9802 90.2796L75.8427 91.2701M75.9783 90.2793C76.6182 90.365 77.2541 90.0158 77.5966 89.1711L77.5993 89.1645C77.941 88.3388 78.1376 87.5237 78.1949 86.6208M75.8427 91.2701C77.0234 91.4297 78.0446 90.7276 78.5233 89.5468C78.9063 88.6214 79.1297 87.6959 79.1935 86.6747M78.1949 86.6208C78.1948 86.6238 78.1946 86.6267 78.1945 86.6297L79.1935 86.6747M78.1949 86.6208C78.1951 86.618 78.1952 86.6151 78.1954 86.6123L79.1935 86.6747M78.1949 86.6208C78.2938 84.4203 78.3306 82.2383 78.3677 80.0401C78.3901 78.7106 78.4126 77.3751 78.449 76.0261M79.1935 86.6747C79.2932 84.4608 79.3306 82.2469 79.368 80.033C79.3904 78.7046 79.4129 77.3762 79.4488 76.0478M79.4488 76.0478L78.4489 76.0312C78.4489 76.0295 78.449 76.0278 78.449 76.0261M79.4488 76.0478L78.4491 76.0208C78.4491 76.0226 78.449 76.0243 78.449 76.0261M79.4488 76.0478L81.8746 79.7667M78.449 76.0261C78.4523 75.828 78.4548 75.6273 78.4574 75.4243C78.4788 73.721 78.5023 71.8545 78.9931 70.014L79.9716 66.3447L80.9272 70.02C81.37 71.723 81.4924 73.4227 81.5647 75.0459C81.5792 75.3703 81.5916 75.6903 81.604 76.0067C81.6544 77.3007 81.7025 78.535 81.8746 79.7667M81.8746 79.7667C81.8744 79.7652 81.8742 79.7637 81.874 79.7622L80.8848 79.9092L81.8752 79.7706C81.875 79.7693 81.8748 79.768 81.8746 79.7667ZM81.8746 79.7667C82.0361 80.8547 82.1003 81.9487 82.1616 82.992C82.1698 83.1313 82.1779 83.2698 82.1862 83.4072C82.2577 84.5915 82.3424 85.716 82.5654 86.8193M81.8746 79.7667L81.5869 87.0257M82.5654 86.8193C82.5649 86.8169 82.5643 86.8145 82.5638 86.812L81.5869 87.0257M82.5654 86.8193C82.5659 86.8219 82.5665 86.8245 82.567 86.8271L81.5869 87.0257M82.5654 86.8193C82.7535 87.6723 83.0949 88.0505 83.5815 88.1537L83.5877 88.155C84.0023 88.2458 84.4148 88.0713 84.9515 87.341M81.5869 87.0257C81.8103 88.0469 82.3209 88.9086 83.374 89.132C84.3952 89.3554 85.1611 88.749 85.7675 87.9193M84.9515 87.341C84.9488 87.3449 84.9461 87.3489 84.9434 87.3528L85.7675 87.9193M84.9515 87.341C85.5251 86.5006 85.7771 85.4817 86.0723 84.2683L86.0731 84.2648C86.6833 81.7953 86.8275 79.2621 86.9782 76.6161C86.9864 76.4717 86.9946 76.327 87.003 76.1819M84.9515 87.341C84.9543 87.3371 84.9572 87.3332 84.9601 87.3293L85.7675 87.9193M85.7675 87.9193C86.4579 86.915 86.7471 85.7255 87.0297 84.5632L87.003 76.1819M87.003 76.1819C87.003 76.1823 87.0029 76.1826 87.0029 76.1829L88.0012 76.2393L87.003 76.1819ZM87.003 76.1819C87.4467 68.32 87.2254 60.4176 86.9701 52.5021M87.003 76.1819L86.9701 52.5021M84.4464 43.7596C87.3634 42.3539 89.1241 39.8665 90.7048 37.5903C91.8677 35.9205 92.7616 34.0926 93.6128 32.3522C93.712 32.1494 93.8106 31.9478 93.9089 31.7478L93.909 31.7478M84.4464 43.7596L93.909 31.7478M93.909 31.7478L93.9145 31.7364M93.909 31.7478L93.9145 31.7364M93.9145 31.7364C94.2058 31.1245 94.5559 30.5408 94.9655 29.9849L94.9692 29.9799M93.9145 31.7364L94.9692 29.9799M94.9692 29.9799C95.2476 29.5971 95.4168 29.3839 95.5784 29.2687C95.64 29.2248 95.6708 29.2187 95.68 29.2173L95.6803 29.2172C95.6869 29.2162 95.7285 29.2096 95.8267 29.2456L95.8267 29.2456M94.9692 29.9799L95.8267 29.2456M95.8267 29.2456L95.8346 29.2484M95.8267 29.2456L95.8346 29.2484M95.8346 29.2484C96.2391 29.3929 96.4884 29.5275 96.6512 29.6821C96.7868 29.8108 96.9144 30.0019 96.9666 30.3843C97.2279 32.4215 96.8549 34.3727 96.3479 36.4641L96.3476 36.4653M95.8346 29.2484L96.3476 36.4653M96.3476 36.4653C95.518 39.9067 94.0835 42.9479 91.7448 45.6511L91.7447 45.651M96.3476 36.4653L91.7447 45.651M91.7447 45.651L91.7395 45.6572M91.7447 45.651L91.7395 45.6572M91.7395 45.6572C91.6032 45.8174 91.4678 45.9768 91.3331 46.1356C90.1923 47.4793 89.0961 48.7706 87.8768 49.9622L87.8768 49.9621M91.7395 45.6572L87.8768 49.9621M87.8768 49.9621L87.8687 49.9703M87.8768 49.9621L87.8687 49.9703M87.8687 49.9703C87.1381 50.7008 86.931 51.579 86.9701 52.5021M87.8687 49.9703L86.9701 52.5021" fill="#44BEB9" stroke="black" stroke-width="2"/>
<path d="M46.1702 37.1894L46.1706 37.1946C46.3933 39.9946 46.4297 42.8381 46.1839 45.661C47.4321 45.3248 48.746 45.244 50.1587 45.5872C55.7135 46.8626 58.391 52.0774 56.9904 57.1848C58.1972 56.5059 59.3076 55.6966 60.4764 54.8446C60.9975 54.4647 61.5302 54.0764 62.0883 53.6875C62.9799 53.0617 63.9498 52.7283 64.9548 52.812C65.5401 52.8608 66.0903 53.0472 66.6011 53.344C66.6092 53.1151 66.6401 52.8674 66.7154 52.6199L66.7469 52.5164C66.6989 52.4753 66.6547 52.4394 66.5898 52.3853C66.5319 52.3372 66.4618 52.2782 66.3916 52.2136C64.0503 50.0966 61.7276 47.8435 59.7863 45.244L59.7862 45.244L59.7398 45.1819C57.9835 42.8298 56.1046 40.3135 55.1921 37.2044L55.1916 37.2028C54.6658 35.4 54.8977 33.7415 55.8349 32.167L55.8391 32.1598L55.8392 32.1599C56.561 30.9698 57.6414 30.1925 58.8811 29.9778C60.1201 29.7633 61.402 30.1308 62.4904 31.0054L62.5067 31.0185L62.5225 31.0323C62.803 31.2778 63.0782 31.5529 63.3255 31.8003L63.337 31.8118C64.5022 32.977 65.5089 34.2798 66.4487 35.5471V35.5369V35.5244V35.5118V35.4993V35.4868V35.4742V35.4617V35.4491V35.4366V35.424V35.4115V35.3989V35.3864V35.3738V35.3612V35.3487V35.3361V35.3236V35.311V35.2985V35.2859V35.2734V35.2608V35.2482V35.2357V35.2231V35.2106V35.198V35.1854V35.1729V35.1603V35.1477V35.1352V35.1226V35.11V35.0975V35.0849V35.0723V35.0598V35.0472V35.0346V35.0221V35.0095V34.9969V34.9844V34.9718V34.9592V34.9466V34.9341V34.9215V34.9089V34.8964V34.8838V34.8712V34.8586V34.846V34.8335V34.8209V34.8083V34.7957V34.7832V34.7706V34.758V34.7454V34.7328V34.7203V34.7077V34.6951V34.6825V34.6699V34.6573V34.6448V34.6322V34.6196V34.607V34.5944V34.5818V34.5692V34.5566V34.5441V34.5315V34.5189V34.5063V34.4937V34.4811V34.4685V34.4559V34.4433V34.4307V34.4182V34.4056V34.393V34.3804V34.3678V34.3552V34.3426V34.33V34.3174V34.3048V34.2922V34.2796V34.267V34.2544V34.2418V34.2292V34.2166V34.204V34.1914V34.1788V34.1662V34.1536V34.141V34.1284V34.1158V34.1032V34.0906V34.078V34.0654V34.0528V34.0402V34.0276V34.015V34.0024V33.9898V33.9772V33.9646V33.952V33.9394V33.9268V33.9142V33.9016V33.8889V33.8763V33.8637V33.8511V33.8385V33.8259V33.8133V33.8007V33.7881V33.7755V33.7629V33.7503V33.7376V33.725V33.7124V33.6998V33.6872V33.6746V33.662V33.6494V33.6368V33.6241V33.6115V33.5989V33.5863V33.5737V33.5611V33.5485V33.5358V33.5232V33.5106V33.498V33.4854V33.4728V33.4602V33.4475V33.4349V33.4223V33.4097V33.3971V33.3845V33.3718V33.3592V33.3466V33.334V33.3214V33.3088V33.2961V33.2835V33.2709V33.2583V33.2457V33.2331V33.2204V33.2078V33.1952V33.1826V33.17V33.1573V33.1447V33.1321V33.1195V33.1069V33.0942V33.0816V33.069V33.0564V33.0438V33.0311V33.0185V33.0059V32.9933V32.9807V32.968V32.9554V32.9428V32.9302V32.9176V32.9049V32.8923V32.8797V32.8671V32.8545V32.8418V32.8292V32.8166V32.804V32.7914V32.7787V32.7661V32.7535V32.7409V32.7282V32.7156V32.703V32.6904V32.6778V32.6651V32.6525V32.6399V32.6273V32.6146V32.602V32.5894V32.5768V32.5642V32.5515V32.5389V32.5263V32.5137V32.5011V32.4884V32.4758V32.4632V32.4506V32.4379V32.4253V32.4127V32.4001V32.3875V32.3748V32.3622V32.3496V32.337V32.3244V32.3117V32.2991V32.2865V32.2739V32.2613V32.2486V32.236V32.2234V32.2108V32.1982V32.1855V32.1729V32.1603V32.1477V32.1351V32.1224V32.1098V32.0972V32.0846V32.072V32.0593V32.0467V32.0341V32.0215V32.0089V31.9962V31.9836V31.971V31.9584V31.9458V31.9332V31.9205V31.9079V31.8953V31.8827V31.8701V31.8575V31.8448V31.8322V31.8196V31.807V31.7944V31.7818V31.7691V31.7565V31.7439V31.7313V31.7187V31.7061V31.6935V31.6808V31.6682V31.6556V31.643V31.6304V31.6178V31.6052V31.5925V31.5799V31.5673V31.5547V31.5421V31.5295V31.5169V31.5043V31.4917V31.479V31.4664V31.4538V31.4412V31.4286V31.416V31.4034V31.3908V31.3782V31.3656V31.353V31.3404V31.3277V31.3151V31.3025V31.2899V31.2773V31.2647V31.2521V31.2395V31.2269V31.2143V31.2017V31.1891V31.1765V31.1639V31.1513V31.1387V31.1261V31.1135V31.1009V31.0883V31.0757V31.0631V31.0505V31.0379V31.0253V31.0127V31.0001V30.9875V30.9749V30.9623V30.9497V30.9371V30.9245V30.9119V30.8993V30.8867V30.8741V30.8615V30.8489V30.8363V30.8237V30.8111V30.7985V30.786V30.7734V30.7608V30.7482V30.7356V30.723V30.7104V30.6978V30.6852V30.6726V30.6601V30.6475V30.6349V30.6223V30.6097V30.5971V30.5845V30.572V30.5594V30.5468V30.5342V30.5216V30.509V30.4965V30.4839V30.4713V30.4587V30.4461V30.4336V30.421V30.4084V30.3958V30.3833V30.3707V30.3581V30.3455V30.3329V30.3204V30.3078V30.2952V30.2827V30.2701V30.2575V30.2449V30.2324V30.2198V30.2072V30.1947V30.1821V30.1695V30.157V30.1444V30.1318V30.1193V30.1067V30.0941V30.0816V30.069V30.0564V30.0439V30.0313V30.0187V30.0062V29.9936V29.9811V29.9685V29.9559V29.9434V29.9308V29.9183V29.9057V29.8932V29.8806V29.8681V29.8555V29.8429V29.8304V29.8178V29.8053V29.7927V29.7802V29.7676V29.7551V29.7425V29.73V29.7175V29.7049V29.6924V29.6798V29.6673V29.6547V29.6422V29.6296V29.6171V29.6046V29.592V29.5795V29.5669V29.5544V29.5419V29.5293V29.5168V29.5043V29.4917V29.4792V29.4667V29.4541V29.4416V29.4291V29.4165V29.404V29.3915C66.4487 29.3559 66.4477 29.3078 66.4466 29.2511C66.443 29.071 66.4376 28.8047 66.4561 28.5824C66.4805 28.2901 66.5484 27.9339 66.7472 27.582C67.0075 26.7086 67.4923 26.0306 68.009 25.4752C68.3838 25.0723 68.8261 24.6862 69.2116 24.3496C69.3572 24.2225 69.4947 24.1025 69.6174 23.9913L69.6233 23.9859L69.6233 23.986C70.0261 23.6267 70.4286 23.2699 70.8297 22.9144C73.9894 20.1137 77.0646 17.388 79.5765 14.0756C81.085 12.0855 82.4605 10.2188 83.2633 8.01837L83.2637 8.01726C83.6262 7.0276 83.6181 6.3717 83.4551 5.86967C83.285 5.34592 82.8978 4.83635 82.2051 4.23208L82.1998 4.22753C82.1068 4.14515 81.7656 4.00503 81.099 4.08792C80.4819 4.16466 79.794 4.41332 79.241 4.78627L79.2399 4.78704C78.4054 5.34814 77.667 6.05168 76.9233 6.83823C76.6563 7.12063 76.3768 7.42726 76.0901 7.74179C75.6164 8.26138 75.1231 8.80253 74.634 9.29162L74.6292 9.2965C72.2583 11.6348 69.6693 13.7692 66.7332 15.4517L66.7283 15.4545C62.72 17.7215 58.4017 19.1236 53.9251 20.0319L53.9203 20.0328C53.1037 20.1944 52.2816 20.3621 51.4561 20.5306C49.3748 20.9553 47.2715 21.3846 45.1775 21.7298M46.1702 37.1894L45.0142 20.7432M46.1702 37.1894C46.1187 36.5825 46.1244 35.9994 46.1306 35.3646C46.1336 35.0656 46.1366 34.7551 46.1338 34.4253C46.1256 33.4437 46.0607 32.3737 45.7107 31.2869L45.7035 31.2644L45.6952 31.2423C45.6756 31.1899 45.6561 31.1164 45.6306 30.9929C45.6258 30.9694 45.6201 30.9404 45.6136 30.9078C45.5936 30.8064 45.5667 30.6698 45.5375 30.5531C45.2614 29.4484 44.6932 28.6222 43.847 28.1122C43.0341 27.6222 42.0812 27.4951 41.1506 27.5304M46.1702 37.1894L41.1506 27.5304M45.1775 21.7298C45.1773 21.7298 45.177 21.7298 45.1768 21.7299L45.0142 20.7432M45.1775 21.7298C45.1779 21.7297 45.1782 21.7296 45.1786 21.7296L45.0142 20.7432M45.1775 21.7298C41.7923 22.294 38.3901 22.9177 35.0545 23.6919M45.0142 20.7432C41.5676 21.3176 38.0892 21.9559 34.6745 22.7537M35.0545 23.6919C35.1222 23.6559 35.1897 23.6146 35.2558 23.5674L34.6745 22.7537M35.0545 23.6919C34.6706 23.8965 34.2789 23.9352 34.0841 23.9544C34.0662 23.9562 34.05 23.9578 34.0356 23.9594C33.9094 23.9729 33.847 23.9848 33.8216 23.99M35.0545 23.6919C35.0037 23.7037 34.9528 23.7156 34.902 23.7275L34.6745 22.7537M34.6745 22.7537L33.8216 23.99M33.8216 23.99L33.8525 23.9638C33.8291 23.9836 33.8068 23.9919 33.807 23.9927C33.8072 23.9931 33.8114 23.9921 33.8216 23.99ZM33.8216 23.99L33.6735 24.1153L33.4459 24.1714C31.8512 24.5646 30.3175 25.0618 28.8044 25.7585M33.8216 23.99L33.2065 23.2005C31.255 23.6817 29.3706 24.3196 27.4972 25.2832C27.9318 25.4688 28.3675 25.6247 28.8044 25.7585M28.8044 25.7585C29.8709 26.0852 30.9446 26.2807 32.0277 26.4579L32.029 26.4582C32.5883 26.5504 33.14 26.6464 33.6862 26.7414C36.2313 27.1841 38.6542 27.6056 41.1506 27.5304M28.8044 25.7585C28.3859 25.9513 27.9689 26.1593 27.5527 26.3846C29.0189 26.9485 30.4727 27.2168 31.8662 27.4448L41.1506 27.5304" fill="#F89D45" stroke="black" stroke-width="2"/>
<path d="M35.1489 59.5857L35.2204 59.6571L35.3048 59.7129C36.8074 60.7057 38.4833 61.3297 40.0305 61.9058C40.4428 62.0593 40.8459 62.2093 41.2342 62.3621L41.2342 62.3621L41.2379 62.3636C43.0184 63.056 44.9084 63.1558 46.5434 63.2421C46.6531 63.2479 46.7616 63.2536 46.8689 63.2594C49.4181 63.4304 51.9541 62.8432 54.3087 62.0258C57.6663 60.8742 60.4611 58.8705 63.1265 56.9595C63.2513 56.8701 63.3757 56.7808 63.5 56.6919L63.5 56.6919L63.5079 56.6862C63.8833 56.4118 64.1845 56.251 64.4411 56.1857C64.6611 56.1297 64.8662 56.1377 65.1127 56.2593C65.1881 56.2992 65.2027 56.3259 65.2041 56.3286L65.2042 56.3288C65.2105 56.339 65.2311 56.3778 65.2439 56.4846C65.2576 56.5988 65.2573 56.7391 65.2495 56.9457C65.2484 56.9741 65.2471 57.0046 65.2457 57.0368C65.2422 57.1216 65.2381 57.2182 65.2359 57.3196C65.0691 57.6565 65.0303 57.9845 65.01 58.1554C65.0083 58.1701 65.0067 58.1837 65.0052 58.196C64.9881 58.3324 64.9749 58.3969 64.9698 58.4216L64.944 58.4521L64.9033 58.5191C64.818 58.6597 64.7337 58.7991 64.6503 58.9372C63.6401 60.6088 62.7435 62.0925 61.3641 63.2066L61.3557 63.2133L61.3475 63.2203C60.32 64.0873 59.345 64.9084 58.2879 65.6035C57.7515 65.949 57.3001 66.364 56.9971 66.9217C56.6936 67.48 56.5885 68.09 56.5885 68.7395L56.5885 68.7441C56.5931 69.749 56.5983 70.7534 56.6035 71.7574C56.6347 77.7745 56.6659 83.7746 56.5567 89.7516L56.5567 89.756C56.5247 92.0571 56.3884 94.2186 55.3728 96.0838C54.9511 96.8348 54.3465 97.0117 53.8292 96.8141C53.4578 96.6704 53.1342 96.2452 52.9015 95.4309L52.9004 95.4271C52.4784 93.972 52.4053 92.4695 52.3934 90.8595C52.3914 90.5807 52.3913 90.2972 52.3911 90.0099C52.3905 88.6804 52.3899 87.2699 52.1981 85.8786C52.1899 85.8052 52.1868 85.7303 52.1819 85.6142C52.181 85.594 52.1801 85.5725 52.1791 85.5495C52.173 85.4083 52.1633 85.2136 52.1274 85.0071C52.0479 84.5501 51.8446 84.0602 51.3597 83.6292L50.181 82.5815L49.736 84.0945C49.7049 84.2003 49.673 84.3071 49.6407 84.4149C49.3604 85.353 49.0571 86.3678 49.0571 87.4722C49.0571 90.3939 49.0175 93.1351 48.1225 95.7306C47.9032 96.3632 47.5602 96.7155 47.2436 96.8759C46.9385 97.0306 46.5709 97.0542 46.1611 96.8688L46.1538 96.8655L46.1465 96.8624C45.7128 96.6744 45.5325 96.236 45.2851 95.2481C44.6045 92.3058 44.323 89.3201 44.2916 86.2828C44.2841 85.2167 44.2952 84.1349 44.3063 83.0429C44.3415 79.5902 44.3778 76.0346 43.8329 72.5425L43.8005 72.3347L43.6872 72.1576C43.59 72.0058 43.5486 71.8113 43.5331 71.3728C43.5315 71.3275 43.5303 71.2778 43.529 71.2244C43.5197 70.8445 43.5058 70.2759 43.3136 69.7276C43.1421 69.1984 42.9062 68.7199 42.5583 68.3047C42.2044 67.8823 41.7715 67.5695 41.2671 67.3274L41.2625 67.3252C38.3498 65.9455 35.8451 64.0808 33.7371 61.6673L33.7371 61.6672L33.7313 61.6607C33.284 61.1575 33.041 60.7301 32.9945 60.2981C32.9935 60.1294 32.9876 59.9643 32.9823 59.8158L32.982 59.8082C32.9759 59.6377 32.9707 59.488 32.9707 59.3413C32.9707 59.1351 32.9816 58.9589 33.0091 58.7995C33.0182 58.7985 33.0307 58.7976 33.0473 58.7974C33.1186 58.7966 33.2177 58.808 33.3834 58.8389C33.4163 58.845 33.4562 58.8529 33.5008 58.8617C33.6191 58.885 33.77 58.9148 33.9107 58.936C34.4315 59.0657 34.8415 59.2783 35.1489 59.5857Z" fill="#F1D84B" stroke="black" stroke-width="2"/>
<path d="M62.5354 94.5506L62.5354 94.5506L62.5227 94.5495C62.1909 94.5218 61.9839 94.4108 61.8072 94.1991C61.5978 93.9483 61.3795 93.4897 61.219 92.6726L61.2183 92.6693C61.0317 91.7363 60.8837 90.7764 60.8543 89.8663C60.8172 88.6322 60.7647 87.4072 60.7125 86.1878C60.5826 83.1546 60.4542 80.1561 60.5669 77.1379L60.5669 77.1363C60.6175 75.7206 60.4906 74.3348 60.3592 73.0126C60.3494 72.9143 60.3396 72.8163 60.3299 72.7187C60.2065 71.485 60.0889 70.3085 60.0889 69.1225C60.0889 68.8386 60.1191 68.7384 60.1413 68.69C60.1569 68.6559 60.2043 68.5666 60.4282 68.4099L60.4377 68.4033L60.447 68.3965C63.0449 66.4871 65.5256 64.3006 67.2239 61.3367C67.2336 61.4796 67.2419 61.6233 67.249 61.7678C67.2798 62.3966 67.2877 63.0284 67.2957 63.6807L67.2958 63.6886C67.3037 64.3322 67.3119 64.9961 67.3447 65.6611C67.6633 72.2881 67.8192 78.8937 67.1258 85.4509C66.8397 88.0891 66.4687 90.5875 65.3684 92.9098C64.8317 94.0029 63.7413 94.6666 62.5354 94.5506Z" fill="#F89D45" stroke="black" stroke-width="2"/>
<path d="M57.6727 8.56423L57.676 8.51593C57.9253 4.88724 54.9092 1 50.3125 1C46.0756 1 43.082 4.23499 42.8541 8.19515L42.854 8.19685C42.7449 10.0368 43.5176 11.9418 44.8688 13.4076C46.2172 14.8706 48.0741 15.8223 50.039 15.8499L57.6727 8.56423ZM57.6727 8.56423L57.674 8.61263M57.6727 8.56423L57.674 8.61263M57.674 8.61263C57.7838 12.5085 54.1993 15.9067 50.0393 15.8499L57.674 8.61263Z" fill="#F89D45" stroke="black" stroke-width="2"/>
<path d="M17.8996 14.8791L17.8996 14.879C17.9275 11.3035 20.7112 8.1484 24.6863 8.1484V8.14843L24.6935 8.14838C28.5354 8.12074 31.4921 11.265 31.5048 14.9748C31.3241 18.4773 28.7161 21.6328 24.7078 21.6899C20.7456 21.7157 17.8718 18.4152 17.8996 14.8791Z" fill="#D4523D" stroke="black" stroke-width="2"/>
<path d="M48.2606 48.7409L48.2606 48.7409L48.2645 48.7408C51.2703 48.6595 53.9417 50.7883 53.971 54.5103C53.9701 56.3325 53.316 57.7878 52.2862 58.7812C51.2524 59.7784 49.7839 60.364 48.0623 60.336C44.8534 60.2818 42.6267 57.9891 42.4099 54.7572C42.5211 52.7894 43.1275 51.3296 44.0698 50.3549C45.0136 49.3787 46.3957 48.7839 48.2606 48.7409Z" fill="#F1D84A" stroke="black" stroke-width="2"/>
<circle cx="77.0682" cy="36.5397" r="5.86119" fill="#44BEB9" stroke="black" stroke-width="2"/>
</svg>
