<svg width="330" height="290" viewBox="0 0 330 290" fill="none" xmlns="http://www.w3.org/2000/svg"><path d="M81 262A24 24 0 0156.4 242a32 32 0 01-19.9 6.2c-6.2 0-11.8-1.4-17-4A30.2 30.2 0 013.5 217a30.2 30.2 0 0116.2-27c5.1-2.6 10.8-4 17-4 7.9 0 14.8 2 20.7 5.9l1.7 12h-.8c-1.7-6.6-5.5-11-11.5-13.5-3-1.2-6.4-1.8-10.1-1.8-7.7 0-14 2.7-19.1 8-5.1 5.4-7.7 12.2-7.7 20.4s2.6 15 7.7 20.4a25.5 25.5 0 0019.1 8.2c3.7 0 7.2-.6 10.6-2 3.3-1.2 6.2-3 8.6-5.4v-15.1c0-1.3-.4-2.2-1.1-2.9-.8-.6-1.8-1-3.2-1h-1.3v-.8h16.7v.8h-1.3c-1.4 0-2.5.4-3.3 1-.7.7-1 1.6-1 2.9v13.1c.4 9 3.3 15.5 8.8 19.3 3.9 2.8 8.9 4.1 15 4.1 2.6 0 5.3-.2 8.4-.7v.8A42.8 42.8 0 0181 262z" fill="#A57856"/><path d="M71.3 246.4a4.5 4.5 0 004.5-4.4v-39.4c0-1-.5-2-1.3-2.8-1-.8-2-1.2-3.2-1.2h-.8l-.1-.7h20.5a29.4 29.4 0 008.4-1.2v8.8h-.7v-1.2a4 4 0 00-1.2-3 4 4 0 00-2.8-1.2H80.3v21.7h11.9c1 0 1.7-.4 2.4-1 .6-.7 1-1.5 1-2.5v-1h.6v11.1h-.7v-1c0-1-.3-1.8-.9-2.4-.6-.7-1.4-1-2.4-1H80.3v21h10c3.5 0 6.2-.9 8-2.4 1.8-1.5 3.3-3.8 4.5-6.9h.8l-4.1 11.4H70.4v-.7h.9zM157.7 198.7c-1.2 0-2.2.4-3 1.2-.9.8-1.3 1.8-1.4 3V239c0 2.7.2 5.3.5 7.7l.1 1.3h-.6l-38.2-40.9v35a4 4 0 001.3 3c.8.8 1.8 1.2 3 1.2h1.3v.7h-14.4v-.7h1.3c1.2 0 2.2-.4 3-1.2a4 4 0 001.3-3v-36.5a53 53 0 00-.5-7.7l-.2-1h.8l38.2 40.8v-34.9a4.4 4.4 0 00-4.4-4.2h-1.3v-.7h14.4v.7h-1.2zM204 204.7c4.7 4.5 7 10.5 7 17.8 0 7.4-2.3 13.3-7 17.8a25 25 0 01-18.2 6.8h-23.7v-.7h.9c1.2 0 2.2-.4 3.1-1.3.9-.9 1.3-2 1.4-3.1v-39.3c0-1.2-.5-2.1-1.4-2.9-1-.8-2-1.1-3.1-1.1h-.9v-.7h23.7a25 25 0 0118.2 6.7zm-32-4.6V245h13.8a18.8 18.8 0 0017.4-10.7c1.7-3.4 2.5-7.3 2.5-11.8 0-6.7-1.8-12.2-5.5-16.3a18.4 18.4 0 00-14.4-6.1H172zM247.9 246.4c1.2 0 2.2-.5 3-1.3 1-.9 1.4-2 1.4-3v-18.3h-28.6V242a4 4 0 001.3 3.1c.9.8 2 1.3 3.2 1.3h.9v.7h-15.4v-.7h1c1.1 0 2.2-.5 3-1.3 1-.8 1.4-1.9 1.4-3V203c0-1.2-.5-2.2-1.3-3a4.3 4.3 0 00-3.2-1.3h-.9v-.7h15.4v.7h-1c-1.2 0-2.2.4-3 1.2-1 .9-1.4 1.9-1.4 3.1v18.7h28.6V203c0-1.7-.8-3-2.2-3.8-.7-.4-1.4-.6-2.2-.6h-1v-.7h15.4v.7h-1c-1.1 0-2.2.5-3 1.3-.9 1-1.4 2-1.4 3.2v39c0 1.1.5 2.2 1.4 3 .8.8 1.9 1.3 3 1.3h1v.7h-15.4v-.7h1zM268.1 246.4a4.5 4.5 0 004.5-4.4v-39c0-1.2-.5-2.2-1.4-3a4.3 4.3 0 00-3-1.3h-1v-.7h15.4v.7h-1c-1.2 0-2.2.4-3 1.2-1 .9-1.4 1.9-1.4 3.1v39c0 1.2.4 2.2 1.3 3 .9 1 2 1.4 3.1 1.4h1v.7h-15.4v-.7h1zM293.3 224.4c-3 3.8-4.4 8-4.4 12.5 0 5.4 2.2 9.5 6.7 12.5 2.6 1.7 5.6 2.6 9 2.6a18 18 0 008.6-2c4.6-2.3 7.2-6.3 7.8-12v-1.2a16 16 0 00-1.7-6.8c-1.2-2.4-3-4.7-5.7-6.7L298.3 211c-3.4-2.6-5-6-5-10.1 0-4.2 1.3-7.7 4-10.5A14 14 0 01308 186c2.3 0 4.7.3 7.4.9h3.4l.2 10.5h-.9c0-2.8-1-4.9-3-6.5a11 11 0 00-7-2.3 9.8 9.8 0 00-10.2 10.2c0 3 1.3 5.5 3.8 7.5l15.8 12.4c6.2 5 9.3 11 9.3 18 0 5.2-2 9.7-6.2 13.4a20.5 20.5 0 01-14.3 4.9 22 22 0 01-9.7-2 16.5 16.5 0 01-9.7-12.9l-.2-3.4a19.8 19.8 0 015.8-13l.7.6zM39 268.4c2.3 2.3 3.4 5.2 3.4 8.9 0 3.6-1.1 6.6-3.4 8.8a12.4 12.4 0 01-9 3.4H18v-.3h.5c.6 0 1-.3 1.5-.7.4-.4.7-1 .7-1.5v-19.6c0-.5-.2-1-.7-1.4-.4-.4-1-.6-1.5-.6H18v-.3H30c3.7 0 6.8 1.1 9 3.3zm-16-2.3v22.4h7a9.4 9.4 0 008.7-5.3c.7-1.7 1.1-3.7 1.1-5.9 0-3.4-.9-6-2.7-8.1-1.8-2-4.2-3-7.2-3h-6.8zM67.5 265.4H67c-.4 0-.9.2-1.2.5-.4.3-.6.7-.6 1.2v13.8c0 2.7-.9 5-2.6 6.6a9.4 9.4 0 01-6.9 2.5c-2.8 0-5.1-.8-6.9-2.5A8.6 8.6 0 0146 281v-13.7c0-.7-.3-1.2-.9-1.5a2 2 0 00-1-.3h-.5v-.3h7.1v.3h-.6c-.5 0-.9.2-1.3.5-.3.3-.5.7-.5 1.2v13.3a9 9 0 002 6.2 6.9 6.9 0 005.5 2.3c2.3 0 4.1-.7 5.5-2.2a8 8 0 002.2-5.8v-13.8c0-.5-.3-.9-.6-1.2-.4-.3-.8-.4-1.3-.4H61v-.4h6.5v.3zM88 268.2c0-.6-.2-1-.5-1.5a2 2 0 00-1.4-.6h-6.7V287c0 .6.3 1.1.7 1.5.5.4 1 .7 1.6.7h.4v.3h-7.6v-.3h.4c.6 0 1.2-.3 1.6-.7.4-.4.7-.9.7-1.5v-21h-6.7a2 2 0 00-1.4.7 2 2 0 00-.5 1.5v.6h-.4v-4.4a14.7 14.7 0 004.2.6h11.8a13.1 13.1 0 004.2-.6v4.4H88v-.6zM109.8 289.2h.3v.3h-7.8v-.3h.3c.5 0 .8-.2 1-.5.3-.3.4-.6.4-.9l-.1-.8-2.2-6h-9.4l-2.4 6-.1.8.3.9c.3.3.7.4 1.1.4h.4v.4h-7v-.4h.3a3 3 0 001.7-.5c.5-.4 1-1 1.3-1.7l8-18.7c.8-2 1.2-3.1 1.2-3.6h.3l9.3 22.3c.4.8.8 1.3 1.4 1.7a3 3 0 001.7.6zM92.7 280h8.5l-4.1-11.2-4.4 11.2zM142 265.4a2 2 0 00-1.5.6c-.4.4-.6 1-.6 1.5v18c0 1.4 0 2.7.2 3.9v.6h-.2l-19-20.3V287a2 2 0 002.1 2h.7v.4h-7.2v-.3h.6c.6 0 1.1-.2 1.5-.7.5-.4.7-.9.7-1.5v-18c0-1.5-.1-2.8-.3-3.9v-.6h.3l19 20.4v-17.3c0-.7-.2-1.2-.7-1.6a2 2 0 00-1.4-.6h-.7v-.3h7.2v.3h-.7zM168.1 265.4h-.6c-.4 0-.9.2-1.2.5-.4.3-.6.7-.6 1.2v13.8c0 2.7-.9 5-2.6 6.6a9.4 9.4 0 01-6.9 2.5c-2.8 0-5.1-.8-7-2.5a8.6 8.6 0 01-2.6-6.6v-13.7c0-.7-.3-1.2-.9-1.5a2 2 0 00-1-.3h-.5v-.3h7v.3h-.5c-.5 0-1 .2-1.3.5-.3.3-.5.7-.5 1.2v13.3a9 9 0 002 6.2 6.9 6.9 0 005.5 2.3c2.3 0 4.1-.7 5.5-2.2a8 8 0 002.2-5.8v-13.8c0-.5-.3-.9-.6-1.2-.4-.3-.8-.4-1.3-.4h-.6v-.4h6.5v.3zM170.2 288a11 11 0 01.5-4.8h.3v.8a5 5 0 001.2 3.5c.9 1 2 1.5 3.4 1.5a5 5 0 003.7-1.4c.9-.8 1.4-2 1.4-3.3 0-1.3-.5-2.4-1.4-3.3l-6.7-6.2a5.6 5.6 0 01-1.9-4.2c0-1.6.6-3 1.7-4.2a5.9 5.9 0 014.5-1.8l3 .3h1.3v4.3h-.3c0-1-.4-2-1.1-2.6-.8-.6-1.7-1-3-1-1.1 0-2.1.4-2.9 1.2a4 4 0 00-1.2 3 4 4 0 001.4 3l6.9 6.4c1.1 1 1.7 2.5 1.7 4.4 0 1.9-.6 3.4-1.8 4.6a6.4 6.4 0 01-4.7 1.8c-1 0-2.1-.2-3.3-.5-1.2-.3-2-.8-2.7-1.4zM208 289.2h.2v.3h-7.8v-.3h.3c.5 0 .8-.2 1-.5.3-.3.4-.6.4-.9l-.1-.8-2.2-6h-9.5l-2.3 6-.1.8c0 .3 0 .6.3.9.3.3.7.4 1.1.4h.3v.4h-7v-.4h.3a3 3 0 001.8-.5c.5-.4 1-1 1.3-1.7l7.9-18.7c.9-2 1.3-3.1 1.3-3.6h.3l9.3 22.3c.4.8.8 1.3 1.4 1.7a3 3 0 001.7.6zm-17.2-9.2h8.5l-4.1-11.2-4.4 11.2z" fill="#A57856"/><path d="M233.2 265.4a2 2 0 00-1.5.6c-.5.4-.7 1-.7 1.5v18c0 1.4 0 2.7.2 3.9l.1.6h-.3l-19-20.3V287c0 .5.2 1 .6 1.4.4.4 1 .7 1.5.7h.7v.3h-7.2v-.3h.7c.5 0 1-.2 1.5-.7.4-.4.6-.9.6-1.5v-18c0-1.5 0-2.8-.3-3.9v-.6h.3l19 20.4v-17.3a2 2 0 00-2.2-2.1h-.6v-.4h7.2v.3h-.7zM254.1 268.2c0-.6-.2-1-.6-1.5a2 2 0 00-1.3-.6h-6.7V287c0 .6.3 1.1.7 1.5.4.4 1 .7 1.6.7h.4v.3h-7.6v-.3h.4c.6 0 1.2-.3 1.6-.7.4-.4.6-.9.7-1.5v-21h-6.7a2 2 0 00-1.4.7 2 2 0 00-.5 1.5v.6h-.4v-4.4a14.7 14.7 0 004.2.6h11.8a13.1 13.1 0 004.2-.6v4.4h-.4v-.6zM276 289.2h.2v.3h-7.8v-.3h.3c.5 0 .8-.2 1-.5.3-.3.4-.6.4-.9l-.1-.8-2.2-6h-9.4l-2.4 6-.1.8.3.9c.3.3.7.4 1.2.4h.3v.4h-7v-.4h.3a3 3 0 001.7-.5c.5-.4 1-1 1.3-1.7l8-18.7c.8-2 1.2-3.1 1.2-3.6h.3l9.4 22.3c.3.8.7 1.3 1.3 1.7a3 3 0 001.7.6zm-17.2-9.2h8.6l-4.2-11.2-4.4 11.2z" fill="#A57856"/><path d="M283.3 266.2h-2.2V287c0 .6.2 1 .6 1.5.4.4 1 .6 1.6.6h.4v.4h-7.6v-.4h.5c.6 0 1.1-.2 1.5-.6.5-.4.7-1 .7-1.5v-19.4c0-.6-.2-1.1-.7-1.5-.4-.5-1-.7-1.5-.7h-.5v-.3h9.4c2.2 0 3.8.6 5 1.7a6 6 0 011.8 4.6c0 1.9-.5 3.5-1.7 4.9a5.3 5.3 0 01-4.2 2l1.3 1 1.2 1.5a72.6 72.6 0 005.2 6.6 10.3 10.3 0 001.8 1.3c.6.3 1.4.5 2.1.5v.3h-1.9c-1 0-2-.2-2.8-.5l-2-1.1-1-1.2a67.1 67.1 0 01-5.1-7l-.7-1c-.8-.7-1.5-1.1-2.3-1.1v-.4h1.8c3 0 4.8-1.2 5.5-3.6.2-.5.2-.9.2-1.3v-.8c0-1.5-.4-2.8-1.2-3.7a4 4 0 00-3-1.6h-2.2z" fill="#A57856"/><path d="M319.8 289.2h.3v.3h-7.9v-.3h.4c.4 0 .8-.2 1-.5.3-.3.4-.6.4-.9l-.1-.8-2.3-6h-9.4l-2.3 6-.1.8c0 .3 0 .6.3.9.3.3.6.4 1.1.4h.3v.4h-7v-.4h.3a3 3 0 001.8-.5c.5-.4 1-1 1.3-1.7l7.9-18.7c.8-2 1.3-3.1 1.3-3.6h.3l9.3 22.3c.4.8.8 1.3 1.4 1.7a3 3 0 001.7.6zm-17.2-9.2h8.6l-4.1-11.2-4.5 11.2z" fill="#A57856"/><path d="M60 125.7a8.5 8.5 0 100 17 8.5 8.5 0 000-17zm0 14.5a6 6 0 110-12 6 6 0 010 12zM270 142.7a8.5 8.5 0 100-17 8.5 8.5 0 000 17zm0-14.5a6 6 0 110 12 6 6 0 010-12zM122.1 31a4.2 4.2 0 100-8.4 4.2 4.2 0 000 8.4zm0-5.9a1.7 1.7 0 010 3.4 1.7 1.7 0 010-3.4zM130.2 20.7a4.2 4.2 0 100-8.5 4.2 4.2 0 000 8.5zm0-6a1.7 1.7 0 010 3.4 1.7 1.7 0 010-3.4zM208 31.4a4.2 4.2 0 10-.1-8.5 4.2 4.2 0 000 8.5zm0-6a1.7 1.7 0 010 3.4 1.7 1.7 0 010-3.3zM199.9 21a4.2 4.2 0 100-8.4 4.2 4.2 0 000 8.4zm0-6a1.7 1.7 0 010 3.5 1.7 1.7 0 010-3.4z" fill="#5C7F4C"/><path d="M2.6 176h119.2l.2-1.1c3.5-25.2 21.7-43.5 43-43.5 21.4 0 39.5 18.3 43 43.5l.2 1H330C320.8 77.2 250.3 0 165 0S9.2 77.1 0 176h2.6zm36.6-2.6a8.5 8.5 0 00-1.7-15.8c5.8-8 22.5-4.6 24.3-4.2L68 157l2 1.3c14.3 8.6 28 13.6 41.7 15.1H39.2zm-3.7-1.6a6 6 0 110-12 6 6 0 010 12zm182.8 1.6c13.7-1.5 27.4-6.5 41.6-15.1l2.1-1.3 6.1-3.6c1.9-.4 18.5-3.8 24.3 4.2a8.5 8.5 0 00-1.6 15.8h-72.5zm70.3-7.6a6 6 0 1111.9 0 6 6 0 01-12 0zm38.6 7.6h-29a8.5 8.5 0 00-3-16c-4-7.4-14-8-20.8-7.5 10-5.2 20.8-8.9 31.8-6v.9a8.5 8.5 0 0016.7 2.2c2 8.6 3.4 17.4 4.3 26.4zm-18.5-28.6a6 6 0 1112 0 6 6 0 01-12 0zM282 61.6A206 206 0 01321 139a8.5 8.5 0 00-14 2.5 40 40 0 00-25.3 2.3 69 69 0 0013.8-49.5l-2.5.3c3 32.9-16.5 51.4-16.7 51.6-5.4 2.6-10.5 5.7-15.5 8.7l-2 1.2a133 133 0 01-5.7 3.2c7-7.2 13.4-16.4 13.7-17l-2-1.4c-.2.2-11.6 16.7-20 22.5a88 88 0 01-34.6 8c-.8-4-2-7.9-3.4-11.5 2.4-2 4.8-4.4 7.3-7a53 53 0 0016-5.1l.7-.3a72.6 72.6 0 0032.5-26.2 108 108 0 0017.2-39c1.6-7.4 2.1-14.4 1.6-20.7zm-54.5 77c3.8-4.1 7.6-8.5 11.3-12.8H252v-2.6h-11.2l9.4-11.4 13.7-2.2-.4-2.5-11 1.8c11.1-13.7 19-24.3 19.2-24.5l-2-1.5c-.2.2-8 10.6-18.9 24.2V90h-2.5v20.1a870 870 0 01-9 10.8v-14.9H237V124l-11 12.6v-15.2h-2.6v18c-3.5 4-7 7.6-10.4 11h-.3a56.7 56.7 0 013.4-37.4c3.8-8.6 10-16 17.8-21.2 5.7-3.8 11.8-7 17.6-10.3 9.6-5.2 19.6-10.7 28.1-18.3.3 5.7-.2 12-1.6 18.6a105.6 105.6 0 01-16.8 38 70 70 0 01-31.5 25.3l-.7.3a86.5 86.5 0 01-12 4.5c2.8-2.7 5.5-5.7 8.3-8.7h8.6v-2.5h-6.4zM249 30.5a172.5 172.5 0 0131.1 28.9l-.3.3c-8.8 8.3-19.3 14.1-29.6 19.7-5.8 3.2-12 6.6-17.7 10.4a51 51 0 00-18.7 22.3c-5.8 13.2-7 27-3.5 39 .1.6.4 1 .8 1.3l-5.5 5.2a50.1 50.1 0 00-21.9-24c.2-5.6 3.2-32.4 39.8-64a53.7 53.7 0 0117.5-5c5.6-.7 19.4-5.5 19.9-14 .1-2-.6-3.6-2-4.8-3.1-2.6-9-2.3-12.1-1.5-2.9.7-5.8 2-8.6 3.8 2.3-3.7 4.4-7.4 5.9-10.8l.6.1a4.9 4.9 0 004.3-7zM231.8 51c-.8 1.8-1.7 3.6-2.8 5.5a90.8 90.8 0 00-4.1 5.7 56.6 56.6 0 00-2.3-14.4c-1.8-5.8-1.7-18.1 3.7-20.8.5-.2 1-.4 1.6-.4.4 0 1 .1 1.4.4 2.5 1.3 4.3 5.9 4.7 8.7a30 30 0 01-2.2 15.3zm15.6-4.5c1.2-.3 2.6-.5 4.2-.5 2.1 0 4.3.4 5.7 1.5.8.7 1.1 1.6 1 2.8-.3 6-11.6 10.9-17.6 11.5a56.5 56.5 0 00-14 3.4l7.3-10.5.1-.2c3.9-3.9 8.7-6.8 13.3-8zm-.4-14.2c0 1.3-1 2.4-2.4 2.4a2.3 2.3 0 112.4-2.4zm-2-4.8h-.4a4.9 4.9 0 00-2.9 8.7c-1.5 3.3-3.7 7.1-6 11 1-4.1 1.4-8.2.8-12-.5-3.1-2.5-8.6-6-10.5a5.7 5.7 0 00-5.4 0c-7.5 3.7-6.7 18.4-5 23.8a53.8 53.8 0 012.2 17.7l-.6.8-.7 1.2c-34.9 30.5-39.3 56.2-39.8 64a40 40 0 00-15-3.4v-8.3A116 116 0 01183 85.4a12.1 12.1 0 009.7.8 11 11 0 007.2-8.6l3.3-18.8-18.6 4.3c-4 1-7 3.8-8.2 7.6a12.1 12.1 0 004.3 13.2l.2.1a132 132 0 00-14.6 28V76a41 41 0 0112-19.7c2.9-2.4 7-3.5 11-4.5 2.6-.7 5.4-1.4 7.8-2.5 4.4-2.1 7.3-6 7.3-10 0-3.7-2.3-7-6.5-9-4-2.1-8.4-.2-10.6 2.6-2.1 2.8-1.9 6.3.6 9a5.8 5.8 0 005.8 1.7c1.8-.5 3.2-1.7 3.6-3.3.2-.9.2-2.6-1.8-4.4l-1.7 1.9c.5.4 1.2 1.2 1 2-.1.5-.8 1.1-1.7 1.3-1.3.4-2.5 0-3.3-1a4.2 4.2 0 01-.4-5.7c1.5-2 4.7-3.3 7.4-1.9 3.3 1.7 5.1 4 5 6.8 0 3-2.3 6-5.8 7.7-2.2 1-4.7 1.7-7.3 2.4a28.8 28.8 0 00-12 5 42 42 0 00-10.4 14.3V48.6a17 17 0 0014.5-9.3c2.5-5 2.2-11-1-15.7L166 2.6c28.7.2 55.7 9.2 79.2 25zM191.5 70c0 .1-4 4.7-9 12a9 9 0 01-1.2-1.1 9.6 9.6 0 01-2.3-9.5c.9-3 3.2-5.1 6.3-5.8L200 62l-2.6 15c-.6 3.1-2.6 5.6-5.6 6.7-2.4.9-5 .7-7.4-.5 5-7 8.8-11.5 8.9-11.6l-1.9-1.7zm-13.7-45c2.7 4 3 8.9.8 13.1a14.5 14.5 0 01-12.2 8V28.9h-2.6V46c-5.4-.4-10-3.3-12.2-8a13 13 0 01.8-13L165 5.7 177.7 25zM164.1 2.6l-14 21a15.5 15.5 0 00-.9 15.7 17 17 0 0014.5 9.3v19.8a41.8 41.8 0 00-10.4-14.2c-3.2-2.8-7.7-4-12-5.1-2.6-.7-5.1-1.4-7.3-2.4-3.5-1.6-5.8-4.7-5.8-7.7 0-2.7 1.7-5.1 5-6.8 2.7-1.3 6 0 7.5 2 .6.8 1.9 3.2-.4 5.7-.9 1-2.1 1.3-3.4 1-.8-.2-1.6-.8-1.7-1.4-.2-.8.6-1.6 1-2l-1.6-1.9c-2.1 1.8-2 3.6-1.8 4.4.3 1.6 1.7 2.8 3.5 3.3 2.2.6 4.3 0 5.8-1.7 2.5-2.7 2.7-6.1.6-9-2.1-2.8-6.6-4.7-10.6-2.6-4.2 2-6.5 5.3-6.5 9 0 4 2.9 7.9 7.4 10 2.3 1.1 5 1.8 7.7 2.5 4 1 8.1 2.1 11 4.6a41 41 0 0112 19.6v36.1A132.4 132.4 0 00149.1 84l.2-.1.7-.7.7-.6c3-3.3 4.2-7.8 2.9-12a11 11 0 00-8.2-7.5L127 58.8l3.3 18.8a11 11 0 007.1 8.5 11.8 11.8 0 009.7-.7c6.3 9.3 13.6 22.1 16.8 35.1v8.4a40 40 0 00-15.7 3.7c-.3-7.5-4.4-33.5-39.7-64.3l-.8-1.2-.5-.8a49.5 49.5 0 012.2-17.7c1.6-5.5 2.5-20-5-23.8a5.7 5.7 0 00-5.4 0c-3.6 1.9-5.6 7.3-6 10.6-.6 3.7-.3 7.8.7 11.8-2.3-3.8-4.4-7.6-6-11 1.2-.8 2-2.2 2-3.8 0-2.6-2-4.7-4.6-4.8a142.7 142.7 0 0179.1-25zm-18.5 80.7a9.3 9.3 0 01-7.4.5c-3-1.1-5-3.6-5.5-6.6l-2.7-15 14.9 3.4c3 .7 5.4 2.9 6.3 5.9 1 3.2.1 6.7-2.4 9.4l-.5.5-.6.6c-5-7.3-9-11.9-9-12l-2 1.7c.1.1 4 4.6 8.9 11.6zm-45.3-26.7c-1-1.9-2-3.7-2.7-5.5a30 30 0 01-2.2-15.3c.4-2.8 2.1-7.4 4.7-8.7a3 3 0 011.4-.4c.5 0 1 .2 1.6.4 5.4 2.7 5.5 15 3.7 20.8a56.6 56.6 0 00-2.3 14.5c-1.3-2-2.7-4-4.2-5.8zm2.3 8.7a55.5 55.5 0 00-14-3.4c-6-.6-17.3-5.5-17.6-11.5 0-1.2.3-2.1 1.1-2.8 1.3-1 3.5-1.5 5.7-1.5 1.5 0 3 .2 4.1.5 4.6 1.2 9.5 4.1 13.3 8l.2.2 7.2 10.5zM84.7 30a2.3 2.3 0 010 4.7 2.3 2.3 0 010-4.7zm-4.6 1l-.2 1.3c0 2.7 2.1 4.9 4.8 4.9h.6c1.5 3.3 3.6 7 5.8 10.7a29.2 29.2 0 00-8.5-3.8c-3.2-.8-9-1.1-12 1.4a5.7 5.7 0 00-2.1 5c.4 8.4 14.2 13.2 19.9 13.8a54 54 0 0117.5 5c37.3 32.4 39.6 59.7 39.7 64.4a50.3 50.3 0 00-21 23.2 189 189 0 01-5-4.7c.5-.3.8-.7.9-1.2 3.5-12 2.2-26-3.5-39.1-4-9.1-10.4-16.8-18.8-22.3-5.7-3.9-11.8-7.2-17.7-10.4C70.3 73.7 59.7 67.9 51 59.6l-.8-.7c9-10.6 19-20 29.9-27.9zm24.7 90.3v15.2a578 578 0 01-11-12.6V106h-2.5V121l-9-10.8v-20H80V107A899.5 899.5 0 0161 82.8l-2 1.5c.2.3 8 10.9 19 24.6L67.2 107l-.4 2.5 13.8 2.2 9.4 11.4H78.7v2.5H92l11.3 13h-6.4v2.5h8.6c2.8 3 5.5 6 8.2 8.7-2.4-.7-6.2-2-12-4.5l-.6-.3a70 70 0 01-31.5-25.3c-8.1-11.6-14-24.8-16.8-38-1.4-6.7-2-13-1.6-18.6 8.5 7.6 18.5 13 28 18.3 6 3.2 12 6.5 17.6 10.3 8 5.2 14.1 12.5 17.9 21.2 5.4 12.4 6.6 26 3.4 37.3h-.3c-3.4-3.3-7-7-10.5-10.9v-18h-2.5zm-56-60.8c-.6 6.6-.1 13.9 1.5 21.7a108 108 0 0017.3 39 72.6 72.6 0 0032.5 26.2l.7.3c7.7 3.4 12.9 5 16 5.2 2.3 2.3 4.5 4.5 6.8 6.4a62.1 62.1 0 00-3.6 12 88 88 0 01-34.6-8 118 118 0 01-20-22.5l-2.1 1.4c.4.6 6.8 9.8 13.7 17l-5.6-3.2-2.1-1.2c-5-3-10.1-6.2-15.5-8.7a64.4 64.4 0 01-16.7-51.6l-2.5-.3a69 69 0 0013.8 49.5 40 40 0 00-25.3-2.3 8.5 8.5 0 00-14-2.6c8-29.8 21.7-56.5 39.7-78.3zm-27.5 84.2a6 6 0 11-12 0 6 6 0 0112 0zM7 147a8.5 8.5 0 0016.6-3.2c11-2.9 21.8.8 31.9 6-6.9-.5-16.9.1-21 7.5a8.5 8.5 0 00-2.9 16H2.8c1-9 2.4-17.7 4.3-26.3z" fill="#5C7F4C"/></svg>