<svg width="556" height="487" viewBox="0 0 556 487" fill="none" xmlns="http://www.w3.org/2000/svg"><path d="M136.3 439.6a40.4 40.4 0 01-41.4-33.1 54.4 54.4 0 01-33.5 10.3A59 59 0 0133 410a51 51 0 01-27.4-45.6A50.8 50.8 0 0133 319.1c8.6-4.3 18-6.6 28.7-6.6 13.2 0 24.8 3.3 34.7 9.6l2.8 20.3H98a30.5 30.5 0 00-19.5-22.6c-5-2-10.6-3-17-3-13 0-23.6 4.6-32.2 13.4a47 47 0 00-13 34.2 47 47 0 0013 34.2 42.4 42.4 0 0032.2 13.7 46.2 46.2 0 0032.2-12.4v-25.4c0-2-.5-3.8-1.7-4.8-1.3-1-3-1.7-5.4-1.7h-2.3v-1.6h28.2v1.6h-2c-2.3 0-4.3.5-5.6 1.7-1.3 1-1.8 2.8-1.8 4.8v22c.5 15.3 5.6 26 14.7 32.5 6.6 4.5 15 6.8 25.4 6.8a95 95 0 0014-1.2l.2 1.5a72 72 0 01-21 3.5z" fill="#fff"/><path d="M120 413.6c2 0 3.8-.8 5.4-2.3a7.3 7.3 0 002.2-5.3V340c0-1.8-.7-3.5-2.2-4.8a8.2 8.2 0 00-5.4-2h-1.5V332H153a43.5 43.5 0 0014-2.3v15h-1.3v-2a7 7 0 00-2-4.9 6.4 6.4 0 00-4.6-2h-24v36.5h20c1.5 0 2.7-.8 4-1.8a6 6 0 001.8-4v-1.8h1.3v18.5h-1.3v-1.8c0-1.5-.5-2.8-1.5-4-1-1-2.3-1.8-4-1.8h-20.1v35.2h17c5.8 0 10.1-1.3 13.4-3.8 3-2.6 5.6-6.4 7.6-11.7h1.3l-6.9 19h-49.2V413h1.5v.6zM265.4 333.5c-2 0-3.5.8-5 2a6.4 6.4 0 00-2.3 5.1v60.8c0 4.5.2 8.8.7 12.9l.3 2h-1l-64.5-68.6v58.8c0 2 .8 3.5 2 5 1.6 1.3 3.1 2 5.1 2h2.3v1.3h-24.3v-1.3h2.2c2 0 3.6-.7 5.1-2 1.5-1.3 2-3 2-5v-61c0-4.9-.2-9.2-.7-13l-.3-1.8h1.3l64.5 68.7v-58.5c0-2-.8-3.8-2.3-5.1-1.6-1.3-3-2-5.1-2H243v-1.3h24.4v1.3h-2v-.3zM343.6 343.6a39.4 39.4 0 0111.7 30c0 12.3-3.8 22.2-11.7 29.8a42.2 42.2 0 01-30.7 11.4h-40.1v-1.3h1.5c2 0 3.8-.7 5.3-2.2a7.3 7.3 0 002.3-5.4v-65.8c0-1.8-.7-3.6-2.3-4.8a8.2 8.2 0 00-5.3-2h-1.5V332h40c12.8.2 23 4 30.8 11.6zm-53.8-7.8v75.5h23.3c6.6 0 12.5-1.6 17.6-4.9 5-3 9-7.6 11.9-13.1a43.6 43.6 0 004.3-19.8c0-11.4-3-20.5-9.4-27.3a31.1 31.1 0 00-24.4-10.4h-23.3zM417.4 413.6c2 0 3.8-.8 5.4-2.3 1.5-1.5 2.3-3 2.3-5v-30.5h-48.3v30.4c0 2 .8 3.8 2.3 5a7 7 0 005.4 2.1h1.5v1.3h-26v-1.3h1.6c2 0 3.8-.8 5.3-2 1.6-1.5 2.3-3 2.3-5v-65.7c0-2-.7-3.8-2.3-5a7 7 0 00-5.3-2h-1.5v-1.3h25.6v1.2h-1.5c-2 0-3.8.8-5.3 2a6.7 6.7 0 00-2.3 5.1v31.7h48.2v-31.4c0-2.8-1.3-5-3.8-6.4-1.3-.5-2.5-1-3.8-1h-1.5v-1.2h25.9v1.2H440c-2 0-3.8.8-5.3 2.3a7.3 7.3 0 00-2.3 5.3v65.4c0 2 .8 3.8 2.3 5a7 7 0 005.3 2h1.6v1.3h-26v-1.3h1.8zM451.4 413.6c2 0 3.9-.8 5.4-2.3a7.3 7.3 0 002.3-5.3v-65.4c0-2-.8-3.8-2.3-5a7 7 0 00-5.4-2H450v-1.3h26v1.2h-1.6c-2 0-3.8.8-5.3 2a6.7 6.7 0 00-2.3 5.1V406c0 2 .7 3.8 2.3 5.3a7.3 7.3 0 005.3 2.3h1.5v1.2H450v-1.3h1.5zM494 376.6c-5 6.6-7.3 13.4-7.3 21a24 24 0 0011.4 21c4.3 3 9.4 4.6 15 4.6a29 29 0 0014.5-3.3c7.8-4 12.2-10.7 13-20.3l.2-2c0-3.6-1-7.4-3-11.4-2.1-4-5.2-7.9-9.7-11.4l-26-20.3a20.6 20.6 0 01-8.3-17c0-7 2.3-12.8 6.9-17.7a24.1 24.1 0 0118.2-7.3c3.8 0 8 .5 12.5 1.5h5.8l.3 17.7h-1.6c0-4.5-1.7-8-5-10.8a19 19 0 00-12.2-4 16.6 16.6 0 00-17 17.2c0 5 2 9 6.3 12.3l26.7 21a37.5 37.5 0 0115.7 30.2c0 8.9-3.5 16.2-10.4 22.5-6 5.3-14 8.1-24.1 8.1-6 0-11.7-1.2-16.2-3.5a28.1 28.1 0 01-16.3-21.5c-.2-1.6-.5-3.6-.5-5.9 0-2.2.8-5.5 2-9.6a30 30 0 018-12.1l1.2 1zM65.7 450.5a20 20 0 015.9 15c0 6-2 11.1-5.9 15a20.5 20.5 0 01-15.2 5.5h-20v-.5h.7c1 0 1.8-.3 2.6-1 .7-.8 1-1.6 1.2-2.6V449c0-1-.5-1.8-1.2-2.3-.8-.7-1.6-1-2.6-1h-.7v-.5h19.7c6.4-.2 11.5 1.5 15.5 5.3zm-26.9-3.8v37.5h11.7c3.3 0 6-.7 8.6-2.3 2.6-1.5 4.6-3.8 5.9-6.6 1.2-2.7 2-6 2-9.8 0-5.6-1.5-10.2-4.6-13.7a15 15 0 00-12.2-5H38.8zM113.7 445.5h-1c-.8 0-1.5.2-2 .7-.6.5-1 1.3-1 2v23.4c0 4.5-1.6 8.3-4.4 11a16.1 16.1 0 01-11.7 4.4c-4.8 0-8.6-1.5-11.6-4.3s-4.6-6.6-4.6-11.1v-23c0-1.4-.5-2.1-1.5-2.6-.5-.3-1-.3-1.5-.3h-1v-.5h11.9v.5h-1c-.8 0-1.6.3-2.3.8-.5.5-1 1.2-1 2v22.3c0 4.3 1.2 7.6 3.5 10.4 2.3 2.5 5.3 3.8 9.1 3.8s6.9-1.3 9.4-3.8c2.3-2.6 3.6-5.8 3.6-9.9v-23c0-.8-.3-1.6-1-2-.5-.6-1.3-.8-2.3-.8h-1v-.5h10.9v.5h.5zM148.2 450.3c0-1-.3-1.8-1-2.6-.8-.7-1.5-1-2.3-1h-11.2V482c0 1 .5 1.8 1.3 2.6.8.7 1.5 1 2.5 1h.8v.5h-13v-.5h.8c1 0 1.8-.3 2.6-1 .7-.8 1-1.6 1.2-2.6v-35.2h-11.1c-1 0-1.8.5-2.3 1-.8.8-1 1.6-1 2.6v1h-.5v-7.4c.5.3 1.5.5 3 .8 1.5.3 2.8.3 4 .3H142c2 0 3.5-.3 4.8-.6l2.3-.5v7.4h-.5v-1h-.3zM185 485.5h.5v.5h-13.2v-.5h.5c.8 0 1.5-.3 1.8-.8.5-.5.5-1 .5-1.5s0-1-.3-1.5l-3.8-10h-15.7l-3.8 10.2c-.3.5-.3 1-.3 1.3l.6 1.5c.5.5 1 .8 1.7.8h.5v.5h-11.6v-.5h.5c1 0 2-.3 2.8-1 .7-.8 1.7-1.6 2.2-2.8l13.2-31.4c1.6-3 2.3-5.1 2.3-6.1h.5l15.8 37.5c.5 1.2 1.2 2 2.3 2.7 1 .6 2 1 3 1zM156 470h14.5l-7-18.7L156 470zM239.3 445.5c-1 0-1.8.2-2.5 1-.8.7-1 1.5-1 2.5v30.1c0 2.3.2 4.3.5 6.4v1h-.6l-32-34.2v29.1c0 1 .3 1.8 1 2.6.8.7 1.6 1 2.6 1h1v.5h-12.1v-.5h1c1 0 1.8-.3 2.5-1 .8-.8 1-1.6 1-2.6V451c0-2.2-.2-4.5-.5-6.3v-1h.5l32 34.2v-29.1c0-1-.5-1.8-1-2.6-.8-.7-1.5-1-2.6-1h-1v-.5h12.2v.5h-1v.3zM283.2 445.5h-1c-.8 0-1.5.2-2 .7-.6.5-1 1.3-1 2v23.4c0 4.5-1.6 8.3-4.4 11a16.1 16.1 0 01-11.6 4.4c-4.9 0-8.7-1.5-11.7-4.3s-4.6-6.6-4.6-11.1v-23c0-1.4-.5-2.1-1.5-2.6-.5-.3-1-.3-1.5-.3h-1v-.5h11.9v.5h-1c-.8 0-1.6.3-2.3.8-.5.5-1 1.2-1 2v22.3c0 4.3 1.2 7.6 3.5 10.4 2.3 2.5 5.3 3.8 9.2 3.8 3.8 0 6.8-1.3 9.3-3.8 2.6-2.6 3.6-5.8 3.6-9.9v-23c0-.8-.3-1.6-1-2-.5-.6-1.3-.8-2.3-.8h-1v-.5h10.9v.5h.5zM286.8 483.4c0-.5-.3-1.5-.3-3s.3-3.3.8-5h.5v1.2a8 8 0 002.3 5.8 7.7 7.7 0 005.8 2.3c2.5 0 4.6-.7 6-2.3a7.4 7.4 0 002.4-5.5c0-2.3-.8-4-2.3-5.6l-11.2-10.4c-2-2-3-4.3-3-7 0-2.9 1-5.1 2.8-7.2 1.7-2 4.3-3 7.6-3 1.5 0 3 .2 5 .5h2.3v7h-1c0-1.7-.7-3.2-2-4.2a7.3 7.3 0 00-4.8-1.5c-2 0-3.6.7-5.1 2a7 7 0 00-2 5c0 2 .7 3.9 2.2 5.1l11.7 10.7c2 1.7 3 4.3 3 7.3s-1 5.6-3 7.6-4.6 3-7.9 3c-1.7 0-3.5-.2-5.5-.7-1.8 0-3.3-.8-4.3-2zM350.2 485.5h.5v.5h-13.2v-.5h.5c.8 0 1.5-.3 1.8-.8.5-.5.5-1 .5-1.5s0-1-.3-1.5l-3.8-10h-15.7l-3.8 10.2c-.3.5-.3 1-.3 1.3l.6 1.5c.5.5 1 .8 1.7.8h.5v.5h-11.6v-.5h.5c1 0 2-.3 2.8-1a5 5 0 002.2-2.8l13.2-31.4c1.6-3 2.3-5.1 2.3-6.1h.5l15.8 37.5c.5 1.2 1.2 2 2.3 2.7 1 .6 2 1 3 1zm-29-15.5h14.5l-7-18.7-7.4 18.7z" fill="#fff"/><path d="M392.6 445.5c-1 0-1.8.2-2.6 1-.7.7-1 1.5-1 2.5v30.1c0 2.3.3 4.3.5 6.4v1h-.5l-32-34.2v29.1c0 1 .3 1.8 1 2.6.8.7 1.6 1 2.6 1h1v.5h-12.2v-.5h1c1 0 1.8-.3 2.6-1 .8-.8 1-1.6 1-2.6V451c0-2.2-.2-4.5-.5-6.3v-1h.5l32 34.2v-29.1c0-1-.5-1.8-1-2.6-.8-.7-1.6-1-2.6-1h-1v-.5h12.2v.5h-1v.3zM427.8 450.3c0-1-.2-1.8-1-2.6-.7-.7-1.5-1-2.3-1h-11.1V482c0 1 .5 1.8 1.3 2.6.7.7 1.5 1 2.5 1h.7v.5H405v-.5h.8c1 0 1.7-.3 2.5-1 .8-.8 1-1.6 1.3-2.6v-35.2h-11.2c-1 0-1.8.5-2.3 1-.7.8-1 1.6-1 2.6v1h-.5v-7.4c.5.3 1.5.5 3 .8 1.6.3 2.8.3 4.1.3h19.8c2 0 3.6-.3 4.8-.6l2.3-.5v7.4h-.5v-1h-.3zM464.6 485.5h.6v.5H452v-.5h.5c.7 0 1.5-.3 1.7-.8.5-.5.5-1 .5-1.5s0-1-.2-1.5l-3.8-10H435L431 482c-.2.5-.2 1-.2 1.3 0 .2.2 1 .5 1.5.5.5 1 .8 1.8.8h.5v.5H422v-.5h.5c1 0 2-.3 2.8-1 .8-.8 1.8-1.6 2.3-2.8l13.2-31.4c1.5-3 2.3-5.1 2.3-6.1h.5l15.7 37.5c.5 1.2 1.3 2 2.3 2.7 1 .6 2 1 3 1zM435.7 470h14.5l-7.1-18.7-7.4 18.7z" fill="#fff"/><path d="M477 446.7h-3.7v35c0 1 .2 1.7 1 2.5s1.5 1 2.8 1h.7v.5H465v-.5h.8c1 0 1.7-.2 2.5-1s1-1.5 1.3-2.5v-32.4c0-1-.5-1.8-1.3-2.6-.8-.7-1.5-1-2.5-1h-.8v-.5h15.7c3.6 0 6.4 1 8.4 3s3 4.6 3 7.6-1 5.9-2.7 8.1a9.3 9.3 0 01-7.1 3.6c.5.2 1.2.7 2 1.5.7.8 1.5 1.5 2 2.5 3.3 4.8 5.6 7.9 6.6 8.9l2.3 2.3 1.5 1.2c.5.6 1 .8 1.5 1 1 .6 2.3.8 3.6.8v.5h-3.3c-1.8 0-3.3-.2-4.8-1-1.5-.5-2.6-1.3-3.3-1.8-.8-.5-1.3-1.2-1.8-1.7s-2-2.6-4.3-6.1c-2.3-3.6-3.8-5.3-4-5.8-.6-.5-.8-1-1.3-1.6-1.3-1.2-2.6-2-3.8-2v-.5h3c4.8 0 7.9-2 9.1-6a7 7 0 00.3-2.3V456a10 10 0 00-2-6.3 6.7 6.7 0 00-5.4-2.6c-.5-.5-1.5-.5-3-.5z" fill="#fff"/><path d="M538.5 485.5h.5v.5h-13.2v-.5h.5c.8 0 1.5-.3 1.8-.8.5-.5.5-1 .5-1.5s0-1-.3-1.5l-3.8-10h-15.7L505 482c-.3.5-.3 1-.3 1.3l.5 1.5c.6.5 1 .8 1.8.8h.5v.5H496v-.5h.5c1 0 2-.3 2.8-1a5 5 0 002.2-2.8l13.2-31.4c1.6-3 2.3-5.1 2.3-6.1h.5l15.8 37.5c.5 1.2 1.2 2 2.2 2.7 1 .6 2 1 3 1zm-29-15.5H524l-7-18.7-7.4 18.7zM101 211a14.2 14.2 0 100 28.3c7.9 0 14.2-6.3 14.2-14.2A14 14 0 00101 211zm0 24.3a10.2 10.2 0 1110.2-10.1c0 5.5-4.6 10-10.2 10zM454.7 239.6a14.2 14.2 0 100-28.4c-7.8 0-14.2 6.3-14.2 14.2-.2 7.8 6.1 14.2 14.2 14.2zm0-24.3c5.6 0 10.2 4.5 10.2 10a10.2 10.2 0 01-20.3 0c0-5.5 4.6-10 10.1-10zM205.6 52.2c3.8 0 7-3.3 7-7.1s-3.2-7.1-7-7.1a7.3 7.3 0 00-7.2 7c0 3.9 3.3 7.2 7.2 7.2zm0-10.2c1.5 0 2.7 1.3 2.7 2.8 0 1.5-1.2 2.8-2.7 2.8a2.8 2.8 0 01-2.8-2.8c0-1.5 1.2-2.8 2.8-2.8zM219.3 34.7c3.8 0 7-3.3 7-7.1s-3.2-7-7-7a7.3 7.3 0 00-7.2 7c0 3.8 3 7 7.2 7zm0-9.9c1.5 0 2.7 1.3 2.7 2.8 0 1.5-1.2 2.8-2.7 2.8a2.8 2.8 0 01-2.8-2.8c-.3-1.5 1-2.8 2.8-2.8zM350.2 52.7c3.8 0 7.1-3.3 7.1-7.1s-3.3-7.1-7.1-7.1a7.3 7.3 0 00-7.1 7c0 3.9 3 7.2 7 7.2zm0-10c1.5 0 2.8 1.4 2.8 2.9s-1.3 2.8-2.8 2.8a2.8 2.8 0 01-2.8-2.8c0-1.5 1.3-2.8 2.8-2.8zM336.5 35.2c3.8 0 7.1-3.3 7.1-7 0-3.9-3.3-7.2-7.1-7.2a7.3 7.3 0 00-7.1 7.1c0 3.8 3.3 7.1 7 7.1zm0-9.9c1.5 0 2.8 1.3 2.8 2.8 0 1.5-1.3 2.8-2.8 2.8a2.8 2.8 0 01-2.8-2.8c0-1.5 1.3-2.8 2.8-2.8z" fill="#fff"/><path d="M4.3 295.3H205l.3-1.8c6-42.3 36.5-73 72.6-73 36 0 66.5 30.7 72.6 73.3l.2 1.7H556C540.3 129.5 421.5 0 277.9 0 134.2 0 15.5 129.4 0 295.3h4.3zM66 291c4.8-2.3 7.8-7.1 7.8-12.7 0-6.6-4.5-12.1-10.9-14 10-13.3 37.8-7.5 40.9-7l10.4 6 3.5 2.1a172 172 0 0070 25.3L66 291zm-6.4-2.6c-5.5 0-10.1-4.5-10.1-10a10.2 10.2 0 0120.3 0c0 5.5-4.6 10-10.2 10zm308.1 2.6c23.1-2.6 46.2-11 70-25.4l3.6-2 10.4-6c3-.8 31.2-6.4 40.9 7a14.2 14.2 0 00-3 26.6H367.6v-.2zM486 278.3a10.2 10.2 0 0120.3 0 10.2 10.2 0 01-20.3 0zm65.2 12.7h-48.7c4.8-2.3 7.8-7.1 7.8-12.7 0-7.3-5.8-13.4-13-14.2-6.8-12.4-23.5-13.4-35.2-12.4 17-8.8 35-15 53.6-10.1v1.5a14.2 14.2 0 0028 3.8c3.4 14.2 5.7 29.1 7.5 44zM520 242.9a10.2 10.2 0 0120.3 0 10.2 10.2 0 01-20.3 0zm-45.2-139.6a345.2 345.2 0 0165.5 130 14.2 14.2 0 00-23.6 4.2 70.1 70.1 0 00-42.7 3.8c10-12.4 27.2-41 23.1-83l-4.3.5c5.3 55.2-27.6 86.3-28.2 86.6-9 4.3-17.7 9.6-26 14.7l-3.6 2-9.4 5.3c11.6-12.1 22.3-27.6 23-28.3l-3.5-2.6c-.2.3-19.5 27.9-33.7 37.8a149 149 0 01-58.2 13.4 113 113 0 00-5.5-19.3c4-3.5 8-7.3 12.4-11.6 5.3-.3 14-3 26.9-8.9l1-.5c23.1-9.6 40.6-23.8 54.8-43.8 14-20 24.1-42.5 29-65.6 3-12.4 4-24 3-34.7zm-91.6 129.4c6.3-7 12.7-14.4 19-21.8h22.4v-4.3h-18.8c5.6-6.5 10.9-12.9 15.7-19l23.1-3.7-.8-4.4-18.5 3c18.5-23 32-40.7 32.2-41.2l-3.3-2.5c-.2.5-13.4 18-31.7 40.7v-28.3h-4.3v33.7l-15 18.2v-25H399v29.8c-6 7.1-12.2 14.2-18.5 21.3v-25.6H376V234c-5.9 6.6-12 12.7-17.5 18.5-.3 0-.5-.3-.5-.3a95 95 0 015.8-62.5 83.6 83.6 0 0130-35.7c9.6-6.4 19.7-12 29.6-17.3 16.3-8.8 33-18 47.5-30.6.5 9.6-.5 20-2.8 31.2a178.8 178.8 0 01-28.4 64 116.5 116.5 0 01-53 42.3c-.3 0-.8.3-1.3.5a169 169 0 01-20 7.6A388 388 0 00379 237h14.5v-4.3h-10.4zM419.5 51c19 13.7 36.5 29.9 52.3 48.6l-.6.5c-14.7 14-32.4 23.6-49.7 33a399.6 399.6 0 00-30 17.4 86.9 86.9 0 00-31.4 37.5 97.5 97.5 0 00-5.8 65.6 4 4 0 001.5 2c-3 3-6.4 6.1-9.2 8.6a84.2 84.2 0 00-36.8-40.2c.3-9.4 5.4-54.5 67-107.4a96.3 96.3 0 0129.7-8.6c9.7-1 32.8-9.1 33.5-23.3.3-3.3-1-6.3-3.5-8.4-5.4-4.3-15-3.8-20.3-2.5a49.3 49.3 0 00-14.5 6.6 188 188 0 0010-18h1a8 8 0 008-8.1c-.5-1-.7-2.3-1.2-3.3zm-29.2 35c-1.3 3-2.8 6-4.6 9-2.5 3.1-4.8 6.4-7 9.7 0-2.5-.3-4.8-.3-5.8a91.5 91.5 0 00-3.6-18.5c-3-9.9-2.8-30.4 6.4-35 1-.5 1.7-.7 2.7-.7.8 0 1.6.2 2.3.5 4.3 2.3 7.4 9.9 7.9 14.7 1 8-.3 17.4-3.8 26zm26.4-7.6a27 27 0 016.8-.8c3.6 0 7.4.8 9.7 2.5 1.5 1.3 2 2.8 1.8 4.8-.6 10.2-19.6 18.3-29.7 19.3-6.4.7-12.5 2-18.6 3.8l-5 1.8c3-4.4 7.6-10.7 12.1-17.5l.3-.3a49.5 49.5 0 0122.6-13.6zm-.8-23.9c0 2-1.8 3.8-3.8 3.8-2 0-3.8-1.7-3.8-3.8 0-2 1.8-3.8 3.8-3.8 2 0 3.8 1.6 3.8 3.8zm-3.3-8h-.7a8 8 0 00-8.2 8c0 2.6 1.3 5.1 3.3 6.4-2.5 5.5-6 12.1-10.1 18.5a49.1 49.1 0 001.3-20c-.8-5.4-4.4-14.5-10.2-17.8a9.2 9.2 0 00-8.9 0c-12.7 6.4-11.1 30.7-8.6 40 1.8 5.9 2.8 11.7 3.6 17.8.2 3.5.5 9 .2 11.9-.3.5-.5 1-1 1.2l-1.3 2c-58.6 51.2-66.2 94.3-67 107.4A65.1 65.1 0 00280 216v-14a196 196 0 0128.2-59c3 1.6 6.3 2.6 9.6 2.6 2.3 0 4.6-.5 6.9-1.3 6.3-2.2 10.9-7.6 12.1-14.4l5.6-31.6-31.2 7a18.7 18.7 0 00-13.7 12.7 21 21 0 004.8 20l1 1c.6.3.8.8 1.3 1l.3.3a213.6 213.6 0 00-24.6 46.8v-59.5a70.7 70.7 0 0120.3-33.1c4.5-4 11.6-5.9 18.2-7.6 4.6-1.3 9.2-2.3 13.2-4.3 7.6-3.6 12.2-10 12.5-16.8 0-6.3-3.8-11.6-11-15.2a14.5 14.5 0 00-17.7 4.6 11.3 11.3 0 001 15.2c2.5 2.8 6 3.8 9.9 2.8 3-.8 5.3-3 6-5.6.3-1.5.6-4.3-3-7.3l-2.8 3.3c.8.7 2 2 1.8 3.3-.2 1-1.5 2-2.8 2.2-2 .5-4 0-5.5-1.5-4.1-4.3-1.8-8-.8-9.6 2.5-3.3 7.9-5.6 12.4-3.3 5.6 2.8 8.7 6.8 8.7 11.4 0 5-4.1 10.1-10 13-3.5 1.7-7.8 2.7-12.4 4a46 46 0 00-20 8.6 70.2 70.2 0 00-17.5 24V81.5A29 29 0 00305 65.8a26.4 26.4 0 00-1.5-26.3L280.2 4.1c47.7.5 93 15.7 132.4 42.2zm-90.3 71.1c-.3.3-6.9 7.9-15.2 20-.3-.2-.8-.5-1-.8l-1-1a16 16 0 01-3.9-15.7c1.5-5 5.6-8.6 10.7-9.8l24.8-5.9-4.5 25.4c-1 5-4.3 9.3-9.4 11.1-4 1.5-8.6 1.3-12.4-.8a192.7 192.7 0 0115-19.5l-3.1-3zM299.2 42a22 22 0 011.3 22 25.2 25.2 0 01-20.6 13.5V48.4h-4.3v28.8A23.9 23.9 0 01255 63.8a22 22 0 011.3-22l21.3-32.2L299.2 42zM276.4 4.3L253 39.8a25.8 25.8 0 00-1.5 26.3 29 29 0 0024.3 15.7v33.4a73.7 73.7 0 00-17.5-24c-5.3-4.8-13-6.6-20-8.6-4.6-1.3-8.6-2.3-12.4-4.1-6.1-2.8-10-7.8-10-13 0-4.5 3.1-8.5 8.7-11.3 4.6-2.3 9.9-.3 12.4 3.3 1 1.5 3.3 5.3-.7 9.6a5.7 5.7 0 01-5.6 1.5c-1.5-.5-2.8-1.2-2.8-2.3-.3-1.2 1-2.5 1.8-3.2l-2.8-3.3c-3.6 3-3.3 6-3 7.3.4 2.5 2.7 4.8 6 5.6 3.6 1 7.4 0 10-2.8 4-4.6 4.5-10.4 1-15.2-3.6-4.8-11-7.9-17.8-4.6-7.1 3.6-11 9-11 15.2 0 6.9 4.9 13.2 12.5 16.8 4 1.7 8.6 3 13.2 4.3 6.6 1.7 13.7 3.5 18.2 7.6a66.8 66.8 0 0120.4 32.9v60.5c-6.4-17.5-16-34.2-24.7-46.6l.3-.3c.5-.2.8-.7 1.3-1 .5-.2.7-.7 1-1 5-5.5 7-12.9 4.8-20-2-6.6-7.1-11.1-13.7-12.6l-31.7-7.1 5.6 31.6a18.6 18.6 0 0012.1 14.5c2.3.7 4.6 1.2 6.9 1.2a19 19 0 009.6-2.5 196 196 0 0128.2 59v14c-9.1.2-18 2.5-26.4 6.3-.8-12.7-7.6-56.3-67-108l-1.3-2c-.2-.5-.5-1-1-1.2a84.4 84.4 0 013.8-29.6c2.8-9.2 4.3-33.7-8.6-40-3-1.6-6-1.6-8.9 0-6 3-9.4 12.3-10.1 17.7-1 6.3-.5 13.1 1.2 20-3.8-6.4-7.6-12.7-10.1-18.5A8 8 0 00151 55a8 8 0 00-7.6-8.2c39-27 84.5-42.2 133-42.5zM245 139.8c-4 2-8.3 2.3-12.4.7a14.6 14.6 0 01-9.4-11l-4.6-25.4 25 5.8c5 1.3 9 4.8 10.6 9.9 1.7 5.6.2 11.4-3.8 15.7l-1 1-1 .8c-8.4-12.2-15.3-19.8-15.3-20L230 120c.5.5 7.1 8.1 15.2 19.8zm-76-44.8c-1.9-3-3.4-6.1-4.7-9.2-3.5-8.6-4.8-18-3.8-25.8.8-4.8 3.6-12.4 7.9-14.7.8-.5 1.5-.5 2.3-.5.7 0 1.8.3 2.8.8 9.1 4.5 9.1 25 6.3 35-1.8 6-3 12-3.5 18.4 0 .8-.3 3-.3 5.8-2.3-3.5-4.8-6.8-7-9.8zm3.7 14.4l-5-1.8c-6.2-2-12.2-3.3-18.6-3.8-10.1-1-29.2-9-29.7-19.2 0-2 .5-3.6 1.8-4.8a16 16 0 019.6-2.6c2.6 0 5.1.3 6.9.8A49 49 0 01160 91.4l.3.3c4.8 7.3 9.4 13.6 12.4 17.7zm-30.2-58.8c2 0 3.8 1.8 3.8 3.8 0 2-1.8 3.8-3.8 3.8-2 0-3.8-1.7-3.8-3.8 0-2.2 1.8-3.8 3.8-3.8zm-7.9 1.6c-.2.7-.5 1.5-.5 2.2a8 8 0 008.2 8.2h1a162 162 0 009.9 18c-4.6-3.1-9.7-5.4-14.5-6.7-5.3-1.2-15-1.7-20.3 2.6-2.5 2-3.5 4.8-3.5 8.3.7 14.2 24 22.3 33.5 23.3a85.4 85.4 0 0129.6 8.6c63 54.2 66.8 100 67 108.2a83.6 83.6 0 00-35.2 38.7c-2.8-2.5-5.6-5-8.4-7.8a4 4 0 001.5-2 97.5 97.5 0 00-5.8-65.6 86.9 86.9 0 00-31.5-37.5c-9.6-6.4-20-12-30-17.5-17.2-9.4-35-19-49.7-33l-1.5-1.4c15.2-17.8 32-33.5 50.2-46.6zm41.7 151.4v25.6c-6.4-6.9-12.5-14.2-18.6-21.3V178h-4.3v25.1l-15-18.2v-33.7h-4v28.6a1373.5 1373.5 0 01-31.7-40.8l-3.3 2.6c.2.5 13.7 18.2 32.2 41.2l-18.8-3-.7 4.3 23 3.8 15.8 19h-18.8v4.3h22.6c6 7.3 12.7 14.7 19 21.8h-10.6v4.3h14.4l13.7 14.7c-4-1-10.4-3.3-20-7.6a119.2 119.2 0 01-54.3-42.8 188 188 0 01-28.2-64.3A123.5 123.5 0 0186 106c14.5 12.7 31.2 21.8 47.5 30.7 9.9 5.3 20 10.8 29.7 17.2a82.2 82.2 0 0130 35.7 95 95 0 015.8 62.5s-.3 0-.6.3A413.5 413.5 0 01181 234v-30.4h-4.5zM82.2 101.8c-1 11.1-.2 23.3 2.6 36.5 4.8 22.8 15 45.6 28.9 65.6a121 121 0 0054.8 43.8l1 .5a91.7 91.7 0 0027 8.8c3.7 3.8 7.8 7.6 11.3 11-2.5 6.3-4.5 12.8-6 20-19.3-.3-38.6-4.9-58.4-13.5-14.2-9.9-33.5-37.5-33.8-37.7l-3.5 2.5c.5.8 11.4 16.5 23 28.4l-9.3-5.3-3.6-2c-8.4-5.1-17-10.2-26.1-14.8-.3-.2-33.3-31.1-28.2-86.6l-3.5-.7a116 116 0 0023 83 66.6 66.6 0 00-42.6-3.8c-2.3-5-7.3-8.8-13.2-8.8-4 0-7.6 1.8-10.4 4.3a347.8 347.8 0 0167-131.2zm-46.4 141a10.2 10.2 0 01-20.3 0c0-5.5 4.5-10 10.1-10 5.6.2 10.2 4.7 10.2 10zM11.9 247a14.5 14.5 0 0013.7 10.4c7.9 0 14.2-6.3 14.2-14.2v-1.5c18.6-4.8 36.8 1.3 53.6 10.1-11.7-1-28.4.3-35.3 12.4-7.3.8-13 6.9-13 14.2 0 5.6 3.4 10.4 8 12.7H4.2c2-15 4.3-29.7 7.6-44z" fill="#fff"/></svg>