<svg width="81" height="72" viewBox="0 0 81 72" fill="none" xmlns="http://www.w3.org/2000/svg"><path d="M19.9 64.1a5.9 5.9 0 01-6-4.8 8 8 0 01-5 1.5c-1.5 0-2.9-.4-4-1a7.4 7.4 0 01-4-6.7 7.4 7.4 0 014-6.6 9.2 9.2 0 019.2.4l.4 3h-.2a4.5 4.5 0 00-2.9-3.3c-.7-.3-1.5-.4-2.5-.4-1.8 0-3.4.7-4.6 2a6.9 6.9 0 00-2 5c0 2 .7 3.6 2 5 1.2 1.2 2.8 2 4.6 2a6.7 6.7 0 004.7-1.9v-3.7c0-.3 0-.5-.2-.7-.2-.1-.5-.3-.8-.3h-.3v-.2h4v.2h-.2c-.4 0-.6.1-.8.3-.2.2-.3.4-.3.7v3.2c0 2.2.8 3.8 2.2 4.7 1 .7 2.1 1 3.6 1l2-.1.1.2c-1 .3-2 .5-3 .5z" fill="#fff"/><path d="M17.5 60.3c.3 0 .5-.1.8-.3.2-.3.3-.5.3-.8v-9.6a1 1 0 00-.3-.7c-.3-.2-.5-.3-.8-.3h-.2v-.2h5a6.3 6.3 0 002-.3v2.2h-.2V50a1 1 0 00-.3-.7 1 1 0 00-.6-.3h-3.5v5.3h2.9l.6-.3.2-.6v-.2h.2v2.7h-.2v-.3c0-.2 0-.4-.2-.6a.8.8 0 00-.6-.2h-2.9v5h2.5a3 3 0 002-.5c.4-.3.8-.9 1-1.7h.2l-1 2.8h-7.1v-.2h.2zM38.7 48.6c-.3 0-.5.1-.8.3a1 1 0 00-.3.8v8.8l.1 1.9v.3h-.1l-9.4-10v8.6c0 .3.1.5.3.7.2.2.4.3.7.3h.4v.2H26v-.2h.4c.3 0 .5-.1.7-.3.2-.2.3-.4.3-.7v-9l-.1-1.8v-.3h.1l9.4 10v-8.5a1 1 0 00-.3-.7c-.2-.2-.5-.3-.8-.3h-.3v-.2H39v.2h-.3zM50 50.1a5.8 5.8 0 011.8 4.4c0 1.8-.6 3.2-1.7 4.3a6.1 6.1 0 01-4.5 1.7h-5.9v-.2h.3c.3 0 .5-.1.7-.3.3-.3.4-.5.4-.8v-9.6a1 1 0 00-.4-.7c-.2-.2-.4-.3-.7-.3h-.3v-.2h5.9c1.8 0 3.3.6 4.5 1.7zM42.3 49v11h3.4c1 0 1.8-.3 2.6-.7.7-.5 1.3-1.2 1.7-2 .4-.8.6-1.7.6-2.8 0-1.7-.4-3-1.3-4-1-1-2.1-1.5-3.6-1.5h-3.4zM60.8 60.3c.3 0 .6-.1.8-.3.2-.3.3-.5.3-.8v-4.4h-7v4.4c0 .3.1.6.3.8.3.2.5.3.8.3h.2v.1h-3.7v-.1h.2c.3 0 .5-.2.8-.3.2-.3.3-.5.3-.8v-9.5a1 1 0 00-.3-.8 1 1 0 00-.8-.3h-.2v-.2h3.7v.2H56c-.3 0-.6.1-.8.3a1 1 0 00-.3.8v4.6h7v-4.6a1 1 0 00-.6-1h-.7v-.3h3.7v.2h-.2a1 1 0 00-.8.4 1 1 0 00-.3.7v9.6c0 .3.1.5.3.7.2.2.5.3.8.3h.2v.2h-3.7v-.2h.2zM65.8 60.3c.3 0 .5-.1.7-.3.3-.3.4-.5.4-.8v-9.5a1 1 0 00-.4-.8 1 1 0 00-.7-.3h-.3v-.2h3.8v.2h-.2c-.3 0-.6.1-.8.3a1 1 0 00-.3.8v9.5c0 .3.1.5.3.8.2.2.5.3.8.3h.2v.2h-3.8v-.2h.3zM72 54.9c-.8 1-1 2-1 3 0 1.4.5 2.4 1.6 3.1.6.5 1.3.7 2.2.7.8 0 1.5-.2 2-.5a3.4 3.4 0 002-3V58a4.8 4.8 0 00-1.8-3.3l-3.8-3a3 3 0 01-1.3-2.5c0-1 .4-1.9 1-2.6.7-.7 1.6-1 2.7-1 .6 0 1.1 0 1.8.2h.9v2.6h-.2a2 2 0 00-.8-1.6c-.4-.4-1-.6-1.7-.6a2.4 2.4 0 00-2.5 2.5c0 .7.3 1.3 1 1.8l3.8 3a5.5 5.5 0 012.3 4.5c0 1.3-.5 2.3-1.5 3.3-1 .7-2 1.1-3.5 1.1-1 0-1.7-.2-2.4-.5a4.1 4.1 0 01-2.4-3.1v-.9c0-.3 0-.8.2-1.4.2-.6.6-1.2 1.2-1.7l.2.1zM9.6 65.7c.5.5.8 1.2.8 2.2a3 3 0 01-.8 2.1 3 3 0 01-2.2.9h-3v-.1h.1c.2 0 .3 0 .4-.2l.2-.3v-4.8c0-.2 0-.3-.2-.4a.5.5 0 00-.4-.1h2.8c1-.1 1.7.1 2.3.7zm-4-.6v5.5h1.8l1.2-.3c.4-.3.7-.6.9-1 .1-.4.3-.9.3-1.4a3 3 0 00-.7-2c-.4-.5-1-.8-1.8-.8H5.7zM16.6 65H16l-.1.4v3.3c0 .7-.3 1.3-.7 1.7-.4.4-1 .6-1.7.6s-1.2-.2-1.7-.6c-.4-.4-.6-1-.6-1.7v-3.3L11 65h-.4 1.7-.5l-.1.4v3.2c0 .7.2 1.1.5 1.6.3.3.8.5 1.3.5.6 0 1-.2 1.4-.5.3-.4.5-.9.5-1.5v-3.3l-.1-.3-.4-.2H15h1.6zM21.6 65.6c0-.1 0-.2-.2-.3a.5.5 0 00-.3-.2h-1.6v5.2c0 .1 0 .2.2.3l.3.2h.1-1.8c.2 0 .3 0 .4-.2.2 0 .2-.2.2-.3V65h-1.6l-.3.2-.2.3v.2-1H21.6v1-.2h-.1zM27 70.8h-1.9l.3-.1.1-.3v-.2l-.6-1.4h-2.3l-.5 1.5v.4h.3v.2h-1.7v-.1h.1c.2 0 .3 0 .4-.2l.4-.4 1.9-4.6.3-.8 2.4 5.4c0 .2.2.3.3.4l.5.2zm-4.3-2.3h2.1l-1-2.7-1 2.7zM34.9 65h-.4l-.2.5v4.4l.1.9v.1l-4.7-5v4.3l.1.4.4.1h.2-1.8.1l.4-.1.1-.4v-4.4-1.1l4.7 5v-4.3l-.1-.3a.5.5 0 00-.4-.2h-.2H35 35zM41.3 65h-.5l-.1.4v3.3c0 .7-.3 1.3-.7 1.7-.4.4-1 .6-1.7.6s-1.2-.2-1.7-.6c-.4-.4-.6-1-.6-1.7v-3.3c0-.2-.1-.3-.3-.4H35.4 37h-.5l-.1.4v3.2c0 .7.2 1.1.5 1.6.3.3.8.5 1.3.5.6 0 1-.2 1.4-.5.4-.4.5-.9.5-1.5v-3.3l-.1-.3-.4-.2h-.1 1.6zM41.8 70.5V70v-.7h.1v.2c0 .3.1.6.4.8.2.3.4.4.8.4s.7-.1.9-.4c.2-.2.3-.4.3-.8a1 1 0 00-.3-.8l-1.6-1.5c-.3-.3-.5-.6-.5-1s.2-.8.4-1c.3-.4.7-.5 1.1-.5h1.1v1.1h-.1c0-.3-.1-.5-.3-.6a1 1 0 00-.7-.3c-.3 0-.6.2-.8.3a1 1 0 00-.3.8c0 .3.1.5.4.7l1.7 1.6c.3.2.4.6.4 1 0 .5-.1.9-.4 1.1-.3.3-.7.5-1.2.5l-.8-.1a.8.8 0 01-.6-.3zM51 70.8h-1.8l.3-.1v-.3-.2l-.5-1.4h-2.3l-.6 1.5v.4h.4v.2h-1.7v-.1c.2 0 .4 0 .5-.2l.3-.4 2-4.6.3-.8 2.3 5.4.4.4.4.2zm-4.2-2.3h2.1l-1-2.7-1.1 2.7z" fill="#fff"/><path d="M57.2 65h-.4l-.1.5v5.4L52 66v4.3l.2.4.3.1h.2-1.8.2l.3-.1.2-.4v-4.4l-.1-1v-.1l4.7 5v-4.3l-.1-.3a.5.5 0 00-.4-.2h-.1 1.7-.1zM62.3 65.6l-.1-.3a.5.5 0 00-.4-.2h-1.6v5.2l.2.3.4.2H59h.1c.2 0 .3 0 .4-.2l.2-.3V65H58l-.3.2-.1.3v.2h-.1v-1H62.4v1-.2zM67.7 70.8h-1.9.1l.3-.1v-.3-.2l-.5-1.4h-2.3l-.6 1.5v.4h.3v.2h-1.6v-.1c.2 0 .4 0 .5-.2l.3-.4 2-4.6.2-.8h.1l2.3 5.4c0 .2.2.3.3.4l.5.2zm-4.2-2.3h2l-1-2.7-1 2.7zM69.5 65.1h-.6v5.1c0 .2 0 .3.2.4l.4.1h.1v.1h-1.9.1l.4-.2.2-.4v-4.7c0-.1 0-.3-.2-.4a.5.5 0 00-.4-.1H70c.5 0 1 0 1.2.4.3.2.5.6.5 1 0 .5-.2 1-.4 1.2-.3.4-.7.6-1 .6l.2.2.3.3 1 1.3.3.4c.1 0 .2 0 .2.2l.3.1.5.1h-1.2l-.5-.3-.2-.3-.7-.9-.6-.8-.1-.2-.6-.3v-.1h.5c.7 0 1.1-.3 1.3-.9v-.3-.2c0-.4 0-.7-.3-1a1 1 0 00-.8-.3h-.4z" fill="#fff"/><path d="M78.4 70.8h.1-1.9l.3-.1.1-.3v-.2l-.6-1.4h-2.3l-.5 1.5v.4h.3v.2h-1.7v-.1h.1c.2 0 .3 0 .4-.2.2 0 .3-.2.4-.4l1.9-4.6.3-.8 2.4 5.4c0 .2.2.3.3.4l.4.2zm-4.2-2.3h2.1l-1-2.7-1 2.7zM14.7 30.8a2 2 0 100 4c1.2 0 2-.8 2-2 .1-1.1-.8-2-2-2zm0 3.5c-.8 0-1.5-.7-1.5-1.5a1.5 1.5 0 013 0c0 .8-.7 1.5-1.5 1.5zM66.2 35a2 2 0 100-4.2 2 2 0 00-2 2c0 1.2.9 2.1 2 2.1zm0-3.6c.9 0 1.5.6 1.5 1.5a1.5 1.5 0 01-3 0c0-.9.7-1.5 1.5-1.5zM30 7.6c.5 0 1-.5 1-1 0-.6-.5-1-1-1a1 1 0 00-1 1c0 .5.4 1 1 1zm0-1.5c.2 0 .4.2.4.4 0 .3-.2.4-.5.4a.4.4 0 01-.4-.4c0-.2.2-.4.4-.4zM32 5c.5 0 1-.4 1-1 0-.5-.5-1-1-1a1 1 0 00-1 1c0 .6.3 1 1 1zm0-1.4c.2 0 .3.2.3.4s-.1.4-.4.4a.4.4 0 01-.4-.4c0-.2.2-.4.4-.4zM51 7.7c.6 0 1-.5 1-1 0-.6-.4-1-1-1a1 1 0 00-1 1c0 .5.4 1 1 1zm0-1.5c.2 0 .4.2.4.4 0 .3-.2.5-.4.5a.4.4 0 01-.4-.5c0-.2.2-.4.4-.4zM49 5.1c.6 0 1-.4 1-1s-.4-1-1-1a1 1 0 00-1 1c0 .6.5 1 1 1zm0-1.4c.2 0 .4.2.4.4s-.2.4-.4.4a.4.4 0 01-.4-.4c0-.2.2-.4.4-.4z" fill="#fff"/><path d="M.6 43H30v-.2c.9-6.2 5.3-10.6 10.6-10.6 5.2 0 9.7 4.4 10.6 10.6v.3H81C78.7 18.9 61.4 0 40.5 0 19.5 0 2.3 18.9 0 43h.6zm9-.6a2 2 0 001.2-1.8c0-1-.7-1.8-1.6-2 1.4-2 5.5-1.2 6-1l1.4.8.6.3a25 25 0 0010.2 3.7H9.6zm-1-.3c-.7 0-1.4-.7-1.4-1.5a1.5 1.5 0 013 0c0 .8-.7 1.5-1.5 1.5zm45 .3c3.3-.3 6.7-1.6 10.2-3.7l.5-.3 1.5-.9c.4 0 4.6-.9 6 1-1 .3-1.6 1.1-1.6 2.1a2 2 0 001.1 1.9H53.6zm17.2-1.8a1.5 1.5 0 013 0 1.5 1.5 0 01-3 0zm9.5 1.8h-7.1a2 2 0 001.1-1.8c0-1-.8-2-1.8-2-1-1.9-3.5-2-5.2-1.9 2.5-1.3 5.1-2.2 7.8-1.5v.2c0 1.2 1 2.1 2 2.1a2 2 0 002-1.5c.6 2 1 4.2 1.2 6.4zm-4.5-7a1.5 1.5 0 013 0 1.5 1.5 0 01-3 0zm-6.6-20.3A50.3 50.3 0 0178.7 34a2 2 0 00-3.4.6c-2.2-.5-4.2-.2-6.2.6 1.4-1.8 4-6 3.3-12.1h-.6c.8 8.1-4 12.6-4.1 12.7-1.3.6-2.6 1.4-3.8 2.1l-.5.3-1.4.8c1.7-1.8 3.3-4 3.4-4.1l-.6-.4S62 38.5 60 40c-2.9 1.2-5.6 2-8.4 2-.2-1-.5-2-.9-2.9l1.9-1.7c.7 0 2-.4 3.9-1.3h.1c3.4-1.4 6-3.5 8-6.4 2-3 3.5-6.2 4.2-9.6.5-1.8.6-3.5.5-5zM55.8 33.9l2.8-3.1h3.2V30h-2.7l2.3-2.7 3.4-.6-.1-.6-2.7.4 4.7-6-.5-.4-4.6 6V22h-.7v5l-2.2 2.6V26h-.6v4.3l-2.7 3.1v-3.7h-.6V34l-2.6 2.7c-.8-2.8-.5-6.1.8-9.1 1-2.2 2.5-4 4.4-5.3a57 57 0 014.3-2.5c2.4-1.3 4.8-2.6 7-4.4a26 26 0 01-4.5 13.9 17 17 0 01-7.9 6.1h-.1c-1.4.7-2.4 1-3 1.2l2-2.1h2.1v-.7h-1.5zm5.3-26.5c2.8 2 5.3 4.4 7.6 7.1-2.2 2.1-4.8 3.5-7.3 4.9L57 21.9a14.2 14.2 0 00-5.4 15l.2.4-1.3 1.2a12.3 12.3 0 00-5.4-5.9c0-1.3.8-7.9 9.8-15.6a14 14 0 014.3-1.3c1.4-.1 4.8-1.3 5-3.4 0-.4-.2-.9-.6-1.2-.8-.6-2.2-.5-3-.4-.7.2-1.4.6-2 1L60 9.1h.1c.7 0 1.2-.5 1.2-1.2l-.2-.5zM57 12.5l-.7 1.3-1 1.4v-.8l-.6-2.7c-.4-1.4-.4-4.4 1-5 0-.2.2-.2.3-.2h.4c.6.4 1 1.5 1.1 2.2.2 1.2 0 2.6-.5 3.8zm3.8-1a4 4 0 011-.2c.5 0 1 .1 1.4.4.2.2.3.4.3.7-.1 1.4-2.9 2.6-4.4 2.8-.9 0-1.8.3-2.7.5l-.7.3 1.8-2.6c1-1 2.2-1.7 3.3-2zm-.1-3.6c0 .3-.3.6-.6.6a.6.6 0 01-.5-.6c0-.3.2-.5.5-.5s.6.2.6.5zM60 6.8H60a1.2 1.2 0 00-.7 2l-1.5 2.8c.3-1 .4-2 .2-3-.1-.7-.6-2-1.5-2.5-.4-.3-.8-.3-1.3 0-1.8.9-1.6 4.4-1.2 5.8a15.2 15.2 0 01.5 4.3l-.1.2-.2.3c-8.5 7.4-9.7 13.7-9.8 15.6a9.5 9.5 0 00-3.6-.8v-2c.8-3.2 2.6-6.4 4-8.6l1.5.3c.3 0 .7 0 1-.2 1-.3 1.6-1 1.8-2l.8-4.7-4.6 1c-1 .3-1.7 1-2 2a3 3 0 00.9 3l.2.1a31.2 31.2 0 00-3.6 6.9v-8.7c.6-2 1.6-3.6 3-4.8.6-.6 1.7-.9 2.6-1.1l2-.7c1-.5 1.7-1.4 1.8-2.4 0-1-.6-1.7-1.6-2.2-1-.5-2 0-2.6.6-.5.8-.5 1.6.1 2.3.4.4 1 .5 1.5.4.4-.1.8-.5.9-.8 0-.3 0-.7-.5-1.1l-.4.5.3.4c0 .2-.2.3-.4.4-.3 0-.6 0-.8-.2-.6-.7-.3-1.2-.2-1.4.4-.5 1.2-.9 1.9-.5.8.4 1.2 1 1.2 1.6 0 .8-.6 1.5-1.4 2l-1.8.5c-1 .3-2.2.6-3 1.3-1 .9-1.9 2.1-2.5 3.5v-5c1.5-.1 2.9-1 3.5-2.3.7-1.3.6-2.7-.2-3.8L40.8.6a35 35 0 0119.3 6.2zM47 17l-2.3 3-.1-.2-.2-.1c-.6-.7-.8-1.5-.5-2.3.2-.7.8-1.3 1.5-1.4l3.7-.9-.7 3.7c-.2.7-.6 1.4-1.4 1.6-.6.2-1.2.2-1.8 0a28 28 0 012.2-3l-.4-.4zm-3.4-11c.6 1 .7 2.2.2 3.2a3.7 3.7 0 01-3 2V7.1H40v4.2c-1.3-.1-2.4-.9-3-2-.5-1-.4-2.2.2-3.2l3.1-4.7 3.2 4.7zM40.3.6l-3.4 5.2a3.8 3.8 0 00-.3 3.8c.7 1.4 2 2.2 3.6 2.3v4.9c-.6-1.4-1.5-2.6-2.6-3.5-.7-.7-1.9-1-2.9-1.3-.7-.1-1.2-.3-1.8-.6-.9-.4-1.4-1.1-1.4-1.8s.4-1.3 1.2-1.7c.7-.3 1.5 0 1.8.5.2.2.5.8 0 1.4-.3.2-.6.3-.9.2-.2 0-.4-.2-.4-.3 0-.2.1-.4.3-.5l-.4-.5c-.6.5-.5.9-.5 1 0 .5.4.8.9.9.5.1 1 0 1.4-.4.6-.7.7-1.5.2-2.2a2.1 2.1 0 00-2.6-.7c-1 .5-1.6 1.3-1.6 2.2 0 1 .7 2 1.8 2.5l2 .6c.9.2 2 .5 2.6 1.1a9.7 9.7 0 013 4.8v8.8c-1-2.5-2.4-5-3.6-6.8l.2-.2.1-.1a3 3 0 00.7-3c-.3-.9-1-1.5-2-1.8l-4.6-1L32 19c.2 1 .9 1.8 1.8 2.1l1 .2c.5 0 1-.1 1.4-.4 1.5 2.3 3.3 5.5 4.1 8.6v2a10 10 0 00-3.8 1c-.1-1.9-1.1-8.2-9.8-15.7l-.2-.3-.1-.2a14 14 0 01.5-4.3c.4-1.4.7-5-1.2-5.9-.5-.2-.9-.2-1.3 0-.9.5-1.4 1.8-1.5 2.6-.1 1 0 2 .2 3l-1.5-2.8c.3-.2.5-.5.5-.9 0-.6-.5-1.1-1.1-1.2A34 34 0 0140.3.6zm-4.6 19.8c-.6.3-1.2.3-1.8 0-.7-.2-1.2-.8-1.4-1.5l-.6-3.7 3.6.8c.7.2 1.3.7 1.5 1.5.3.8 0 1.6-.5 2.3l-.2.1-.1.1-2.2-3-.5.5 2.2 2.9zm-11-6.6c-.3-.4-.6-.8-.7-1.3a7.6 7.6 0 01-.6-3.7c.1-.8.5-1.9 1.1-2.2h.8c1.3.7 1.3 3.7 1 5.1l-.6 2.7v.9l-1-1.5zm.5 2.1l-.8-.2c-.9-.3-1.7-.5-2.7-.6-1.4-.1-4.2-1.3-4.3-2.8 0-.3 0-.5.3-.7.3-.2.8-.3 1.4-.3h1c1.1.4 2.3 1 3.2 2l1.9 2.6zm-4.4-8.5c.3 0 .5.2.5.5s-.2.6-.5.6a.6.6 0 01-.6-.6c0-.3.3-.5.6-.5zm-1.2.2V8c0 .7.5 1.2 1.1 1.2h.2l1.4 2.6-2-1c-.9-.1-2.3-.2-3 .5-.4.2-.6.7-.6 1.2.2 2 3.6 3.2 5 3.4A12.4 12.4 0 0126 17c9.1 8 9.7 14.6 9.7 15.8-2.2 1.2-4 3.2-5.1 5.6l-1.2-1.1.2-.3c.8-3 .5-6.4-.9-9.6-1-2.2-2.5-4-4.6-5.4-1.4-1-2.9-1.8-4.3-2.6-2.5-1.3-5.1-2.7-7.3-4.8l-.2-.2c2.2-2.6 4.7-4.9 7.3-6.8zm6 22v3.8l-2.6-3V26h-.6v3.6L20.2 27v-5h-.6v4.2a200 200 0 01-4.6-6l-.5.4 4.7 6-2.7-.4-.2.6 3.4.6 2.3 2.8h-2.7v.6h3.3l2.7 3.2h-1.5v.6h2l2 2.1-2.8-1-.2-.1a17.4 17.4 0 01-7.8-6.2c-2-3-3.4-6.1-4-9.4a18 18 0 01-.5-4.5c2.1 1.8 4.6 3.1 7 4.4l4.3 2.5A13.9 13.9 0 0129 36.7v.1c-1-.8-1.8-1.7-2.6-2.7v-4.4h-.7zM12 14.9c-.2 1.7 0 3.4.3 5.4.8 3.3 2.2 6.6 4.3 9.5 2 3 4.6 5 8 6.4h.1c2 1 3.2 1.3 4 1.4l1.6 1.6-1 2.9c-2.7 0-5.5-.7-8.4-2-2-1.4-4.9-5.4-5-5.5l-.4.4a36 36 0 003.3 4.1l-1.4-.7-.5-.3-3.8-2.2s-4.8-4.5-4-12.6l-.6-.1a17 17 0 003.4 12c-2-.7-4.1-1-6.2-.5-.4-.7-1.1-1.3-2-1.3-.6 0-1 .3-1.5.7 2-7.3 5.4-13.8 9.8-19.2zM5.2 35.4a1.5 1.5 0 01-3 0c0-.8.7-1.5 1.5-1.5s1.5.7 1.5 1.5zm-3.5.6c.3.8 1 1.5 2 1.5 1.2 0 2.1-1 2.1-2v-.3c2.7-.7 5.4.2 7.8 1.5-1.7-.1-4.1 0-5.1 1.8a2 2 0 00-2 2 2 2 0 001.2 2h-7c.2-2.3.6-4.4 1-6.5z" fill="#fff"/></svg>