<svg xmlns="http://www.w3.org/2000/svg" viewBox="0 0 219 192.21"><defs><style>.cls-1{fill:#fff;}</style></defs><g id="Layer_2" data-name="Layer 2"><g id="Layer_1-2" data-name="Layer 1"><path class="cls-1" d="M53.7,173.61A15.92,15.92,0,0,1,41.94,169a16.47,16.47,0,0,1-4.47-8.55,21.19,21.19,0,0,1-13.19,4.08,23.61,23.61,0,0,1-11.23-2.69A20.61,20.61,0,0,1,5.13,133.3,19.54,19.54,0,0,1,13,126a24.18,24.18,0,0,1,11.25-2.6A24.68,24.68,0,0,1,38,127.22l1.13,8h-.51A12.33,12.33,0,0,0,31,126.26a17.76,17.76,0,0,0-6.68-1.19,16.8,16.8,0,0,0-12.7,5.32,20.55,20.55,0,0,0,0,27,17,17,0,0,0,12.67,5.43,19.1,19.1,0,0,0,7-1.3A16.78,16.78,0,0,0,37,157.94v-10a2.4,2.4,0,0,0-.73-1.9,3.08,3.08,0,0,0-2.09-.65h-.91v-.57H44.37v.57h-.85a3.17,3.17,0,0,0-2.15.65,2.25,2.25,0,0,0-.68,1.9v8.71q.35,8.94,5.83,12.78a16.88,16.88,0,0,0,10,2.72,33.25,33.25,0,0,0,5.54-.51l.06.57A28.32,28.32,0,0,1,53.7,173.61Z"/><path class="cls-1" d="M47.31,163.3a2.82,2.82,0,0,0,2.07-.86,3,3,0,0,0,.91-2.07V134.32a2.4,2.4,0,0,0-.89-1.88,3.09,3.09,0,0,0-2.09-.77h-.56l0-.47H60.34a20.19,20.19,0,0,0,3.14-.27,13.5,13.5,0,0,0,2.39-.56v5.86h-.46v-.84a2.74,2.74,0,0,0-2.61-2.74H53.31V147h7.86a2.29,2.29,0,0,0,1.58-.7,2.18,2.18,0,0,0,.66-1.63V144h.46v7.35h-.46v-.7a2.2,2.2,0,0,0-.63-1.58,2.25,2.25,0,0,0-1.56-.69H53.31v13.9H60a8,8,0,0,0,5.26-1.53,11.25,11.25,0,0,0,3-4.56h.47L66,163.77H46.71v-.47Z"/><path class="cls-1" d="M104.62,131.67a2.77,2.77,0,0,0-2,.81,2.89,2.89,0,0,0-.89,2v24a37.88,37.88,0,0,0,.33,5.12l.09.84h-.42L76.38,137.34v23.17a2.66,2.66,0,0,0,.84,2,2.79,2.79,0,0,0,2,.81h.88v.47H70.52v-.47h.89a2.79,2.79,0,0,0,2-.81,2.75,2.75,0,0,0,.83-2V136.32a36.57,36.57,0,0,0-.32-5.07l-.1-.74h.47l25.35,27.07V134.51a2.88,2.88,0,0,0-.88-2,2.79,2.79,0,0,0-2-.81h-.89v-.47h9.59v.47Z"/><path class="cls-1" d="M135.39,135.69a17.34,17.34,0,0,1,0,23.59q-4.63,4.49-12.07,4.49H107.55v-.47h.6a2.82,2.82,0,0,0,2.07-.86,3,3,0,0,0,.91-2.07V134.32a2.36,2.36,0,0,0-.91-1.88,3.11,3.11,0,0,0-2.07-.77h-.55l0-.47h15.77Q130.76,131.2,135.39,135.69Zm-21.24-3.09v29.77h9.17a12.88,12.88,0,0,0,6.91-1.86,12.4,12.4,0,0,0,4.65-5.23,17.54,17.54,0,0,0,1.65-7.79q0-6.7-3.65-10.8a12.2,12.2,0,0,0-9.56-4.09Z"/><path class="cls-1" d="M164.48,163.3a2.82,2.82,0,0,0,2.07-.86,2.91,2.91,0,0,0,.91-2v-12h-19v12a2.69,2.69,0,0,0,.88,2,2.94,2.94,0,0,0,2.09.84H152v.47H141.83v-.47h.61a3,3,0,0,0,3-2.88V134.55a3,3,0,0,0-3-2.88h-.61v-.47H152v.47h-.61a3,3,0,0,0-3,2.88V147h19V134.55A2.83,2.83,0,0,0,166,132a3.08,3.08,0,0,0-1.49-.37h-.6v-.47h10.19v.47h-.61a2.86,2.86,0,0,0-2.07.86,3,3,0,0,0-.9,2.07v25.82a3,3,0,0,0,3,2.88h.61v.47H163.88v-.47Z"/><path class="cls-1" d="M177.93,163.3a2.86,2.86,0,0,0,2.07-.86,3,3,0,0,0,.91-2.07V134.55a3,3,0,0,0-.91-2,2.88,2.88,0,0,0-2.07-.84h-.61v-.47h10.19v.47h-.6a3,3,0,0,0-3,2.88v25.82a2.77,2.77,0,0,0,.88,2.07,2.92,2.92,0,0,0,2.1.86h.6v.47H177.32v-.47Z"/><path class="cls-1" d="M194.66,148.72a13.4,13.4,0,0,0-2.94,8.31,9.34,9.34,0,0,0,4.47,8.26,10.31,10.31,0,0,0,5.91,1.76,12.07,12.07,0,0,0,5.74-1.3,9.45,9.45,0,0,0,5.15-8,5.25,5.25,0,0,0,.06-.79,10.63,10.63,0,0,0-1.16-4.53,12.85,12.85,0,0,0-3.76-4.47l-10.19-8a8.18,8.18,0,0,1-3.34-6.73,9.88,9.88,0,0,1,2.66-7,9.38,9.38,0,0,1,7.19-2.86,23.54,23.54,0,0,1,4.92.57h2.26l.12,7h-.57a5.39,5.39,0,0,0-2-4.27,7.24,7.24,0,0,0-4.75-1.56,6.53,6.53,0,0,0-6.71,6.76,6.08,6.08,0,0,0,2.49,4.95L210.73,145Q217,150,217,156.92a11.66,11.66,0,0,1-4.13,8.94q-3.57,3.22-9.5,3.22a14.76,14.76,0,0,1-6.45-1.35,11,11,0,0,1-6.4-8.49,11,11,0,0,1,.63-6.08,13.28,13.28,0,0,1,3.05-4.84Z"/><path class="cls-1" d="M25.86,177.93a8.63,8.63,0,0,1,0,11.73,8.31,8.31,0,0,1-6,2.23H12v-.23h.3a1.42,1.42,0,0,0,1-.43,1.46,1.46,0,0,0,.45-1v-13a1.16,1.16,0,0,0-.45-.93,1.51,1.51,0,0,0-1-.38H12l0-.24h7.84A8.28,8.28,0,0,1,25.86,177.93ZM15.3,176.39v14.8h4.55a6.35,6.35,0,0,0,3.44-.92,6.21,6.21,0,0,0,2.31-2.6,8.69,8.69,0,0,0,.82-3.88,7.78,7.78,0,0,0-1.81-5.37,6.1,6.1,0,0,0-4.76-2Z"/><path class="cls-1" d="M44.79,175.93h-.37a1.23,1.23,0,0,0-.84.31,1,1,0,0,0-.38.77v9.16a5.81,5.81,0,0,1-1.72,4.38,6.25,6.25,0,0,1-4.55,1.66,6.5,6.5,0,0,1-4.62-1.65,5.69,5.69,0,0,1-1.77-4.36v-9.12a1.06,1.06,0,0,0-.6-1,1.26,1.26,0,0,0-.62-.14H29v-.24h4.69v.24h-.37a1.2,1.2,0,0,0-.85.31,1,1,0,0,0-.37.8v8.83A6,6,0,0,0,33.4,190,4.57,4.57,0,0,0,37,191.49,4.87,4.87,0,0,0,40.7,190a5.35,5.35,0,0,0,1.41-3.86V177a1.12,1.12,0,0,0-.37-.8,1.23,1.23,0,0,0-.86-.31h-.37v-.24h4.28Z"/><path class="cls-1" d="M58.42,177.75a1.4,1.4,0,0,0-1.32-1.38H52.7v13.85a1.5,1.5,0,0,0,.45,1,1.43,1.43,0,0,0,1,.42h.3v.23H49.42v-.23h.3a1.43,1.43,0,0,0,1-.42,1.47,1.47,0,0,0,.45-1V176.37H46.8a1.27,1.27,0,0,0-.93.42,1.33,1.33,0,0,0-.38,1v.4l-.24,0v-2.91a6.87,6.87,0,0,0,1.21.27,9,9,0,0,0,1.57.14h7.82a8.94,8.94,0,0,0,1.88-.17c.51-.12.81-.2.92-.24v2.91l-.23,0Z"/><path class="cls-1" d="M72.88,191.66h.18v.23h-5.2v-.23h.2a.86.86,0,0,0,.73-.32,1,1,0,0,0,.25-.59,1.78,1.78,0,0,0-.1-.55l-1.48-3.93H61.22l-1.55,3.95a1.56,1.56,0,0,0-.1.55,1,1,0,0,0,.25.57.86.86,0,0,0,.73.32h.2v.23H56.1v-.23h.21a2.08,2.08,0,0,0,1.14-.37,2.66,2.66,0,0,0,.9-1.09l5.23-12.45a8.39,8.39,0,0,0,.85-2.38h.21l6.2,14.83a2.55,2.55,0,0,0,.88,1.09A2.1,2.1,0,0,0,72.88,191.66Zm-11.39-6.09h5.69l-2.77-7.42Z"/><path class="cls-1" d="M94.25,175.93a1.36,1.36,0,0,0-1,.4,1.37,1.37,0,0,0-.44,1v11.94A18.86,18.86,0,0,0,93,191.8l0,.41h-.2L80.21,178.75v11.52a1.32,1.32,0,0,0,.42,1,1.35,1.35,0,0,0,1,.41h.44v.23H77.29v-.23h.44a1.39,1.39,0,0,0,1-.41,1.32,1.32,0,0,0,.41-1v-12a17.32,17.32,0,0,0-.16-2.52l0-.37h.23l12.61,13.46V177.34a1.49,1.49,0,0,0-.44-1,1.38,1.38,0,0,0-1-.4H89.9v-.24h4.77v.24Z"/><path class="cls-1" d="M111.55,175.93h-.37a1.23,1.23,0,0,0-.84.31,1,1,0,0,0-.38.77v9.16a5.84,5.84,0,0,1-1.71,4.38,6.27,6.27,0,0,1-4.56,1.66,6.5,6.5,0,0,1-4.62-1.65,5.69,5.69,0,0,1-1.77-4.36v-9.12a1.06,1.06,0,0,0-.6-1,1.26,1.26,0,0,0-.62-.14h-.37v-.24h4.69v.24H100a1.2,1.2,0,0,0-.85.31,1.08,1.08,0,0,0-.37.8v8.83a6,6,0,0,0,1.35,4.08,4.57,4.57,0,0,0,3.62,1.54,4.87,4.87,0,0,0,3.68-1.46,5.35,5.35,0,0,0,1.41-3.86V177a1.12,1.12,0,0,0-.37-.8,1.23,1.23,0,0,0-.86-.31h-.37v-.24h4.28Z"/><path class="cls-1" d="M113,190.94a7.92,7.92,0,0,1-.07-1.25,6.31,6.31,0,0,1,.35-2h.21a4.35,4.35,0,0,0,0,.51,3.35,3.35,0,0,0,.85,2.35,2.91,2.91,0,0,0,2.27.94,3.33,3.33,0,0,0,2.39-.88,2.89,2.89,0,0,0,.94-2.21,2.79,2.79,0,0,0-.9-2.16l-4.44-4.12a3.65,3.65,0,0,1-1.25-2.8,3.92,3.92,0,0,1,1.1-2.81,3.87,3.87,0,0,1,3-1.17,10.14,10.14,0,0,1,2,.23h.9v2.85H120a2.18,2.18,0,0,0-.75-1.74,2.85,2.85,0,0,0-1.93-.64,2.71,2.71,0,0,0-2,.78,2.75,2.75,0,0,0,.13,4l4.56,4.21a3.78,3.78,0,0,1,1.15,2.92,4.12,4.12,0,0,1-1.18,3,4.18,4.18,0,0,1-3.14,1.19,8.23,8.23,0,0,1-2.17-.31A3.85,3.85,0,0,1,113,190.94Z"/><path class="cls-1" d="M138,191.66h.19v.23H133v-.23h.21a.87.87,0,0,0,.73-.32,1,1,0,0,0,.24-.59,1.76,1.76,0,0,0-.09-.55l-1.48-3.93h-6.25l-1.55,3.95a1.81,1.81,0,0,0-.09.55,1,1,0,0,0,.24.57.88.88,0,0,0,.73.32h.21v.23H121.2v-.23h.21a2.08,2.08,0,0,0,1.13-.37,2.66,2.66,0,0,0,.9-1.09l5.23-12.45a8.55,8.55,0,0,0,.86-2.38h.21l6.2,14.83a2.48,2.48,0,0,0,.88,1.09A2.09,2.09,0,0,0,138,191.66Zm-11.38-6.09h5.69l-2.77-7.42Z"/><path class="cls-1" d="M154.72,175.93a1.34,1.34,0,0,0-1,.4,1.37,1.37,0,0,0-.44,1v11.94a18.86,18.86,0,0,0,.16,2.55l0,.41h-.2l-12.61-13.46v11.52a1.34,1.34,0,0,0,.41,1,1.39,1.39,0,0,0,1,.41h.44v.23h-4.77v-.23h.44a1.39,1.39,0,0,0,1-.41,1.32,1.32,0,0,0,.41-1v-12a17.32,17.32,0,0,0-.16-2.52l0-.37h.23l12.61,13.46V177.34a1.49,1.49,0,0,0-.44-1,1.38,1.38,0,0,0-1-.4h-.44v-.24h4.77v.24Z"/><path class="cls-1" d="M168.65,177.75a1.35,1.35,0,0,0-.4-1,1.3,1.3,0,0,0-.92-.42h-4.4v13.85a1.5,1.5,0,0,0,.45,1,1.43,1.43,0,0,0,1,.42h.3v.23h-5.06v-.23h.3a1.43,1.43,0,0,0,1-.42,1.47,1.47,0,0,0,.45-1V176.37H157a1.27,1.27,0,0,0-.93.42,1.34,1.34,0,0,0-.39,1v.4l-.23,0v-2.91a6.66,6.66,0,0,0,1.21.27,9,9,0,0,0,1.57.14h7.82a8.94,8.94,0,0,0,1.88-.17c.5-.12.81-.2.92-.24v2.91l-.23,0Z"/><path class="cls-1" d="M183.1,191.66h.19v.23h-5.21v-.23h.21a.86.86,0,0,0,.73-.32,1,1,0,0,0,.24-.59,1.76,1.76,0,0,0-.09-.55l-1.48-3.93h-6.24l-1.55,3.95a1.56,1.56,0,0,0-.1.55.91.91,0,0,0,.25.57.85.85,0,0,0,.72.32H171v.23h-4.65v-.23h.21a2.05,2.05,0,0,0,1.13-.37,2.68,2.68,0,0,0,.91-1.09l5.22-12.45a8.21,8.21,0,0,0,.86-2.38h.21l6.2,14.83a2.48,2.48,0,0,0,.88,1.09A2.09,2.09,0,0,0,183.1,191.66Zm-11.38-6.09h5.69l-2.77-7.42Z"/><path class="cls-1" d="M188,176.41h-1.48V190.2a1.4,1.4,0,0,0,.43,1,1.43,1.43,0,0,0,1,.43h.28l0,.23h-5.07v-.23h.3a1.49,1.49,0,0,0,1.48-1.44V177.38a1.46,1.46,0,0,0-.45-1,1.41,1.41,0,0,0-1-.42h-.3v-.24h6.25a4.55,4.55,0,0,1,3.31,1.17,4,4,0,0,1,1.2,3,4.82,4.82,0,0,1-1.14,3.22,3.55,3.55,0,0,1-2.79,1.35,3.23,3.23,0,0,1,.82.64,7.65,7.65,0,0,1,.84,1q2,2.85,2.59,3.51c.4.44.69.74.86.9a6.44,6.44,0,0,0,.55.47,2.84,2.84,0,0,0,.61.37,3.16,3.16,0,0,0,1.43.33v.23H196.5a4.73,4.73,0,0,1-1.85-.36,4.94,4.94,0,0,1-1.29-.74,10.31,10.31,0,0,1-.74-.74c-.2-.24-.78-1-1.72-2.39s-1.49-2.14-1.64-2.33l-.49-.57a2.09,2.09,0,0,0-1.48-.78v-.24a3.19,3.19,0,0,0,.49,0l.74,0q2.86-.06,3.61-2.4a3.11,3.11,0,0,0,.13-.87V180a4.14,4.14,0,0,0-.8-2.5,2.69,2.69,0,0,0-2.06-1C189,176.42,188.56,176.41,188,176.41Z"/><path class="cls-1" d="M212.23,191.66h.18v.23h-5.2v-.23h.21a.88.88,0,0,0,.73-.32,1,1,0,0,0,.24-.59,1.76,1.76,0,0,0-.09-.55l-1.48-3.93h-6.25L199,190.22a1.81,1.81,0,0,0-.09.55,1,1,0,0,0,.24.57.86.86,0,0,0,.73.32h.21v.23h-4.65v-.23h.21a2.08,2.08,0,0,0,1.13-.37,2.66,2.66,0,0,0,.9-1.09l5.23-12.45a8.39,8.39,0,0,0,.85-2.38H204l6.2,14.83a2.55,2.55,0,0,0,.88,1.09A2.12,2.12,0,0,0,212.23,191.66Zm-11.38-6.09h5.69l-2.78-7.42Z"/><path class="cls-1" d="M39.82,83.31A5.64,5.64,0,1,0,45.45,89,5.65,5.65,0,0,0,39.82,83.31Zm0,9.6a4,4,0,1,1,4-4A4,4,0,0,1,39.82,92.91Z"/><path class="cls-1" d="M179.15,94.59A5.64,5.64,0,1,0,173.52,89,5.65,5.65,0,0,0,179.15,94.59Zm0-9.6a4,4,0,1,1-4,4A4,4,0,0,1,179.15,85Z"/><path class="cls-1" d="M81.05,20.56a2.8,2.8,0,1,0-2.8-2.79A2.79,2.79,0,0,0,81.05,20.56Zm0-3.91a1.12,1.12,0,1,1-1.12,1.12A1.12,1.12,0,0,1,81.05,16.65Z"/><path class="cls-1" d="M86.36,13.69a2.8,2.8,0,1,0-2.79-2.8A2.8,2.8,0,0,0,86.36,13.69Zm0-3.92a1.12,1.12,0,1,1-1.11,1.12A1.12,1.12,0,0,1,86.36,9.77Z"/><path class="cls-1" d="M138,20.79a2.8,2.8,0,1,0-2.8-2.8A2.81,2.81,0,0,0,138,20.79Zm0-3.92A1.12,1.12,0,1,1,136.85,18,1.12,1.12,0,0,1,138,16.87Z"/><path class="cls-1" d="M132.65,13.91a2.8,2.8,0,1,0-2.8-2.8A2.81,2.81,0,0,0,132.65,13.91Zm0-3.92a1.12,1.12,0,1,1-1.12,1.12A1.12,1.12,0,0,1,132.65,10Z"/><path class="cls-1" d="M1.69,116.63H80.83l.1-.72c2.38-16.71,14.4-28.83,28.57-28.83s26.2,12.13,28.58,28.86l.09.7H219C212.9,51.12,166.12,0,109.5,0S6.1,51.12,0,116.63ZM26,114.94a5.62,5.62,0,0,0-1.12-10.5c3.86-5.28,14.91-3,16.13-2.78,1.38.8,2.73,1.61,4.06,2.41l1.4.85c9.45,5.67,18.55,9,27.61,10Zm-2.49-1.09a4,4,0,1,1,3.95-3.95A4,4,0,0,1,23.53,113.85Zm121.34,1.09c9.06-1,18.16-4.35,27.61-10l1.41-.85c1.32-.8,2.68-1.61,4.05-2.41,1.22-.27,12.27-2.51,16.13,2.78a5.62,5.62,0,0,0-1.12,10.5Zm46.62-5a4,4,0,1,1,4,3.95A4,4,0,0,1,191.49,109.9Zm25.66,5H197.94a5.63,5.63,0,0,0-2-10.65c-2.67-4.86-9.31-5.28-13.88-4.93,6.7-3.48,13.83-5.9,21.15-4a4.93,4.93,0,0,0,0,.55,5.63,5.63,0,0,0,11.06,1.5A148.7,148.7,0,0,1,217.15,114.94ZM204.88,96a4,4,0,1,1,4,4A4,4,0,0,1,204.88,96ZM187.15,40.82A136.46,136.46,0,0,1,213,92.11a5.62,5.62,0,0,0-9.31,1.66c-5.8-1.54-11.42-.55-16.77,1.54A45.71,45.71,0,0,0,196,62.52l-1.67.16c2.07,21.83-10.94,34.06-11.07,34.19h0c-3.55,1.71-7,3.78-10.26,5.75l-1.4.85c-1.25.74-2.49,1.44-3.72,2.11A106.65,106.65,0,0,0,177,94.34l-1.38-1c-.08.11-7.69,11-13.27,14.94a58.55,58.55,0,0,1-22.94,5.29,41,41,0,0,0-2.24-7.62c1.57-1.4,3.2-2.94,4.87-4.6,2-.08,5.45-1.2,10.6-3.46l.45-.19a48.17,48.17,0,0,0,21.59-17.33,71.41,71.41,0,0,0,11.43-25.87A47.57,47.57,0,0,0,187.15,40.82ZM151,91.91c2.52-2.8,5-5.69,7.47-8.56h8.84V81.66h-7.42c2.16-2.57,4.25-5.11,6.22-7.53l9.12-1.47L174.94,71l-7.27,1.17c7.31-9.09,12.55-16.11,12.67-16.26l-1.35-1c-.11.16-5.28,7.08-12.5,16.05V59.73h-1.68V73c-1.87,2.31-3.85,4.72-5.9,7.16V70.34h-1.68V82.18c-2.38,2.81-4.84,5.64-7.29,8.38V80.43h-1.68v12c-2.34,2.57-4.67,5-6.93,7.29a.54.54,0,0,1-.19-.07c-2.15-7.49-1.33-16.51,2.25-24.74a32.33,32.33,0,0,1,11.84-14.07C159,58.34,163,56.14,166.88,54c6.39-3.49,13-7.1,18.67-12.13a46.71,46.71,0,0,1-1.1,12.3,69.83,69.83,0,0,1-11.17,25.26,46.5,46.5,0,0,1-20.86,16.74l-.47.2a56.25,56.25,0,0,1-7.92,3c1.78-1.83,3.6-3.76,5.43-5.76h5.74V91.91Zm14.27-71.78A114.06,114.06,0,0,1,185.88,39.3l-.21.2c-5.81,5.5-12.82,9.34-19.6,13-3.91,2.13-7.95,4.35-11.77,6.87a33.94,33.94,0,0,0-12.45,14.8c-3.79,8.72-4.61,17.92-2.32,25.89h0a1.53,1.53,0,0,0,.56.81c-1.24,1.22-2.46,2.36-3.63,3.43a33.32,33.32,0,0,0-14.54-15.88c.13-3.7,2.08-21.45,26.36-42.43a29.85,29.85,0,0,1,4.66-1.89,36.82,36.82,0,0,1,7-1.46c3.77-.4,12.92-3.62,13.24-9.19a3.78,3.78,0,0,0-1.36-3.26c-2.06-1.69-5.91-1.52-8-1a19.39,19.39,0,0,0-5.68,2.55A69.38,69.38,0,0,0,162,24.67l.39,0a3.22,3.22,0,0,0,3.22-3.21A3.09,3.09,0,0,0,165.25,20.13ZM153.82,33.88a31.21,31.21,0,0,1-1.82,3.6c-1,1.22-1.89,2.52-2.78,3.84,0-1-.11-1.92-.14-2.27a37.2,37.2,0,0,0-1.42-7.31c-1.15-3.86-1.09-12,2.48-13.78a2.45,2.45,0,0,1,1.07-.27,2,2,0,0,1,.94.24c1.7.9,2.85,3.91,3.13,5.76A19.86,19.86,0,0,1,153.82,33.88Zm10.38-3a11.52,11.52,0,0,1,2.74-.32,6.17,6.17,0,0,1,3.77,1,2.08,2.08,0,0,1,.75,1.86c-.23,4-7.73,7.19-11.74,7.62a38,38,0,0,0-7.29,1.53c-.31.1-1.09.35-2,.69,1.22-1.7,3-4.17,4.8-6.94l.11-.12A19.88,19.88,0,0,1,164.2,30.89Zm-.31-9.4A1.54,1.54,0,1,1,162.35,20,1.54,1.54,0,0,1,163.89,21.49Zm-1.27-3.19a2.48,2.48,0,0,0-.27,0A3.21,3.21,0,0,0,160.4,24a68,68,0,0,1-4,7.27,20,20,0,0,0,.5-7.86c-.32-2.13-1.65-5.75-4-7a3.75,3.75,0,0,0-3.52,0c-5,2.46-4.44,12.15-3.36,15.77a35.27,35.27,0,0,1,1.36,7,31.6,31.6,0,0,1,.09,4.72l-.35.55-.5.76c-23.14,20.2-26.06,37.24-26.39,42.44a26.54,26.54,0,0,0-9.92-2.27V79.92c2.09-8.62,7-17.16,11.1-23.3a8.14,8.14,0,0,0,3.77,1,7.71,7.71,0,0,0,2.67-.47,7.34,7.34,0,0,0,4.76-5.68L134.83,39l-12.32,2.85a7.32,7.32,0,0,0-5.42,5A8,8,0,0,0,119,54.74c.14.15.29.3.44.44s.3.28.46.41l.13.1a88.14,88.14,0,0,0-9.7,18.48V50.45a27.17,27.17,0,0,1,8-13.06c1.84-1.61,4.58-2.32,7.23-3a30.52,30.52,0,0,0,5.16-1.67c3-1.4,4.84-3.94,4.87-6.62,0-2.47-1.5-4.61-4.29-6a5.76,5.76,0,0,0-7,1.77,4.47,4.47,0,0,0,.36,6,3.86,3.86,0,0,0,3.86,1.12,3.11,3.11,0,0,0,2.36-2.18,2.92,2.92,0,0,0-1.2-2.94l-1.11,1.27c.31.26.8.78.68,1.29a1.53,1.53,0,0,1-1.15.93,2.17,2.17,0,0,1-2.2-.63,2.79,2.79,0,0,1-.26-3.81,4.09,4.09,0,0,1,4.94-1.28c2.19,1.09,3.38,2.68,3.36,4.48,0,2-1.56,4-3.91,5.12a28.71,28.71,0,0,1-4.87,1.57c-2.83.73-5.76,1.5-7.91,3.36a27.75,27.75,0,0,0-6.94,9.49V32.21h0A11.32,11.32,0,0,0,120,26a10.31,10.31,0,0,0-.64-10.37l-9.25-14A94.61,94.61,0,0,1,162.62,18.3ZM127,46.4a99.21,99.21,0,0,0-6,7.91h0L120.6,54l-.36-.36a6.39,6.39,0,0,1-1.55-6.25,5.67,5.67,0,0,1,4.19-3.9l9.85-2.28-1.75,10a5.67,5.67,0,0,1-3.67,4.39,6.22,6.22,0,0,1-4.91-.3c3.24-4.66,5.82-7.64,5.88-7.71Zm-9.08-29.82a8.59,8.59,0,0,1,.54,8.7,9.66,9.66,0,0,1-8.14,5.25V19.11h-1.68V30.53a9.67,9.67,0,0,1-8.14-5.26,8.62,8.62,0,0,1,.54-8.69L109.5,3.83Zm-9-14.89-9.24,14A10.26,10.26,0,0,0,99,26a11.31,11.31,0,0,0,9.61,6.19h0V45.36a27.84,27.84,0,0,0-6.93-9.47c-2.14-1.86-5.08-2.62-7.91-3.36A27.84,27.84,0,0,1,89,31c-2.35-1.1-3.88-3.11-3.9-5.11,0-1.8,1.17-3.39,3.36-4.49a4.11,4.11,0,0,1,4.94,1.28,2.81,2.81,0,0,1-.27,3.82,2.2,2.2,0,0,1-2.19.63,1.5,1.5,0,0,1-1.15-.94c-.12-.51.37-1,.67-1.29l-1.1-1.26a2.93,2.93,0,0,0-1.21,2.94,3.12,3.12,0,0,0,2.36,2.17,3.81,3.81,0,0,0,3.86-1.12,4.45,4.45,0,0,0,.37-6,5.76,5.76,0,0,0-7-1.77c-2.79,1.4-4.31,3.53-4.28,6,0,2.68,1.89,5.21,4.87,6.61a30,30,0,0,0,5.16,1.68c2.64.69,5.38,1.4,7.23,3a27.17,27.17,0,0,1,8,13v24A87.89,87.89,0,0,0,99,55.69l.13-.1.47-.41c.15-.14.29-.29.43-.44a8,8,0,0,0,1.93-7.88,7.34,7.34,0,0,0-5.42-5L84.18,39l2.2,12.46a7.33,7.33,0,0,0,4.75,5.68,7.76,7.76,0,0,0,2.68.47,8.1,8.1,0,0,0,3.76-1c4.14,6.13,9,14.65,11.09,23.27v5.52A26.66,26.66,0,0,0,98.3,87.88c-.26-4.95-3-22.17-26.4-42.64l-.49-.76-.35-.55a31.6,31.6,0,0,1,.09-4.72,36,36,0,0,1,1.35-7c1.09-3.62,1.67-13.31-3.35-15.77a3.78,3.78,0,0,0-3.52,0c-2.36,1.24-3.7,4.86-4,7a20.2,20.2,0,0,0,.51,7.86,70,70,0,0,1-4-7.27,3.19,3.19,0,0,0-1.76-5.74A94.67,94.67,0,0,1,108.9,1.69ZM96.62,55.22a6.22,6.22,0,0,1-4.91.3A5.67,5.67,0,0,1,88,51.13l-1.75-10,9.85,2.28a5.66,5.66,0,0,1,4.19,3.9,6.39,6.39,0,0,1-1.55,6.25q-.17.18-.36.36c-.12.12-.25.23-.38.34h0c-3.31-4.78-6-7.84-6-7.91l-1.27,1.11C90.79,47.58,93.38,50.56,96.62,55.22ZM66.56,37.48a31.21,31.21,0,0,1-1.82-3.6,19.77,19.77,0,0,1-1.46-10.19c.27-1.85,1.43-4.86,3.13-5.76a2,2,0,0,1,.94-.24,2.41,2.41,0,0,1,1.06.27c3.58,1.75,3.64,9.92,2.48,13.78a37,37,0,0,0-1.41,7.31c0,.35-.11,1.24-.14,2.27C68.45,40,67.52,38.7,66.56,37.48Zm1.55,5.77c-.89-.34-1.67-.59-2-.69A38.07,38.07,0,0,0,58.83,41c-4-.43-11.51-3.65-11.73-7.62a2.08,2.08,0,0,1,.75-1.86,6.17,6.17,0,0,1,3.77-1,11.58,11.58,0,0,1,2.74.32,19.8,19.8,0,0,1,8.83,5.3l.12.13C65.14,39.08,66.89,41.56,68.11,43.25ZM56.21,20a1.54,1.54,0,1,1-1.54,1.54A1.54,1.54,0,0,1,56.21,20Zm-3.07.61a3.18,3.18,0,0,0-.15.93,3.22,3.22,0,0,0,3.22,3.21l.39,0a69.38,69.38,0,0,0,3.86,7.14,19.51,19.51,0,0,0-5.68-2.55c-2.09-.53-5.94-.7-8,1a3.75,3.75,0,0,0-1.36,3.26c.32,5.57,9.47,8.79,13.23,9.19a36.92,36.92,0,0,1,7,1.46,29.7,29.7,0,0,1,4.65,1.89c24.78,21.4,26.3,39.54,26.37,42.66a33.34,33.34,0,0,0-14,15.35c-1.07-1-2.17-2-3.29-3.13a1.52,1.52,0,0,0,.55-.81h0c2.3-8,1.47-17.17-2.32-25.89a33.87,33.87,0,0,0-12.45-14.8c-3.81-2.52-7.86-4.74-11.77-6.87-6.78-3.71-13.79-7.55-19.6-13l-.47-.45A114.3,114.3,0,0,1,53.14,20.56Zm16.4,59.87V90.56c-2.45-2.74-4.91-5.57-7.29-8.38V70.34H60.57v9.85c-2-2.44-4-4.85-5.9-7.16V59.73H53V71c-7.22-9-12.38-15.89-12.5-16.05l-1.35,1c.12.15,5.36,7.17,12.67,16.26L44.54,71l-.26,1.66,9.11,1.47c2,2.42,4.06,5,6.23,7.53H52.19v1.69H61c2.44,2.87,5,5.76,7.47,8.56H64.29v1.68H70c1.83,2,3.65,3.93,5.43,5.76a56.25,56.25,0,0,1-7.92-3l-.47-.2A46.5,46.5,0,0,1,46.2,79.45,69.83,69.83,0,0,1,35,54.19a46.68,46.68,0,0,1-1.09-12.3c5.69,5,12.28,8.64,18.67,12.13,3.88,2.12,7.89,4.32,11.65,6.8A32.3,32.3,0,0,1,76.09,74.89c3.58,8.23,4.4,17.25,2.26,24.74a.53.53,0,0,1-.2.07c-2.25-2.26-4.58-4.72-6.93-7.29v-12ZM32.39,40.18a46.53,46.53,0,0,0,1,14.36A71.58,71.58,0,0,0,44.82,80.41,48.17,48.17,0,0,0,66.41,97.74l.45.19c5.15,2.26,8.56,3.38,10.61,3.46,1.54,1.53,3,3,4.51,4.28a40.6,40.6,0,0,0-2.36,7.94,58.53,58.53,0,0,1-23-5.29c-5.58-3.9-13.19-14.83-13.27-14.94l-1.38,1a106.65,106.65,0,0,0,9.08,11.25c-1.23-.67-2.47-1.37-3.72-2.11l-1.4-.85c-3.27-2-6.7-4-10.26-5.75v0c-.13-.12-13.14-12.31-11.07-34.18L23,62.52A45.76,45.76,0,0,0,32.1,95.31c-5.35-2.09-11-3.08-16.77-1.54a5.64,5.64,0,0,0-5.2-3.46,5.56,5.56,0,0,0-4.06,1.75A135.94,135.94,0,0,1,32.39,40.18ZM14.09,96a4,4,0,1,1-4-4A4,4,0,0,1,14.09,96ZM4.73,97.52a5.63,5.63,0,0,0,11-1.57,4.93,4.93,0,0,0,0-.55c7.32-1.94,14.46.48,21.15,4-4.57-.35-11.2.07-13.88,4.93a5.63,5.63,0,0,0-2,10.65H1.85A151.39,151.39,0,0,1,4.73,97.52Z"/></g></g></svg>