<svg width="110" height="110" viewBox="0 0 110 110" fill="none" xmlns="http://www.w3.org/2000/svg">
<circle cx="55" cy="55" r="53.0505" fill="#AA6100" stroke="black" stroke-width="2.10101"/>
<circle cx="55.0001" cy="55.0001" r="44.1212" fill="#F5E8E8"/>
<path d="M31.8887 91.6073C73.8656 98.8596 101.701 72.4661 92.5553 34.2524C118.555 72.8585 66.818 117.242 31.8887 91.6073Z" fill="#ECD9D9"/>
<path d="M17.707 55.1569H26.8979L30.062 62.9918L36.3901 34.5151L41.0609 62.9918L65.7708 53.8009H73.7563L77.2217 44.61L81.2898 62.9918L83.0978 52.5955H93.3434" stroke="black" stroke-width="2"/>
<path d="M45.0191 80.7304C44.2832 80.7264 44.2833 80.7263 44.2833 80.7261L44.2833 80.7251L44.2833 80.721L44.2834 80.7051L44.2837 80.642L44.2851 80.3956L44.2902 79.4578L44.3084 76.0894C44.3235 73.2897 44.3436 69.5278 44.3637 65.6785C44.404 57.9782 44.4442 49.9335 44.4442 48.5396C44.4442 46.9986 44.8169 45.7608 45.74 44.5311C46.5844 43.4064 47.877 42.3071 49.6777 40.9664V35.9952L48.2918 34.1329L48.1463 33.9374V33.6936V27.814C48.1463 25.9081 49.1217 24.4807 50.5132 23.5597C51.8829 22.653 53.6631 22.2239 55.401 22.2239C57.139 22.2239 58.9192 22.653 60.2889 23.5597C61.6804 24.4807 62.6558 25.9081 62.6558 27.814V33.6936V33.9374L62.5103 34.1329L61.1244 35.9952V40.9624C62.9023 42.2639 64.1927 43.362 65.0428 44.4972C65.9701 45.7355 66.3579 46.9952 66.3579 48.5396V80.7304C66.3579 83.3703 64.8708 85.3017 62.7755 86.5324C60.6998 87.7517 57.9843 88.3202 55.3153 88.3011C52.6458 88.2821 49.9342 87.6747 47.8634 86.4484C45.7784 85.2138 44.2832 83.3044 44.2832 80.7304L44.2832 80.7264L45.0191 80.7304Z" fill="#80DE6D" stroke="black" stroke-width="1.47164"/>
<mask id="mask0_168_371" style="mask-type:alpha" maskUnits="userSpaceOnUse" x="45" y="22" width="21" height="66">
<path d="M65.6221 48.5396V80.7304C65.6221 89.9906 45.0191 89.6966 45.0191 80.7304C45.0191 80.7304 45.18 51.3325 45.18 48.5396C45.18 45.7467 46.4981 44.2222 50.4136 41.3371V35.7515L48.8821 33.6936V27.814C48.8821 21.3416 61.92 21.3416 61.92 27.814V33.6936L60.3885 35.7515V41.3371C64.2513 44.1298 65.6221 45.7467 65.6221 48.5396Z" fill="#80DE6D"/>
</mask>
<g mask="url(#mask0_168_371)">
<path d="M56.0378 60.2526C56.0866 60.0581 56.0866 59.8635 56.2328 59.7175C57.0619 58.7932 57.3057 57.5771 57.7933 56.5069C58.8662 54.0259 58.5736 51.6422 57.1106 49.4044C56.3304 48.2369 55.989 46.9721 56.0378 45.5614C56.0866 43.4209 56.0866 41.2805 56.0378 39.14C55.989 37.5833 56.5742 36.2212 57.452 35.0537C58.8662 33.1565 58.7686 31.016 58.5248 28.9242C58.3297 27.2216 57.1106 26.054 55.3551 25.8108C53.6483 25.5676 51.8927 25.2757 50.2347 24.8379C50.0884 24.7892 49.9421 24.7892 49.7471 24.7892C51.2588 23.4271 53.1119 23.0866 55.0625 22.9893C56.623 22.892 58.1835 23.038 59.6952 23.3785C60.8656 23.6704 61.7433 24.3028 62.6211 25.0325C63.1575 25.4703 63.3526 26.1513 63.3526 26.8324C63.3526 29.4107 63.3526 31.9889 63.3526 34.5186C63.3526 35.2969 63.0112 35.978 62.4748 36.5131C61.9871 36.9509 61.8896 37.486 61.8896 38.0698C61.8896 40.4048 61.8896 42.7399 61.8896 45.0749C61.8896 45.61 62.0359 46.0478 62.3285 46.4856C63.3038 47.7505 64.2304 49.0153 65.2544 50.2801C65.5958 50.7179 65.5958 50.9611 65.2057 51.3503C63.889 52.6638 62.6211 54.0259 61.3044 55.3393C59.939 56.7014 58.5248 58.0635 57.1106 59.4257C56.818 59.7175 56.4767 60.0581 56.0378 60.2526Z" fill="#47BA2A"/>
<path d="M45.0451 86.7205C45.6457 86.4647 46.2864 86.4282 46.8871 86.3551C50.2107 86.0993 53.4943 85.6973 56.6176 84.6741C59.0203 83.8701 60.7421 82.2622 61.7032 80.0696C62.1436 79.1195 62.3439 78.1328 62.3439 77.1096C62.3038 72.7974 62.2638 68.5218 62.3439 64.2097C62.3839 62.4921 60.3417 60.8842 58.1793 61.5054C57.2583 61.7612 56.5776 62.4556 55.9369 63.1134C54.175 64.9771 52.1728 66.6216 50.3308 68.3756C49.0895 69.545 47.6079 70.3125 45.846 70.5317C45.2854 70.6048 44.8449 70.8971 44.2843 70.9702C44.004 71.0068 43.7237 71.0799 43.4434 71.0433C43.9239 70.4952 44.4845 70.0201 45.0451 69.545C51.7323 63.4423 58.4196 57.3395 65.1068 51.2367C65.1469 51.2002 65.1469 51.2002 65.1869 51.1636C65.3872 51.0174 65.5473 50.6885 65.8677 50.8347C66.1079 50.9443 65.9878 51.2732 65.9878 51.4925C65.9878 55.0372 65.9878 58.582 65.9878 62.0901C65.9878 68.8872 65.9077 75.6478 66.0279 82.4449C66.0679 84.4183 65.227 85.8069 63.5852 86.9032C62.7443 87.4514 61.8633 87.9265 60.8623 88.1823C59.7811 88.4746 58.78 88.9131 57.6588 89.0228C55.7367 89.2055 53.8146 89.1324 51.8925 89.0959C50.2107 89.0593 48.7291 88.4381 47.2074 87.9265C46.4066 87.6707 45.6858 87.2687 45.0451 86.7205Z" fill="#47BA2A"/>
</g>
<mask id="path-9-inside-1_168_371" fill="white">
<path fill-rule="evenodd" clip-rule="evenodd" d="M55.2626 100.172C80.0652 100.172 100.172 80.0652 100.172 55.2626C100.172 43.7366 95.8296 33.2248 88.692 25.2737L25.2935 88.7099C33.2423 95.8369 43.7462 100.172 55.2626 100.172ZM20.5669 83.7783L83.7577 20.5499C76.0052 14.1785 66.0806 10.3535 55.2626 10.3535C30.46 10.3535 10.3535 30.46 10.3535 55.2626C10.3535 66.0902 14.1853 76.0228 20.5669 83.7783Z"/>
</mask>
<path d="M88.692 25.2737L90.2555 23.8702L88.7738 22.2196L87.2059 23.7885L88.692 25.2737ZM25.2935 88.7099L23.8075 87.2247L22.2396 88.7935L23.891 90.2742L25.2935 88.7099ZM20.5669 83.7783L18.9445 85.1133L20.4159 86.9015L22.0529 85.2635L20.5669 83.7783ZM83.7577 20.5499L85.2438 22.0351L86.8808 20.3971L85.0917 18.9267L83.7577 20.5499ZM98.0707 55.2626C98.0707 78.9049 78.9049 98.0707 55.2626 98.0707V102.273C81.2256 102.273 102.273 81.2256 102.273 55.2626H98.0707ZM87.1286 26.6772C93.9335 34.2578 98.0707 44.2746 98.0707 55.2626H102.273C102.273 43.1987 97.7258 32.1919 90.2555 23.8702L87.1286 26.6772ZM87.2059 23.7885L23.8075 87.2247L26.7796 90.1951L90.1781 26.7589L87.2059 23.7885ZM55.2626 98.0707C44.2837 98.0707 34.2745 93.9404 26.6961 87.1456L23.891 90.2742C32.2102 97.7333 43.2088 102.273 55.2626 102.273V98.0707ZM22.0529 85.2635L85.2438 22.0351L82.2716 19.0647L19.0808 82.2931L22.0529 85.2635ZM55.2626 12.4545C65.5764 12.4545 75.0332 16.0993 82.4237 22.1731L85.0917 18.9267C76.9771 12.2578 66.5848 8.25251 55.2626 8.25251V12.4545ZM12.4545 55.2626C12.4545 31.6204 31.6204 12.4545 55.2626 12.4545V8.25251C29.2996 8.25251 8.25251 29.2996 8.25251 55.2626H12.4545ZM22.1892 82.4434C16.1057 75.05 12.4545 65.5855 12.4545 55.2626H8.25251C8.25251 66.5948 12.2649 76.9955 18.9445 85.1133L22.1892 82.4434Z" fill="black" mask="url(#path-9-inside-1_168_371)"/>
<rect x="17.0664" y="87.2805" width="101.374" height="6.82934" transform="rotate(-45.017 17.0664 87.2805)" fill="#AA6100"/>
</svg>
