<svg width="93" height="93" viewBox="0 0 93 93" fill="none" xmlns="http://www.w3.org/2000/svg">
<path d="M12.4074 62.8099C14.0875 62.1379 15.6642 61.5176 17.2409 60.8714C17.9388 60.587 18.6367 60.3803 19.3863 60.4578C19.774 60.4836 20.1617 60.4836 20.5494 60.4578C25.6414 60.1735 30.63 60.7938 35.5928 61.9311C40.7365 63.1201 45.9577 64.0506 51.1273 65.0587C51.6959 65.1621 52.1095 65.4981 52.5489 65.8083C55.1853 67.7468 56.2968 70.2541 55.8574 73.5626C55.5989 75.527 55.418 75.9406 53.4536 75.9406C48.9044 75.9406 44.3552 75.9406 39.806 75.9406C39.4958 75.9406 39.1856 75.9406 38.9013 75.9406C38.9013 75.9923 38.8755 76.044 38.8755 76.0956C41.5119 77.569 44.1225 79.0164 46.759 80.4898C47.0433 80.6448 47.3276 80.5931 47.612 80.5931C51.1273 80.5931 54.6425 80.6448 58.1837 80.5673C59.9155 80.5414 61.4922 79.7402 63.1206 79.2749C68.7812 77.6465 74.416 75.9406 80.0767 74.3122C83.6437 73.3041 87.0814 76.0698 86.8229 79.7402C86.6678 82.0406 85.453 83.669 83.2559 84.4703C75.9927 87.0551 68.6778 89.5881 61.4146 92.2246C59.8896 92.7674 58.3905 93 56.7879 93C49.9383 92.9483 43.0886 92.9742 36.239 93C35.722 93 35.2309 92.9483 34.714 92.7674C28.9499 90.8288 23.1859 88.8903 17.396 87.0034C15.871 86.5123 14.2684 86.9 12.6917 86.7966C12.4074 86.7707 12.4074 86.9775 12.4074 87.1843C12.4074 87.5462 12.4074 87.8822 12.4074 88.2441C12.3816 89.1487 11.9422 89.7174 11.0633 89.8725C8.0133 90.4153 4.96328 90.9322 1.91325 91.3975C0.698407 91.5784 0.0263672 90.8547 0.0263672 89.4589C0.0263672 81.2652 0.0263672 73.0456 0.0263672 64.8519C0.0263672 62.9392 0.0263672 61.0523 0.0263672 59.1396C0.0263672 57.8213 0.801798 57.1751 2.09418 57.3819C4.98912 57.873 7.88407 58.3383 10.779 58.8552C12.0455 59.0879 12.4333 59.5273 12.4333 60.7938C12.4074 61.4142 12.4074 62.0345 12.4074 62.8099Z" fill="black"/>
<path d="M21.687 18.3003C21.687 14.9143 21.687 11.5282 21.687 8.14219C21.687 6.9015 21.9972 6.48793 23.212 6.17776C30.682 4.18749 38.152 2.19722 45.5962 0.181097C46.3199 -0.0256847 46.9919 0.0777061 47.6898 0.25864C54.9789 2.19722 62.2421 4.13579 69.5053 6.07437C71.0044 6.48793 71.2888 6.8498 71.2888 8.37482C71.2888 14.7592 71.3922 21.1694 71.2371 27.5538C71.0561 35.4374 68.9108 42.7523 64.1548 49.1625C60.8463 53.6341 56.659 56.9943 51.1534 58.3384C44.0194 60.0702 37.816 58.0282 32.4914 53.2206C27.1667 48.4387 24.2201 42.287 22.6692 35.4115C21.9714 32.2839 21.6612 29.1047 21.687 25.8996C21.7129 23.3406 21.687 20.8076 21.687 18.3003Z" fill="black"/>
<path d="M13.9066 9.30517C12.4074 9.30517 12.4074 9.30517 12.4074 7.806C12.4074 6.20345 12.4074 6.20345 10.8048 6.20345C9.30566 6.20345 9.30566 6.20345 9.30566 4.70428C9.30566 3.10172 9.30566 3.10172 10.9082 3.10172C12.4074 3.10172 12.4074 3.10172 12.4074 1.60256C12.4074 -2.46503e-07 12.4074 0 14.0099 0C15.5091 0 15.5091 -2.46503e-07 15.5091 1.49917C15.5091 3.10172 15.5091 3.10172 17.1117 3.10172C18.6108 3.10172 18.6108 3.10172 18.6108 4.60089C18.6108 6.20345 18.6108 6.20345 17.0083 6.20345C15.5091 6.20345 15.5091 6.20345 15.5091 7.70261C15.5091 9.30517 15.5091 9.30517 13.9066 9.30517Z" fill="black"/>
<path d="M79.0686 0C80.6195 0 80.6195 0 80.6195 1.55086C80.6195 3.10172 80.6195 3.10172 82.1703 3.10172C83.7212 3.10172 83.7212 3.10172 83.7212 4.65258C83.7212 6.20345 83.7212 6.20345 82.1703 6.20345C80.6195 6.20345 80.6195 6.20345 80.6195 7.75431C80.6195 9.30517 80.6195 9.30517 79.0686 9.30517C77.5177 9.30517 77.5177 9.30517 77.5177 7.75431C77.5177 6.20345 77.5177 6.20345 75.9669 6.20345C74.416 6.20345 74.416 6.20345 74.416 4.65258C74.416 3.10172 74.416 3.10172 75.9669 3.10172C77.5177 3.10172 77.5177 3.10172 77.5177 1.55086C77.4919 0 77.4919 0 79.0686 0Z" fill="black"/>
<path d="M0 13.9319C0 12.381 0 12.381 1.55086 12.381C3.10172 12.381 3.10172 12.381 3.10172 10.8302C3.10172 9.2793 3.10172 9.2793 4.65258 9.2793C6.20345 9.2793 6.20345 9.2793 6.20345 10.8302C6.20345 12.381 6.20345 12.381 7.75431 12.381C9.30517 12.381 9.30517 12.381 9.30517 13.9319C9.30517 15.4827 9.30517 15.4827 7.75431 15.4827C6.20345 15.4827 6.20345 15.4827 6.20345 17.0336C6.20345 18.5845 6.20345 18.5845 4.65258 18.5845C3.10172 18.5845 3.10172 18.5845 3.10172 17.0336C3.10172 15.4827 3.10172 15.4827 1.55086 15.4827C0 15.4827 0 15.4827 0 13.9319Z" fill="black"/>
<path d="M92.9995 13.9319C92.9995 15.4827 92.9995 15.4827 91.4486 15.4827C89.8978 15.4827 89.8978 15.4827 89.8978 17.0336C89.8978 18.5845 89.8978 18.5845 88.3469 18.5845C86.7961 18.5845 86.7961 18.5845 86.7961 17.0336C86.7961 15.4827 86.7961 15.4827 85.2452 15.4827C83.6943 15.4827 83.6943 15.4827 83.6943 13.9319C83.6943 12.381 83.6943 12.381 85.2452 12.381C86.7961 12.381 86.7961 12.381 86.7961 10.8302C86.7961 9.2793 86.7961 9.2793 88.3469 9.2793C89.8978 9.2793 89.8978 9.2793 89.8978 10.8302C89.8978 12.381 89.8978 12.381 91.4486 12.381C92.9995 12.381 92.9995 12.381 92.9995 13.9319Z" fill="black"/>
<path d="M12.4066 40.374C12.4066 41.8473 12.4066 41.8473 13.9316 41.8473C15.5083 41.8473 15.5083 41.8473 15.5083 43.4757C15.5083 44.9491 15.5083 44.9491 13.9833 44.9491C12.4066 44.9491 12.4066 44.9491 12.4066 46.5775C12.4066 48.0508 12.4066 48.0508 10.8816 48.0508C9.30485 48.0508 9.30485 48.0508 9.30485 46.4224C9.30485 44.9491 9.30485 44.9491 7.77983 44.9491C6.20313 44.9491 6.20312 44.9491 6.20312 43.3206C6.20312 41.8473 6.20313 41.8473 7.72814 41.8473C9.30485 41.8473 9.30485 41.8473 9.30485 40.2189C9.30485 38.7456 9.30485 38.7456 10.8299 38.7456C12.4066 38.7456 12.4066 38.7456 12.4066 40.374Z" fill="black"/>
<path d="M86.7964 43.476C86.7964 44.9752 86.7964 44.9752 85.2714 44.9752C83.6947 44.9752 83.6947 44.9752 83.6947 46.5777C83.6947 48.0769 83.6947 48.0769 82.1696 48.0769C80.5929 48.0769 80.5929 48.0769 80.5929 46.4743C80.5929 44.9752 80.5929 44.9752 79.0679 44.9752C77.4912 44.9752 77.4912 44.9752 77.4912 43.3726C77.4912 41.8734 77.4912 41.8735 79.0162 41.8735C80.5929 41.8735 80.5929 41.8734 80.5929 40.2709C80.5929 38.7717 80.5929 38.7717 82.1179 38.7717C83.6947 38.7717 83.6947 38.7717 83.6947 40.3743C83.6947 41.8735 83.6947 41.8735 85.2197 41.8735C86.7964 41.8476 86.7964 41.8476 86.7964 43.476Z" fill="black"/>
<path d="M15.5088 52.626C15.5088 51.1269 15.5088 51.1269 17.0338 51.1269C18.6105 51.1269 18.6105 51.1269 18.6105 49.5243C18.6105 48.0251 18.6105 48.0251 20.1355 48.0251C21.7122 48.0251 21.7122 48.0251 21.7122 49.6277C21.7122 51.1269 21.7122 51.1269 23.2373 51.1269C24.814 51.1269 24.814 51.1269 24.814 52.7294C24.814 54.2286 24.814 54.2286 23.2889 54.2286C21.7122 54.2286 21.7122 54.2286 21.7122 55.8312C21.7122 57.3303 21.7122 57.3303 20.1872 57.3303C18.6105 57.3303 18.6105 57.3303 18.6105 55.7278C18.6105 54.2286 18.6105 54.2286 17.0855 54.2286C15.5088 54.2544 15.5088 54.2544 15.5088 52.626Z" fill="black"/>
<path d="M72.8645 48.0508C74.4154 48.0508 74.4154 48.0508 74.4154 49.6016C74.4154 51.1525 74.4154 51.1525 75.9662 51.1525C77.5171 51.1525 77.5171 51.1525 77.5171 52.7034C77.5171 54.2542 77.5171 54.2542 75.9662 54.2542C74.4154 54.2542 74.4154 54.2542 74.4154 55.8051C74.4154 57.356 74.4154 57.356 72.8645 57.356C71.3136 57.356 71.3136 57.356 71.3136 55.8051C71.3136 54.2542 71.3136 54.2542 69.7628 54.2542C68.2119 54.2542 68.2119 54.2542 68.2119 52.7034C68.2119 51.1525 68.2119 51.1525 69.7628 51.1525C71.3136 51.1525 71.3136 51.1525 71.3136 49.6016C71.3136 48.0508 71.3136 48.0508 72.8645 48.0508Z" fill="black"/>
<path d="M47.3011 89.8983C44.0184 89.8983 40.7099 89.8725 37.4273 89.9242C36.3675 89.9242 35.4112 89.7433 34.4031 89.4072C28.9751 87.572 23.5212 85.7627 18.0932 83.9534C16.5423 83.4364 14.9656 83.7466 13.3889 83.7207C12.5876 83.7207 12.3809 83.5398 12.3809 82.7127C12.4326 77.4914 12.4067 72.2444 12.3809 67.0231C12.3809 66.3252 12.6393 66.0926 13.2338 65.7824C16.9042 63.9214 20.7814 63.3269 24.8911 63.4561C28.484 63.5595 31.8959 64.4125 35.3853 65.0846C40.193 65.9892 45.0006 66.9973 49.8083 67.9536C51.4884 68.2897 53.1427 70.9261 52.7291 72.5287C52.6516 72.7872 52.5482 72.8389 52.3414 72.8389C52.1088 72.8389 51.902 72.8389 51.6694 72.8389C45.4659 72.8389 39.2625 72.8389 33.059 72.8389C32.1285 72.8389 31.3531 73.0198 31.0946 74.002C30.8361 74.9842 31.4306 75.527 32.2319 75.9664C36.6001 78.3703 40.9684 80.8258 45.3367 83.2555C45.8795 83.5657 46.4481 83.6949 47.0943 83.6949C49.2138 83.669 51.3592 83.5915 53.4787 83.7207C57.4075 83.9534 61.1296 83.2555 64.8517 82.0665C70.0471 80.3864 75.3458 78.9389 80.5929 77.3881C81.601 77.0779 82.5315 77.2071 83.2294 78.0859C83.798 78.8097 83.9014 79.611 83.5137 80.4381C83.2294 81.0584 82.7124 81.4203 82.0662 81.6529C74.3895 84.3669 66.7127 87.0551 59.0359 89.7949C58.6741 89.9242 58.3381 89.9242 58.002 89.9242C54.4092 89.8983 50.8422 89.8983 47.3011 89.8983Z" fill="#FFDABE"/>
<path d="M3.10104 74.4153C3.10104 70.1504 3.12689 65.8855 3.0752 61.6465C3.0752 60.8452 3.30782 60.7418 4.00571 60.8711C5.55657 61.1554 7.10744 61.4139 8.68415 61.6723C9.12356 61.7499 9.33034 61.905 9.33034 62.4219C9.30449 70.4347 9.30449 78.4217 9.33034 86.4344C9.33034 86.9255 9.17525 87.1323 8.70999 87.184C7.08159 87.4425 5.45318 87.701 3.85063 87.9853C3.23028 88.0887 3.10104 87.9078 3.10104 87.3133C3.10104 82.9967 3.10104 78.706 3.10104 74.4153Z" fill="#A57856"/>
<path d="M33.6801 49.9895C31.0954 47.6115 29.3119 44.6649 27.8903 41.5115C25.8483 36.9623 24.8402 32.1288 24.7885 27.166C24.7368 21.3503 24.7885 15.5346 24.7627 9.74467C24.7627 9.09848 24.9695 8.8917 25.564 8.73661C32.3102 6.95312 39.0565 5.14379 45.8027 3.33445C46.2163 3.23106 46.604 3.17936 47.0176 3.3086C52.4456 4.78192 57.8994 6.22939 63.3533 7.67686C63.405 7.70271 63.4567 7.72855 63.5084 7.78025C63.8186 8.11627 63.7669 8.55568 63.7669 8.96924C63.7669 13.415 63.9478 17.8867 63.741 22.3325C63.3792 30.1385 60.9236 37.2983 55.9609 43.3984C52.7557 47.3531 48.6977 50.1705 43.554 51.1268C40.8658 51.6438 38.2293 51.4887 35.5929 50.8167C34.9725 50.6357 34.3005 50.3772 33.6801 49.9895Z" fill="#5EAC24"/>
<path d="M33.6797 49.9893C35.2305 50.2477 36.7039 50.8164 38.2806 50.9973C42.2611 51.4884 45.9315 50.6354 49.3434 48.6969C54.4612 45.7761 57.8214 41.2786 60.2511 35.9798C61.8278 32.5162 62.8359 28.8975 63.3011 25.1496C63.4562 23.8831 63.5855 22.5907 63.5596 21.2983C63.5338 16.775 63.5596 12.2516 63.5596 7.72827C64.9295 8.06429 66.2995 8.42616 67.6694 8.73633C68.2639 8.86557 68.2122 9.25329 68.2122 9.66685C68.2122 12.9495 68.2381 16.258 68.2122 19.5407C68.1864 23.0818 68.3931 26.6488 68.0054 30.1899C67.1525 38.0218 64.5418 45.0782 58.7261 50.6096C55.1333 54.0473 50.8426 55.9859 45.7764 55.7274C40.9687 55.5207 36.9623 53.4787 33.6797 49.9893Z" fill="#499312"/>
<path d="M60.4583 29.4922C60.4583 30.4486 60.4583 31.4308 60.4583 32.3872C60.4325 34.3257 59.166 35.6181 57.2532 35.644C56.0901 35.6698 54.9269 35.7215 53.7638 35.6181C52.8333 35.5406 52.6523 35.9024 52.704 36.7296C52.7816 37.8927 52.7299 39.0559 52.704 40.219C52.6782 42.08 51.3858 43.3724 49.4989 43.3724C47.5086 43.3983 45.4925 43.3983 43.5022 43.3724C41.6412 43.3466 40.3488 42.0542 40.2971 40.1932C40.2713 39.0042 40.2454 37.7893 40.323 36.6003C40.3747 35.8249 40.1937 35.5147 39.3408 35.5923C38.1518 35.6698 36.9628 35.6181 35.7479 35.6181C33.8352 35.5923 32.5428 34.2999 32.5428 32.3613C32.517 30.3969 32.517 28.4325 32.5428 26.4422C32.5687 24.5036 33.8352 23.2371 35.7479 23.2112C36.8852 23.1854 38.0225 23.1337 39.134 23.2371C40.1679 23.3405 40.3747 22.9527 40.2971 22.0222C40.2196 20.8849 40.2713 19.7735 40.2713 18.6362C40.2971 16.7751 41.5895 15.4828 43.4506 15.4828C45.4408 15.4569 47.4569 15.4569 49.4472 15.4828C51.3082 15.5086 52.6006 16.801 52.6523 18.6362C52.6782 19.851 52.704 21.0917 52.6265 22.3066C52.5748 23.1078 52.885 23.2629 53.5828 23.2371C54.7718 23.1854 55.9608 23.2112 57.1757 23.2371C59.0884 23.2629 60.3808 24.5553 60.4066 26.468C60.4583 27.5019 60.4583 28.4842 60.4583 29.4922Z" fill="black"/>
<path d="M46.5 40.2965C45.6988 40.2965 44.8716 40.2706 44.0704 40.2965C43.5017 40.3223 43.3725 40.1155 43.3725 39.5727C43.3983 38.3062 43.3983 37.0655 43.3725 35.799C43.3466 33.8346 42.0542 32.5422 40.0898 32.5163C38.7974 32.5163 37.505 32.4905 36.2127 32.5163C35.7474 32.5163 35.6182 32.3871 35.6182 31.9218C35.644 30.2417 35.644 28.5616 35.6182 26.8815C35.6182 26.3904 35.7991 26.287 36.2385 26.287C37.5309 26.3129 38.8233 26.3129 40.1157 26.287C42.1059 26.2612 43.3725 24.9946 43.3983 23.0044C43.3983 21.712 43.4242 20.4196 43.3983 19.1272C43.3983 18.662 43.5276 18.5327 43.9928 18.5327C45.6729 18.5586 47.353 18.5586 49.0331 18.5327C49.5242 18.5327 49.6276 18.7136 49.6276 19.1531C49.6018 20.4454 49.6018 21.7378 49.6276 23.0302C49.6535 24.9946 50.9458 26.287 52.9103 26.287C54.2027 26.287 55.495 26.3129 56.7874 26.287C57.2527 26.287 57.3819 26.4421 57.3819 26.8815C57.3561 28.5616 57.3561 30.2417 57.3819 31.9218C57.3819 32.4129 57.201 32.5163 56.7616 32.4905C55.4692 32.4646 54.1768 32.4646 52.8844 32.4905C50.8942 32.5163 49.6276 33.7829 49.6276 35.7731C49.6276 37.0655 49.6018 38.3579 49.6276 39.6503C49.6276 40.1155 49.4984 40.2706 49.0331 40.2448C48.1801 40.2706 47.3272 40.2965 46.5 40.2965Z" fill="#91DC5A"/>
</svg>
